<?xml version="1.0" standalone="no"?>
<svg version="1.1" id="downloadSvg" xmlns="http://www.w3.org/2000/svg" xmlns:xlink="http://www.w3.org/1999/xlink" x="0px" y="0px" viewBox="0 0 1200 1200" enable-background="new 0 0 1200 1200" xml:space="preserve" height="1024" width="1024">
<style type="text/css">
	.st0{fill:#222F46;}
</style>
<path class="st0" d="M713.48,371.06c-23.43-47.27-46.84-94.55-70.4-141.75c-1.12-2.24-3.36-4.38-5.6-5.49&#10;&#9;c-8.22-4.06-15.21-9.66-21.29-16.37c-1.9-2.1-3.12-4.97-4.12-7.68c-2.11-5.73-3.86-11.6-5.76-17.41&#10;&#9;c-3.26,18.06,0.28,36.22-3.98,54.31c-3.82-3.06-6.86-5.5-9.26-7.42c0.83-3.44,2.1-6.34,2.14-9.27c0.25-16.24,0.26-32.49,0.18-48.74&#10;&#9;c-0.01-2.41-0.43-5.03-1.42-7.19c-11.58-25.21-18.83-52.25-32.39-76.61c-0.6-1.08-1.11-2.28-1.36-3.48&#10;&#9;c-0.29-1.37-0.25-2.81-0.4-4.88c2.3,2.44,3.98,5.64,5.55,5.6c3.09-0.09,3.73,1.58,4.79,3.47c6.59,11.77,13.16,23.56,19.81,35.3&#10;&#9;c4.54,8.02,9.2,15.97,13.85,24.03c1.2-1.38,2.23-2.57,4.46-5.14c-0.55,4.3-0.85,6.74-1.19,9.18c-1.02,7.38,1.39,10.64,8.63,11.66&#10;&#9;c6.15,0.87,12.29,1.76,18.61,2.67c1.05,4.21,1.97,7.93,3.08,12.37c-6.17-0.73-11.77-1.39-18.68-2.2&#10;&#9;c4.17,8.16,7.73,15.25,11.41,22.27c4.01,7.66,13,9.68,18.65,15.73c-0.46,1.19-0.58,2.32-1.21,2.95c-4.41,4.46-3.81,8.73-0.94,14.04&#10;&#9;c22.91,42.48,45.54,85.11,68.29,127.67c0.83,1.55,2.02,2.91,3.73,5.32c2.67-12.19,9.72-18.39,20.6-20.53&#10;&#9;c1.38-0.27,2.91-1.05,3.87-2.06c4.76-5.05,9.36-10.26,14.05-15.46c-41.37-74.64-83.57-147.98-123.68-222.52&#10;&#9;c2.55,2.36,4.29,5.2,5.97,8.07c27.36,46.87,54.7,93.75,82.08,140.62c12.87,22.03,25.81,44.01,38.73,66.01&#10;&#9;c0.45,0.76,1.1,1.4,1.78,2.26c1.99-1.64,3.49-2.89,4.93-4.08c1.64,1.06,3.17,1.82,4.43,2.9c1.23,1.05,2.18,2.42,3.5,3.92&#10;&#9;c-6.91,7.83-13.5,15.29-19.99,22.65c2.94,8.45,5.88,16.41,8.41,24.5c0.96,3.06,3.06,4.34,5.53,5.61c7.34,3.78,14.64,7.63,21.98,11.4&#10;&#9;c1.92,0.99,3.95,1.78,6.99,3.15c1.17-8.14,10.03-13.51,3.61-23.34c2.87-0.59,4.96-1.57,6.89-1.31c5.44,0.73,9.38-1.7,13.69-4.58&#10;&#9;c7.21-4.82,14.71-9.44,23.98-9.38c1.6,0.01,3.96-0.47,4.67-1.56c3.09-4.73,6.67-2.5,9.82-0.81c11.07,5.96,21.2,13.09,29.26,23.05&#10;&#9;c4.1,5.07,6.92,10.05,6.73,16.78c-0.16,5.72,0.79,11.47,0.77,17.21c-0.01,3.61,0.9,6.14,4.14,8.02c4.76,2.75,9.41,5.71,13.92,8.85&#10;&#9;c1.96,1.36,3.95,3.1,5.11,5.13c3.33,5.87,6.33,11.92,9.25,18.01c1.05,2.2,2.03,4.67,2.13,7.05c0.67,16.24,1.07,32.49,1.61,48.73&#10;&#9;c0.22,6.62-1.08,12.89-3.63,18.99c-4.82,11.53-9.63,23.08-14.15,34.73c-1.41,3.65-1.98,7.64-2.76,11.51&#10;&#9;c-1.08,5.34-0.92,11.23-3.19,15.99c-12.14,25.51-24.89,50.73-37.36,76.08c-0.97,1.98-2.1,4.21-2.06,6.31&#10;&#9;c0.12,6.23-1.97,11.15-7.37,14.44c0.59,2.04,1.05,3.71,1.55,5.37c2.16,7.13,1.92,8.04-4.26,12.51c-3.44,2.49-6.83,5.25-10.65,6.99&#10;&#9;c-7.77,3.54-8.49,9.64-7.16,16.8c0.27,1.47,0.78,2.91,0.96,4.39c0.55,4.51,3.22,5.75,7.34,5.16c2.91-3.94,5.68-7.8,8.56-11.58&#10;&#9;c2.77-3.64,4.88-7.98,9.62-10.12c0.57,1.13,1.24,1.82,1.14,2.38c-0.91,5.41-1.57,10.91-3.05,16.17&#10;&#9;c-2.48,8.84-14.02,14.97-22.54,12.23c-2.27-0.73-4.31-2.16-6.66-3.38c-4.7,8.25-9.3,16.54-14.15,24.68&#10;&#9;c-1.38,2.32-3.06,4.91-5.28,6.18c-9.06,5.17-16.58,14.05-28.62,12.45c-0.67-0.09-1.41,0.47-2.14,0.64&#10;&#9;c-18.34,4.2-36.83,7.1-55.73,6.4c-3.25-0.12-6.51,0.21-9.75,0.03c-4.52-0.25-7.41,1.5-9.5,5.64c-3.5,6.92-9.02,11.8-16.35,14.7&#10;&#9;c-4.6,1.83-9,4.16-13.9,6.45c0.42,4.17,0.55,8.16,1.26,12.05c2.56,14.01,5.92,27.91,7.83,42.01c1.95,14.43,4.1,28.71,9.53,42.28&#10;&#9;c5.53,13.83,7.79,29.07,17.85,40.98c9.72,11.51,16.03,24.56,16.98,39.85c0.01,0.22,0.26,0.42,0.87,1.32&#10;&#9;c3.15,0.99,6.86,2.64,10.73,3.22c4.05,0.61,6.62,2.15,6.95,6.32c0.29,3.6,2.21,5.07,5.63,5.82c20.02,4.35,39.99,8.91,59.99,13.34&#10;&#9;c10.01,2.22,20.09,4.09,30.04,6.52c7.19,1.76,8.96,6.86,5.05,13.1c-0.4,0.63-0.79,1.33-1.36,1.79c-4.05,3.26-4.19,7.61-3.71,12.26&#10;&#9;c0.28,2.72,0.62,5.55,0.14,8.19c-0.89,4.85-4.52,5.88-8.03,2.41c-1.36-1.34-2.24-3.17-3.05-4.35&#10;&#9;c-24.11,17.26-50.21,27.4-75.81,38.35c0,5.25,0.59,10.29-0.15,15.14c-0.9,5.93-4.65,7.5-9.72,4.18c-4.99-3.27-9.34-7.49-14.22-10.95&#10;&#9;c-2.31-1.64-5.11-3.17-7.85-3.51c-8.18-1-16.42-1.6-24.65-1.96c-29.55-1.3-58.69-6.11-87.84-10.59&#10;&#9;c-23.96-3.68-47.86-7.78-71.7-12.19c-20.89-3.86-41.96-7.3-62.41-12.9c-42.19-11.56-83.83-25.06-124.29-41.83&#10;&#9;c-28.95-12-56.6-26.51-82.35-44.47c-4.23-2.95-9.1-5.31-11.5-11.19c3.74-3.95,7.09-8.4,11.31-11.76&#10;&#9;c9.18-7.32,18.41-14.73,28.34-20.94c17.16-10.74,34.75-20.77,53.68-28.32c6.68-2.67,12.94-3.18,19.68-1.79&#10;&#9;c2.45,0.5,4.89,1.04,7.32,1.64c9.7,2.41,19.4,4.81,29.08,7.29c2.56,0.65,4.78,0.79,6.9-1.3c9.28-9.17,18.23-18.6,24.49-30.19&#10;&#9;c1.17-2.16,2.25-4.56,2.56-6.96c2.19-16.85,4.2-33.72,6.2-50.6c3.74-31.56,7.81-63.06,17.99-93.36&#10;&#9;c4.37-12.99,9.14-25.85,13.78-38.74c1.97-5.47,5.58-9.4,11.15-11.39c6.11-2.19,12.08-4.94,18.35-6.51&#10;&#9;c16.71-4.2,33.49-8.2,50.37-11.65c5.91-1.21,10.14-2.79,11.73-9.28c1.18-4.84,4.79-7.12,10.16-6.94&#10;&#9;c12.98,0.42,26.01-0.03,38.96,0.77c18.2,1.12,36.33,3.67,54.55,4.42c11.91,0.49,23.91-1.04,35.85-1.86c1.51-0.1,3.62-1.07,4.29-2.28&#10;&#9;c3.32-6.06,6.1-12.38,7.72-20.54c-6.44,3.66-12.05,6.36-17.12,9.85c-7.05,4.84-14.48,1.75-21.76,1.92&#10;&#9;c-5.34-5.82-10.7-11.61-15.99-17.48c-0.44-0.49-0.48-1.41-0.58-2.15c-1.87-14.61-4.28-29.2-1.55-43.99&#10;&#9;c0.64-3.44,1.15-6.92,1.35-10.41c1.12-19.72,1.57-39.5,3.36-59.16c1.11-12.19-0.13-23.52-3.78-35.24&#10;&#9;c-3.44-11.05-2.12-22.22,8.52-30.05c0.93-0.68,1.38-2.04,2.02-3.1c3.31-5.52,1.16-10.77-0.36-17.07&#10;&#9;c-8.62,8.17-15.16,16.98-22.82,24.07c-5.73-2.51-5.34-6.88-4.66-10.69c0.73-4.03-0.35-7.26-2.11-10.65&#10;&#9;c-16.46-31.74-32.8-63.55-49.3-95.28c-15.34-29.51-30.86-58.92-46.22-88.43c-1.11-2.14-3.32-4.21-1.6-8.85&#10;&#9;c35.58,64.86,70.46,128.45,105.83,192.92c17.12-17.95,33.46-35.08,49.98-52.41C713.81,371.99,713.69,371.5,713.48,371.06z&#10;&#9; M676.73,955.68c-1.23-6.63-2.65-13.23-4.12-19.81c-0.43-1.92-1-3.92-2-5.58c-14.49-23.95-28.86-47.97-43.71-71.69&#10;&#9;c-5.43-8.66-11.98-16.63-18.21-24.78c-1.25-1.63-3.15-3.18-5.06-3.8c-7.26-2.32-11.44-7.97-14.91-13.99&#10;&#9;c-4.36-7.56-7.34-15.95-11.98-23.31c-6.25-9.9-5.18-20.47-4.71-31.14c0.13-2.97,0.36-5.94,0.6-9.77&#10;&#9;c-12.58-0.39-24.48,2.46-37.28,2.96c-1.85,8.75-4.1,17.21-5.34,25.81c-1.94,13.47-7.32,25.37-14.98,36.39&#10;&#9;c-14.21,20.46-23.59,42.88-26.98,67.6c-2.24,16.3,0.33,32.4,2.91,49.15c5.58,1.77,11.2,3.69,16.9,5.35&#10;&#9;c17.74,5.16,35.59,10,53.27,15.38c37.53,11.44,75.18,22.44,113.56,30.73c0.95,0.21,1.95,0.21,3.52,0.38&#10;&#9;C679.35,975.38,678.55,965.5,676.73,955.68z M754.86,486.46c0.27,12.32,0.5,23.25,0.77,35.74c4.57-6.67,7.98-11.81,11.59-16.82&#10;&#9;c1.14-1.58,2.59-3.15,4.26-4.1c8.65-4.92,17.42-9.63,27.05-14.91c-1.52-3.32-2.92-7.24-5-10.76c-4.32-7.3-6.63-14.79-5.71-23.49&#10;&#9;c1.18-11.14,1.48-22.37,2.21-34.26c-9.37-6.55-19.11-13.51-29.06-20.16c-1.9-1.27-4.75-2.09-6.95-1.76&#10;&#9;c-11.14,1.67-18.16-3.4-22.83-12.91c-0.66-1.34-1.49-2.59-2.28-3.86c-0.12-0.2-0.39-0.3-0.6-0.44&#10;&#9;c-12.79,5.49-16.23,13.75-12.2,30.16c1.32-0.46,2.65-0.77,3.83-1.39c1.29-0.67,2.43-1.62,4.28-2.89&#10;&#9;c6.08,6.7,12.12,13.29,18.05,19.97c0.78,0.88,1.12,2.24,1.41,3.43c3.08,12.83,6.12,25.68,9.44,39.69c-3.71-0.3-6.76-0.54-10.55-0.84&#10;&#9;c0.63,9.19,1.26,18.27,1.88,27.36c0.61,0.31,1.22,0.62,1.83,0.93C748.77,492.64,751.25,490.13,754.86,486.46z M714.01,567.83&#10;&#9;c9.07-13.53,21.69-23.35,34.49-32.94c3.67-2.75,5.11-5.91,3.77-11.06c-2.95,3.16-5.61,6.01-9.16,9.81c-0.7-2.69-1.26-3.79-1.24-4.89&#10;&#9;c0.12-8.24,0.38-16.47,0.5-24.71c0.02-1.45,0.09-3.51-0.77-4.27c-3.99-3.54-2.84-8.12-3.25-12.48c-0.24-2.62-1.24-5.18-2.06-7.72&#10;&#9;c-0.38-1.17-1.6-2.2-1.62-3.31c-0.12-5.72-2.09-10.3-6.38-14.34c-1.32-1.24-1.07-4.88-0.58-7.21c2.09-9.85-2.36-16.73-10.39-23.29&#10;&#9;c-0.72,1.96-1.76,3.57-1.83,5.22c-0.18,4.24-0.3,8.54,0.22,12.74c1.8,14.59-3.42,26.92-11.6,38.48c-1.18,1.66-2.3,4.03-2.08,5.92&#10;&#9;c2.93,24.8,6.11,49.57,9.23,74.35c0.03,0.24,0.18,0.46,0.55,1.33C712.88,568.68,713.64,568.38,714.01,567.83z" style="fill: rgb(238, 238, 238);"/>
</svg>