<?xml version="1.0" standalone="no"?>
<svg version="1.1" id="downloadSvg" xmlns="http://www.w3.org/2000/svg" xmlns:xlink="http://www.w3.org/1999/xlink" x="0px" y="0px" viewBox="0 0 1200 1200" enable-background="new 0 0 1200 1200" xml:space="preserve" height="1024" width="1024">
<path fill="#1B435E" d="M300.668,138.166c-2.366,18.338,9.033,12.626,17.401,23.215c1.514,1.916,7.991,30.83,7.341,34.146&#10;&#9;c-1.613,8.227-16.284,21.092-21.492,29.107c-15.357,23.634-30.558,51.579-17.903,79.134c2.866,6.238,9.772,12.874,11.32,19.199&#10;&#9;c0.827,3.377-2.942,8.487-1.392,13.228c2.86,8.76,17.854,15.9,24.091,21.459c4.783,4.262,9.075,8.85,12.95,13.859&#10;&#9;c20.88,27,12.147,30.109,0.707,59.111c-4.298,10.899-17.141,23.406-19.047,33.926c-2.527,13.951,10.102,27.979,22.788,15.892&#10;&#9;c8.985-8.56,4.723-26.551,7.408-37.688c2.907-12.051,8.896-23.538,14.172-34.629c13.739,9.122,24.717,7.983,33.69,23.67&#10;&#9;c14.119,24.68,26.405,51.606,36.487,78.153c17.344,45.675,37.264,91.128,50.531,137.986c9.43,33.307,20.354,65.989,32.528,98.253&#10;&#9;c15.609,41.364,39.003,79.27,50.07,122.414c3.599,14.026,3.032,25.6,2.909,39.706c-0.27,30.922,7.719,51.763,24.828,77.28&#10;&#9;c32.991,49.206,72.258,104.494,119.084,141.537c8.552,6.765,36.298,31.732,47.384,19.599c10.485-11.47-12.688-38.66-19.112-46.922&#10;&#9;c-27.591-35.487-66.196-61.954-91.938-99.252c-5.235-7.584-11.394-16.961-13.191-26.046c-2.566-12.972,4.681-21.829,6.844-34.051&#10;&#9;c4.657-26.297-19.646-22.483-26.267-41.45c-4.044-11.587,4.398-31.739,5.814-44.172c1.99-17.464,0.291-34.397-2.78-51.631&#10;&#9;c-3.96-22.218-9.824-45.309-19.613-65.774c19.885,6.335,39.729,15.772,59.575,21.812c39.528,10.328,62.877,53.75,97.543,75.286&#10;&#9;c18.579,11.543,43.804,5.181,59.691,19.739c15.704,14.392,25.978,42.666,34.756,61.595c10.386,22.394,20.025,45.199,29.874,67.823&#10;&#9;c4.05,9.3,6.977,21.289,18.226,22.971c8.864,1.325,18.37-6.581,21.403-14.844c5.481-14.946-7.204-35.121-12.931-48.179&#10;&#9;c-6.54-14.907-12.621-30.232-19.802-44.842c-15.311-31.151-36.068-58.821-60-83.919c-12.247-12.843-29.332-33.703-47.983-36.957&#10;&#9;c-9.332-1.628-24.731,4.801-32.89-0.228c-7.67-4.729-13.156-22.725-17.917-30.01c-15.276-23.377-35.639-41.438-58.106-57.784&#10;&#9;c-18.447-13.422-38.693-23.826-58.913-34.298c-15.498-8.026-30.901-13.844-38.668-29.914c-24.23-50.132,9.218-108.558-2.337-161.485&#10;&#9;c-5.122-23.458-21.935-47.851-19.64-72.232c1.216-12.921,4.632-25.543,5.653-38.628c11.901,35.18,23.905,70.464,37.272,105.119&#10;&#9;c7.144,18.52,13.211,51.166,28.817,64.674c19.548,16.918,93.544,8.023,98.499-23.468c2.059-13.087-13.687-37.727-18.104-49.762&#10;&#9;c-5.297-14.428-10.407-28.898-16.189-43.144c-15.917-39.22-31.47-79.483-44.272-119.862c-3.711-11.709-0.883-20.916-3.428-32.663&#10;&#9;c-5.303-24.478-17.454-43.722-28.152-64.088c-3.851-7.333-6.502-15.671-9.688-23.347c-4.054-9.762-5.411-22.388-10.127-31.036&#10;&#9;c-3.915-7.178-9.653-10.256-15.994-14.864c-7.003-5.09-7.388-5.25-13.337-11.032c-7.966-7.739-8.42-7.184-17.719-11.744&#10;&#9;c-5.3-2.598-5.682-1.685-11.195-5.427c-3.883-2.636-6.827-6.809-10.683-9.583c-19.894-14.308-34.665-5.861-48.731,11.788&#10;&#9;c-9.942-45.107-66.121-59.303-98.31-28.359c-14.201,13.651-15.96,30.596-35.743,37.255c-13.368,4.501-22.752,4.318-29.285,19.641&#10;&#9;C305.585,126.985,301.204,134.009,300.668,138.166z M492.755,92.223c5.453-3.278,5.947-3.049,11.043-2.12&#10;&#9;c4.416,2.13,8.331,4.959,11.745,8.487c7.161,3.484,7.244,7.596,0.25,12.333c0.424,9.416,1.172,15.748-3.788,23.806&#10;&#9;c-8.421,13.68-2.937,5.358-14.494,2.576c-4.261-1.026-17.165-9.251-18.722-10.717c-2.748-2.588-6.519-1.379-7.229-5.231&#10;&#9;C470.128,113.578,487.529,96.967,492.755,92.223z M349.88,190.921c1.2,6.147,2.819,12.805,2.135,19.106&#10;&#9;c-4.609-5.545-10.401-8.895-5.729-14.55C347.485,193.959,348.682,192.439,349.88,190.921z M333.719,209.617&#10;&#9;c3.791,5.235,11.31,11.589,13.26,17.163c2.227,6.367-0.267,20.898,0.635,28.429c1.513,12.629,5.315,25.54,5.355,38.269&#10;&#9;c0.063-0.615,0.124-1.232,0.186-1.846c-0.535,12.938,0.139,31.128-6.587,46.033c-11.745-4.295-32.756-19.43-40.296-27.406&#10;&#9;c-15.35-16.235-11.234-37.453-3.552-53.916c0.266-0.558,0.524-1.119,0.776-1.683C309.422,241.786,322.057,222.764,333.719,209.617z&#10;&#9; M334.848,170.467c10.904,4.604,7.519,7.1,2.223,13.652C337.031,183.975,331.813,168.32,334.848,170.467z" style="fill: rgb(238, 238, 238);"/>
</svg>