<?xml version="1.0" standalone="no"?>
<svg version="1.1" id="downloadSvg" xmlns="http://www.w3.org/2000/svg" xmlns:xlink="http://www.w3.org/1999/xlink" x="0px" y="0px" viewBox="0 0 1200 1200" enable-background="new 0 0 1200 1200" xml:space="preserve" height="1024" width="1024">
<g>
	<path fill="#8E4BCD" d="M319.06,328.625c-11.215-8.024-25.323-9.324-30.446-5.13c-4.632,3.791-5.802,12.932-7.155,23.514&#10;&#9;&#9;c-0.535,4.18-1.131,8.702-2.003,13.374c-0.021,0.102-0.035,0.203-0.058,0.305c-3.208,16.95-10.345,35.939-33.462,48.782&#10;&#9;&#9;c-37.94,21.079-34.149,56.886-31.1,85.657c0.378,3.565,0.731,6.918,0.975,9.999c0.329,4.18,0.728,7.3,1.081,10.049&#10;&#9;&#9;c1.696,13.286,1.329,17.342-8.164,38.638c-0.023,0.055-0.048,0.106-0.071,0.161c-2.238,5.017-4.977,10.982-8.312,18.246&#10;&#9;&#9;c-2.219,4.83-4.724,10.289-7.551,16.479c-3.293,7.218-6.381,16.893-2.364,21.998c6.711,8.53,30.603,9.353,49.69,7.203&#10;&#9;&#9;c-4.247-115.68,61.588-220.531,90.206-254.698C336.378,344.576,325.987,333.582,319.06,328.625z" style="fill: rgb(246, 246, 246);"/>
	<path fill="#8E4BCD" d="M192.488,518.291c-0.367-2.876-0.827-6.455-1.205-11.225c-0.226-2.883-0.562-6.014-0.915-9.349&#10;&#9;&#9;c-3.198-30.206-8.554-80.767,43.618-109.75c11.354-6.31,16.55-14.522,19.41-24.018c-20.788-10.887-39.361-5.646-50.462-0.095&#10;&#9;&#9;c-0.795,0.554-1.655,1.012-2.579,1.368c-4.837,2.701-7.773,5.16-8.157,5.489l-0.488,0.399&#10;&#9;&#9;c-60.733,46.982-49.307,119.976-47.855,127.911c1.429,4.205,12.508,33.262,45.643,37.287&#10;&#9;&#9;C193.512,526.561,193.258,524.341,192.488,518.291z" style="fill: rgb(246, 246, 246);"/>
	<path fill="#8E4BCD" d="M358.806,545.801l-0.23-5.466c-0.993-23.235-2.12-49.568,8.271-73.556&#10;&#9;&#9;c5.971-13.787,16.175-23.758,25.178-32.556c9.543-9.321,17.783-17.373,20.634-28.407c1.466-5.667,2.35-11.904,3.289-18.507&#10;&#9;&#9;c1.498-10.575,3.049-21.514,7.222-32.117c1.041-2.651,2.284-5.336,3.742-8.166c-17.12-3.022-47.878-2.268-76.382,30.372&#10;&#9;&#9;c-24.86,28.786-93.985,136.635-85.233,250.06l0.025,0.378c1.276,27.507,18.544,42.721,32.048,50.471&#10;&#9;&#9;c0.516-6.378,1.781-12.83,4.016-19.343c8.367-24.411,21.461-41.869,33.011-57.271C348.531,582.848,359.692,567.962,358.806,545.801&#10;&#9;&#9;z" style="fill: rgb(246, 246, 246);"/>
	<path fill="#8E4BCD" d="M65.513,378.056c-7.226,0.523-12.434,3.657-14.522,8.618c-2.194,5.219-0.696,11.702,4.01,17.405&#10;&#9;&#9;l62.664,65.353c1.102-27.498,8.971-66.467,39.369-99.733L65.513,378.056z" style="fill: rgb(246, 246, 246);"/>
	<path fill="#8E4BCD" d="M1046.768,792.943c-14.462-9.194-30.852-19.617-47.699-31.135c-16.543-11.31-30.057-20.807-41.979-29.188&#10;&#9;&#9;c-53.26-37.438-69.337-48.734-155.05-79.566C679.227,608.884,609.035,547.709,604.389,480.8&#10;&#9;&#9;c-3.713-53.451-18.755-68.206-43.675-92.649c-4.039-3.961-8.257-8.102-12.631-12.607c-10.681-10.992-19.959-23.069-28.934-34.75&#10;&#9;&#9;c-1.837-2.388-3.671-4.781-5.519-7.158c-2.085-2.682-4.19-5.724-6.423-8.943c-6.6-9.519-16.571-23.903-24.92-24.221&#10;&#9;&#9;c-1.753-0.081-7.197-0.272-10.158,12.123c-3,12.571-9.356,22.662-15.504,32.418c-1.848,2.936-3.699,5.869-5.434,8.865v0.004&#10;&#9;&#9;c-2.268,3.915-3.897,7.194-5.123,10.314c-3.113,7.918-4.399,16.977-5.759,26.57c-0.993,6.985-2.017,14.207-3.827,21.207&#10;&#9;&#9;c-4.569,17.68-16.624,29.46-27.263,39.852c-8.095,7.911-15.744,15.384-19.793,24.733c-8.148,18.804-7.19,41.134-6.268,62.73&#10;&#9;&#9;l0.233,5.533c1.233,30.902-14.292,51.607-29.308,71.633c-10.971,14.628-22.313,29.757-29.425,50.49&#10;&#9;&#9;c-3.201,9.335-3.609,18.735-2.238,28.253c0.021,0.126,0.044,0.25,0.062,0.377c2.355,15.816,9.584,31.959,17.08,48.678&#10;&#9;&#9;c4.226,9.427,8.596,19.175,11.928,28.764c7.296,21.005,5.484,39.703-5.544,57.168c-17.274,27.369-4.113,36.537,1.509,40.452&#10;&#9;&#9;c11.402,7.946,29.884,3.569,46.197-0.293c3.24-0.767,6.388-1.512,9.402-2.152c5.028-1.064,10.045-2.173,15.066-3.282&#10;&#9;&#9;c19.514-4.314,39.696-8.777,60.366-10.607c14.211-1.261,28.157-0.29,41.643,0.657c15.285,1.067,29.722,2.078,43.911-0.042&#10;&#9;&#9;c30.51-4.537,60.79-18.044,83.763-29.301c5.392-2.643,10.769-5.427,16.165-8.222c22.574-11.681,45.915-23.761,72.63-27.238&#10;&#9;&#9;c6.508-0.848,13.119-1.244,19.783-1.244c52.791,0,109.439,24.751,155.99,45.088c3.904,1.707,7.734,3.381,11.483,5.003&#10;&#9;&#9;c6.823,2.957,13.656,5.957,20.507,8.964c47.625,20.906,96.872,42.523,147.298,50.844c14.773,2.431,29.439-1.311,36.474-9.338&#10;&#9;&#9;c4.833-5.505,5.893-12.882,3.155-21.917C1123.45,841.698,1091.283,821.248,1046.768,792.943z" style="fill: rgb(246, 246, 246);"/>
	<path fill="#8E4BCD" d="M1058.827,735.092c-12.893-9.084-25.068-17.663-34.587-25.634c-48.738-40.813-73.693-97.137-97.826-151.609&#10;&#9;&#9;c-18.843-42.526-38.325-86.501-68.941-121.742c-37.817-43.523-87.48-71.782-136.26-77.53c-36.598-4.318-75.895-3.141-113.898-1.996&#10;&#9;&#9;c-13.958,0.42-28.197,0.811-42.373,0.967c0.269,0.279,0.516,0.575,0.786,0.853c4.233,4.357,8.314,8.356,12.215,12.186&#10;&#9;&#9;c26.054,25.556,46.632,45.742,50.989,108.51c3.872,55.762,70.001,110.729,181.433,150.807&#10;&#9;&#9;c88.83,31.948,106.984,44.71,160.873,82.59c11.861,8.335,25.305,17.783,41.717,29.005c16.507,11.289,32.015,21.147,47.014,30.683&#10;&#9;&#9;c40.749,25.91,74.056,47.127,89.123,74.735c1.009-5.071,1.193-10.131,0.477-15.217&#10;&#9;&#9;C1144.463,795.416,1096.979,761.97,1058.827,735.092z" style="fill: rgb(246, 246, 246);"/>
</g>
</svg>