<?xml version="1.0" standalone="no"?>
<svg version="1.1" id="downloadSvg" xmlns="http://www.w3.org/2000/svg" xmlns:xlink="http://www.w3.org/1999/xlink" x="0px" y="0px" viewBox="0 0 1200 1200" enable-background="new 0 0 1200 1200" xml:space="preserve" height="1024" width="1024">
<g>
	<g>
		<path fill="#404040" d="M1100.548,640.767c24.979-37.459,35.359-81.863,24.573-125.576c-9.079-36.795-27.962-71.132-53.852-98.809&#10;&#9;&#9;&#9;c-45.078-48.19-99.932-84.97-159.351-112.731c-38.036,0.528-74.325,13.339-118.238,22.902c0.088,0.03,0.172,0.06,0.26,0.09&#10;&#9;&#9;&#9;l-55.386,13.56c0,0,73.641-6.756,77.972-5.487c0.028,0.01,0.056,0.021,0.084,0.031c-0.002-0.003-0.01-0.018-0.01-0.018&#10;&#9;&#9;&#9;l0.754-0.138l69.28-12.727l-48.192,21.387c0,0-0.013,0-0.014,0c74.056,30.353,125.263,67.591,181.066,138.31&#10;&#9;&#9;&#9;c24.112,30.557,46.427,64.038,54.306,102.156c7.377,35.692,0.862,73.933-17.235,105.513&#10;&#9;&#9;&#9;C1073.428,675.645,1088.161,659.342,1100.548,640.767z" style="fill: rgb(225, 225, 225);"/>
		<path fill="#404040" d="M1145.413,500.728c-2.857-14.308-6.995-28.306-11.999-41.952c-2.921-7.914-6.329-15.793-10.174-23.465&#10;&#9;&#9;&#9;h12.574c0,0-15.472-15.017-20.023-29.123c-4.55-14.107-8.191-30.033-16.382-46.415c-8.191-16.382-33.674-43.685-61.887-51.876&#10;&#9;&#9;&#9;c-28.214-8.191-47.781-50.966-79.634-62.57c-31.854-11.604-25.028-26.621-67.348-37.087c-42.32-10.466-58.247-29.123-89.19-39.59&#10;&#9;&#9;&#9;c-30.944-10.466-25.028-20.477-25.028-20.477c-10.996,18.85-53.49,50.561-72.348,62.226c-7.763-2.058-15.537-4.075-23.345-5.962&#10;&#9;&#9;&#9;c-51.791-12.503-104.564-20.918-157.661-25.192c-53.098-4.279-106.504-4.469-159.618-0.949&#10;&#9;&#9;&#9;c-26.561,1.725-53.049,4.405-79.415,7.686l-39.443,5.164c-6.55,0.864-13.089,1.707-19.579,2.404&#10;&#9;&#9;&#9;c-6.294,0.645-12.847,1.279-18.382,0.92c-9.535-2.779-19.292-4.397-29.037-5.1c-10.016-0.72-20.021-0.56-29.931,0.228&#10;&#9;&#9;&#9;c-9.913,0.793-19.739,2.201-29.45,4.12c-9.755,1.949-19.224,4.246-28.92,7.394l-11.313,3.673l10.195,6.417&#10;&#9;&#9;&#9;c9.161,5.766,18.312,12.065,27.199,18.503c8.904,6.467,17.612,13.198,26.114,20.161c8.531,6.933,16.701,14.265,24.666,21.779&#10;&#9;&#9;&#9;c4.645,4.412,9.113,8.981,13.461,13.646c-7.15-0.352-14.276-0.57-21.448-0.653c-11.758-0.114-23.54,0.132-35.342,0.975&#10;&#9;&#9;&#9;c-11.801,0.871-23.636,2.259-35.433,5.065c-5.893,1.446-11.786,3.228-17.566,5.876c-5.713,2.674-11.579,6.217-16.015,12.138&#10;&#9;&#9;&#9;L50,313.642l5.315,3.132c14.458,8.521,29.099,15.626,44.156,22.307c15.025,6.63,30.356,12.543,45.93,17.753&#10;&#9;&#9;&#9;c31.139,10.429,63.331,17.909,96.054,21.709l0.297,0.035l0.339,0.001c5.435,0.025,10.859,0.261,16.05,1.033&#10;&#9;&#9;&#9;c2.598,0.372,5.126,0.899,7.494,1.581c1.188,0.335,2.31,0.741,3.334,1.176c0.495,0.221,0.997,0.449,1.389,0.679&#10;&#9;&#9;&#9;c0.227,0.115,0.375,0.221,0.543,0.322c0.069,0.024,0.407,0.332-0.008-0.058l-0.007-0.006l1.212,0.919&#10;&#9;&#9;&#9;c28.859,16.12,58.679,29.334,89.311,41.05c15.467,5.815,30.977,10.713,46.515,15.648c15.546,4.86,31.112,9.605,46.739,14.131&#10;&#9;&#9;&#9;c34.856,10.095,69.824,19.742,105.009,28.67c6.243,21.302,21.86,71.25,45.549,83.095c26.393,13.196,14.805,0,18.779-14.107&#10;&#9;&#9;&#9;c3.974-14.107,10.345-12.343,6.42-18.145c-3.574-5.284-18.815-29.094-21.219-38.848c0.608,0.14,1.215,0.281,1.823,0.421&#10;&#9;&#9;&#9;c24.01,31.992,58.231,73.251,105.686,75.684c0,0,13.652-15.017-4.551-27.303c-12.705-8.576-17.198-23.824-18.758-32.266&#10;&#9;&#9;&#9;c7.827,1.076,15.909,1.819,23.439,2.519c8.012,0.776,16.013,1.66,23.998,2.642c31.932,3.956,63.645,9.622,94.637,17.701&#10;&#9;&#9;&#9;c30.903,8.175,61.303,18.895,88.563,34.804c6.784,3.997,13.341,8.332,19.562,13.056c6.219,4.731,11.994,9.93,17.595,15.282&#10;&#9;&#9;&#9;c5.598,5.368,10.811,11.096,15.801,17.171c4.967,6.101,9.5,12.645,14.11,19.646c-1.336-16.783-9.653-32.701-20.731-45.477&#10;&#9;&#9;&#9;c-11.264-12.789-25.099-22.765-39.319-31.458c-28.726-17.178-60.07-28.542-91.735-37.314c-31.733-8.749-64.086-14.549-96.55-18.75&#10;&#9;&#9;&#9;c-8.12-1.037-16.251-1.974-24.39-2.8c-8.282-0.81-15.958-1.539-23.868-2.694c-8.83-1.302-17.672-2.849-26.517-4.513&#10;&#9;&#9;&#9;c-23.329-13.139-56.308-30.94-66.663-32.644c-16.59-2.73-18.865,1.82-18.865,1.82c3.976,2.982,8.61,8.442,13.944,15.369&#10;&#9;&#9;&#9;c-14.614-3.473-29.207-7.08-43.773-10.784c-31.392-7.946-62.707-16.287-93.88-25.081c-15.581-4.416-31.164-8.822-46.662-13.458&#10;&#9;&#9;&#9;c-15.473-4.653-30.985-9.379-46.013-14.708c-9.676-3.465-19.282-7.136-28.821-10.976c18.65,4.548,37.371,8.873,56.267,12.563&#10;&#9;&#9;&#9;c20.284,3.995,40.66,7.628,61.568,9.588l7.887,0.618c1.317,0.094,2.621,0.224,3.95,0.288l4.034,0.078l8.064,0.134l7.926-0.347&#10;&#9;&#9;&#9;c10.555-0.592,21.08-1.773,31.475-3.736c10.399-1.903,20.721-4.347,30.813-7.674c10.081-3.322,20.08-7.098,29.572-12.177&#10;&#9;&#9;&#9;c9.489-5.035,18.65-10.982,26.813-18.465l3.049-2.814l2.828-3.111l2.796-3.138l2.513-3.447c0.805-1.154,1.729-2.298,2.425-3.464&#10;&#9;&#9;&#9;l2.106-3.498c1.458-2.267,2.628-4.863,3.929-7.296c2.332-5.123,4.37-10.69,4.997-16.856c0.703-6.161-0.499-12.557-2.425-17.85&#10;&#9;&#9;&#9;c-1.89-5.363-4.238-9.915-6.119-14.457c-0.964-2.254-1.897-4.499-2.678-6.768l-2.568-7.33c-1.732-4.978-3.905-9.825-6.242-14.595&#10;&#9;&#9;&#9;c-2.322-4.777-5.05-9.39-8.167-13.747c-3.066-4.383-6.77-8.388-10.931-11.778c-4.202-3.329-9.035-5.94-14.137-7.005&#10;&#9;&#9;&#9;c9.131,5.104,14.93,13.484,19.331,22.27c4.309,8.913,7.459,18.382,9.991,28.071l1.924,7.402c0.679,2.654,1.508,5.234,2.358,7.782&#10;&#9;&#9;&#9;c1.788,5.048,3.82,9.81,5.205,14.184c1.385,4.401,1.93,8.368,1.441,12.434c-0.477,4.066-2.029,8.263-4.013,12.432&#10;&#9;&#9;&#9;c-1.176,2.062-2.124,4.166-3.49,6.195l-1.92,3.067c-0.636,1.029-1.375,1.857-2.052,2.797l-2.06,2.75l-2.384,2.558l-2.388,2.555&#10;&#9;&#9;&#9;l-2.66,2.353c-7.092,6.28-15.366,11.493-24.081,15.917c-8.715,4.457-18,7.977-27.434,10.981&#10;&#9;&#9;&#9;c-9.437,3.039-19.168,5.264-28.971,6.984c-9.797,1.814-19.744,2.74-29.678,3.374l-7.462,0.349l-7.335-0.114l-3.666-0.055&#10;&#9;&#9;&#9;c-1.235-0.056-2.488-0.179-3.73-0.265l-7.47-0.565c-4.985-0.397-10.015-1.121-15.021-1.663&#10;&#9;&#9;&#9;c-5.015-0.621-10.036-1.453-15.058-2.146c-10.044-1.541-20.093-3.216-30.124-5.097c-20.055-3.776-40.114-7.807-60.112-12.175&#10;&#9;&#9;&#9;c-18.556-4.086-37.111-8.397-55.581-12.782c1.659-0.069,2.06-0.317,0.654-0.814c-37.656-13.31-27.501-25.256-27.501-25.256&#10;&#9;&#9;&#9;c-62.115,2.73-108.105-30.523-108.105-30.523l-31.399,4.473c-0.341-5.461,42.661-13.652,44.368-15.017&#10;&#9;&#9;&#9;c-43.697-2.856-69.697,3.56-80.497,8.668c-3.587-1.846-7.121-3.744-10.608-5.69c2.064-1.519,4.435-2.867,6.947-4.017&#10;&#9;&#9;&#9;c4.805-2.207,10.095-3.836,15.494-5.156c10.855-2.587,22.21-3.946,33.604-4.781c11.411-0.816,22.914-1.059,34.424-0.947&#10;&#9;&#9;&#9;c11.484,0.129,23.096,0.584,34.44,1.473l2.54,0.199l0.004,0.012c11.774,1.469,38.23,3.565,58.441,3.565&#10;&#9;&#9;&#9;c6.033,0,11.016-0.338,14.178-1.155l4.672,3.1c9.308,6.117,19.188,12.511,30.567,15.845c5.639,1.697,11.589,2.587,17.494,2.403&#10;&#9;&#9;&#9;c3.01-0.087,6.079-0.525,8.955-1.669c2.854-1.089,5.515-3.086,6.791-5.684c-4.895,3.117-10.195,2.16-15.131,1.058&#10;&#9;&#9;&#9;c-5.099-1.362-10.001-3.079-14.719-5.281c-9.445-4.352-18.439-9.929-27.314-16.363c-18.094-12.869-35.939-25.644-54.48-38.238&#10;&#9;&#9;&#9;c-12.476-8.29-25.324-16.026-38.502-23.191c1.036,0.187,2.082,0.378,3.137,0.572c26.297,8.888,83.4,50.445,101.644,56.334&#10;&#9;&#9;&#9;c0,0-40.699-29.522-47.695-41.125c-1.046-1.734-2.233-3.393-3.493-4.98c24.783,5.352,44.703,10.019,44.703,10.019l-25.938-22.218&#10;&#9;&#9;&#9;c0,0,12.718,1.642,25.669,0.61c-0.041,0.087-0.067,0.139-0.067,0.139c3.808-0.391,15.694,7.896,15.694,7.441&#10;&#9;&#9;&#9;c0-0.41-3.667-8.011,6.015-12.535c65.959-20.54,118.769-10.443,159.584-0.07c7.289,2.841,14.754,5.584,20.011,7.102&#10;&#9;&#9;&#9;c10.524,3.039-3.872,21.658-3.872,21.658s20.559-14.467,45.763-16.455c1.812-0.045,3.885-0.119,6.166-0.203&#10;&#9;&#9;&#9;c1.216,0.009,2.43,0.002,3.66,0.079l-0.183-0.206c13.79-0.496,33.624-0.993,53.078,1.924c1.652,0.248,3.37,0.555,5.061,0.837&#10;&#9;&#9;&#9;c0.52,0.44,15.528,13.258,24.037,34.274c0,0,15.926-17.296,26.462-21.838c8.472,2.738,17.11,5.818,25.883,9.367&#10;&#9;&#9;&#9;c7.872,3.185,16.136,4.583,24.544,5.435c7.695,0.78-0.247-0.704,7.524-0.655c14.914,0.093,37.587-2.956,52.231-5.45&#10;&#9;&#9;&#9;c10.427-1.775,25.994-1.976,38.307-2.944c-63.037-19.635-127.756-34.262-192.476-46.258&#10;&#9;&#9;&#9;c-198.858-36.859-353.784,5.916-353.784,5.916l-21.57-7.591l12.014,15.099c0,0-11.376-5.688-31.853-13.424&#10;&#9;&#9;&#9;c-14.042-5.305-48.407-4.404-68.623-3.314c-0.866-0.324-1.722-0.666-2.592-0.984c-4.221-1.507-8.527-2.854-12.912-4.081&#10;&#9;&#9;&#9;c8.759-1.672,17.591-2.918,26.441-3.626c9.429-0.75,18.882-0.894,28.223-0.222c9.339,0.672,18.556,2.223,27.378,4.855l0.619,0.185&#10;&#9;&#9;&#9;l0.492,0.033c7.636,0.517,14.186-0.277,20.933-0.925c6.682-0.718,13.28-1.57,19.86-2.438l39.358-5.153&#10;&#9;&#9;&#9;c26.207-3.26,52.456-5.915,78.769-7.624c52.611-3.487,105.452-3.296,157.98,0.937c52.525,4.228,104.712,12.55,155.927,24.914&#10;&#9;&#9;&#9;c12.794,3.128,25.555,6.404,38.196,10.105c12.681,3.728,25.271,7.775,37.836,11.861c12.57,4.075,25.149,8.091,37.814,11.834&#10;&#9;&#9;&#9;c6.349,1.821,12.67,3.727,19.059,5.436c3.38,0.763,6.825,1.328,10.411,1.492c3.28,0.15,6.678-0.033,10.265-0.743&#10;&#9;&#9;&#9;c-0.388-0.445-0.789-0.852-1.187-1.27c-0.099-0.104-0.196-0.214-0.296-0.317c-0.701-0.722-1.413-1.41-2.14-2.057&#10;&#9;&#9;&#9;c-0.138-0.123-0.275-0.251-0.414-0.371c98.193-11.745,152.364,37.525,152.364,37.525c-10.112-1.839-41.805,3.748-48.177,4.909&#10;&#9;&#9;&#9;c2.578,1.154,5.153,2.324,7.728,3.502c-0.073,0.01-0.141,0.011-0.215,0.021c0.58,0.923,1.184,1.788,1.807,2.607&#10;&#9;&#9;&#9;c1.824,2.395,3.818,4.383,5.899,6.173c0.515,0.443,1.063,0.809,1.589,1.226c2.325,1.845,4.729,3.509,7.259,4.902&#10;&#9;&#9;&#9;c6.208,3.383,12.534,6.516,18.784,9.798c12.356,6.803,24.649,13.682,36.563,21.112c23.77,14.889,46.613,31.294,66.159,51.011&#10;&#9;&#9;&#9;c9.736,9.859,18.675,20.471,26.354,31.941c7.775,11.474,13.724,23.833,18.843,36.862c9.989,26.048,16.294,53.682,16.278,81.404&#10;&#9;&#9;&#9;c0.079,27.663-6.391,55.246-19.67,79.432c-13.188,24.259-32.612,44.854-54.812,61.656c-3.116,2.327-6.293,4.576-9.503,6.778&#10;&#9;&#9;&#9;c-15.061,10.33-31.121,19.288-47.788,27.047c-5.271,2.454-10.588,4.817-15.969,7.033c-26.121,10.626-53.059,20.271-79.812,29.726&#10;&#9;&#9;&#9;c-53.745,18.558-108.195,35.125-163.304,49.005c-13.886,3.473-27.826,6.788-41.802,9.852c-0.644,0.079-1.585,0.235-2.799,0.583&#10;&#9;&#9;&#9;c-6.063,1.226-21.054,4.248-33.524,6.683c-1.668,0.303-3.335,0.646-5.004,0.939c-3.458,0.54-6.971,1.2-10.368,1.612&#10;&#9;&#9;&#9;c-1.685,0.221-3.526,0.513-4.887,0.577c-0.701,0.038-1.565,0.195-2.042,0.087l-0.146-0.008c-0.563-8.4,0.654-25.275,0.654-25.275&#10;&#9;&#9;&#9;c-1.138,10.466,10.921,18.43,10.921,18.43s-6.598-19.567,27.531-36.404c34.129-16.837,242.998-123.092,242.998-123.092&#10;&#9;&#9;&#9;c5.006-11.376,4.323-33.901,4.323-33.901c9.101,17.292-0.455,50.966-0.455,50.966c34.129-64.617-2.73-84.299-2.73-84.299&#10;&#9;&#9;&#9;c-0.21,0.6-0.865,1.588-1.848,2.86c-7.742,3.89-12.085,8.647-16.72,13.797c-4.507,5.129-9.445,9.971-14.361,14.828&#10;&#9;&#9;&#9;c-2.641,2.54-5.319,5.06-8.025,7.562l-14.797-8.557l-5.376,26.166c-1.066,0.877-2.114,1.772-3.19,2.639&#10;&#9;&#9;&#9;c-4.172,3.37-8.468,6.595-12.812,9.759l-20.006-11.569l-6.003,29.215c-4.076,2.623-8.159,5.236-12.284,7.787l-16.404-9.485&#10;&#9;&#9;&#9;l-4.527,22.038c-8.621,5.007-17.333,9.868-26.096,14.639l-11.597-6.707l-2.98,14.506c-10.909,5.715-21.899,11.268-32.997,16.555&#10;&#9;&#9;&#9;c-6.385,3.022-12.821,6.006-19.237,8.688c-1.601,0.663-3.201,1.321-4.737,1.882c-0.832,0.336-1.402,0.475-2.07,0.707&#10;&#9;&#9;&#9;c-0.808,0.249-1.924,0.532-2.794,0.831c-3.037,0.973-5.865,2.091-8.661,3.256c-12.603-1.998-29.567-34.402-44.583-63.089&#10;&#9;&#9;&#9;c-15.803-30.199-32.148-61.429-50.034-74.105c-36.185-25.65-49.89-29.668-78.233-30.156l-12.345-0.213l7.959,9.439&#10;&#9;&#9;&#9;c4.543,5.394,27.445,32.239,37.326,37.598c3.389,3.789,10.084,26.922,14.987,43.877c7.463,25.789,15.179,52.455,23.258,64.938&#10;&#9;&#9;&#9;c2.216,3.426,4.383,6.626,6.437,9.657c8.266,12.203,13.314,20.143,13.732,28.059c0.213,4.023-0.749,8.041-3.136,12.608&#10;&#9;&#9;&#9;c-5.286,10.112-10.957,19.375-15.209,25.982c-3.917,6.084-6.632,9.917-6.687,9.995l-5.013,7.039l8.468,1.717&#10;&#9;&#9;&#9;c0.136,0.027,13.737,2.92,18.104,15.659c3.045,8.884-9.489,66.631-16.225,97.657c-5.386,24.815-8.199,37.977-8.199,42.499&#10;&#9;&#9;&#9;c0,2.813-1.805,5.234-4.754,8.948c-4.519,5.695-10.708,13.497-7.356,26.575c5.258,20.501,8.218,21.688,10.175,22.474l3.834,1.536&#10;&#9;&#9;&#9;l2.608-3.205c4.679-5.749,114.599-141.35,113.655-185.227c-0.621-28.922,9.671-35.516,13.848-37&#10;&#9;&#9;&#9;c0.13-0.028,0.261-0.054,0.391-0.082c1.209-0.244,2.003-0.406,2.218-0.449l-0.002-0.015c14.18-3.105,28.287-6.459,42.361-9.977&#10;&#9;&#9;&#9;c13.053-3.288,26.062-6.736,39.033-10.312l10.191,5.965l1.978-9.381c11.572-3.274,23.116-6.642,34.623-10.128l13.912,8.143&#10;&#9;&#9;&#9;l2.8-13.272c6.671-2.083,13.33-4.202,19.979-6.352l20.877,12.219l4.335-20.551c5.514-1.857,11.026-3.72,16.525-5.619&#10;&#9;&#9;&#9;c0.815-0.288,1.625-0.579,2.44-0.867l24.442,14.306l5.264-24.957c9.583-3.487,19.152-7.022,28.699-10.701&#10;&#9;&#9;&#9;c6.17,3.937,11.798,12.555,6.716,41.222c-2.057,11.602-17.747,43.344-17.747,43.344s60.844-63.726,65.278-108.653&#10;&#9;&#9;&#9;c14.258-7.622,28.04-16.197,41.069-25.927c23.176-17.535,43.797-39.299,57.902-65.245c14.212-25.856,21.137-55.502,21.035-84.812&#10;&#9;&#9;&#9;C1150.043,529.615,1148.295,515.02,1145.413,500.728z M216.993,266.402l8.84,5.866l-16.562-9.607l19.509,20.889&#10;&#9;&#9;&#9;c-9.499-9.385-37.087-26.629-37.087-26.629c6.485,6.817,7.85,17.585,7.85,17.585c-27.133-28.839-38.051-25.696-38.051-25.696&#10;&#9;&#9;&#9;c6.642,5.559,11.451,11.629,14.95,17.292c-0.88-0.857-1.746-1.729-2.636-2.574c-8.195-7.733-16.578-15.251-25.294-22.335&#10;&#9;&#9;&#9;c-8.688-7.117-17.57-13.981-26.646-20.573c-2.806-2.031-5.624-4.027-8.452-6.007c0.635,0.176,1.266,0.342,1.904,0.525&#10;&#9;&#9;&#9;c5.038,1.493,10.085,3.361,15.098,5.34c10.048,3.945,19.924,8.562,29.699,13.383C179.619,243.625,198.622,254.527,216.993,266.402&#10;&#9;&#9;&#9;z M608.376,796.946c10.489-20.067,0.896-34.23-11.249-52.161c-2.01-2.968-4.135-6.103-6.306-9.457&#10;&#9;&#9;&#9;c-7.18-11.097-15.001-38.12-21.899-61.963c-4.671-16.147-8.052-27.464-10.948-35.321c4.888-4.013,11.496-9.496,10.844-9.279&#10;&#9;&#9;&#9;c-1.024,0.341-23.208-7.85-24.573-9.215l0.028,0.073c-5.562-4.788-13.964-13.72-21.34-22.014&#10;&#9;&#9;&#9;c16.982,1.57,30.188,7.047,59.022,27.487c15.683,11.116,31.391,41.128,46.581,70.154c14.662,28.018,27.808,53.086,41.737,63.753&#10;&#9;&#9;&#9;c-2.407,1.195-4.789,2.435-7.151,3.717c-13.398-21.331-26.795-42.662-40.192-63.993c-6.648-10.584-13.295-21.167-19.942-31.751&#10;&#9;&#9;&#9;c-2.771-4.412-4.461-9.137-9.444-10.924c-3.309-1.186-7.897-1.545-11.383-1.12c-4.451,0.543-8.681,3.116-10.547,7.298&#10;&#9;&#9;&#9;c-2.058,4.612-1.112,9.96,0.101,14.863c5.787,23.388,27.612,50.453,40.077,72.371c1.948,3.426,8.231,17.486,12.3,25.285&#10;&#9;&#9;&#9;c1.355,2.596,1.134,5.714-0.617,8.063c-7.424,9.964-23.631,33.91-30.102,47.248c-1.223-0.725-2.425-1.383-3.546-1.909&#10;&#9;&#9;&#9;C594.263,821.476,601.564,809.979,608.376,796.946z" style="fill: rgb(225, 225, 225);"/>
		<path fill="#404040" d="M361.141,238.605c-7.815,4.877-10.196,15.166-5.319,22.981c4.877,7.815,15.166,10.196,22.981,5.319&#10;&#9;&#9;&#9;c1.09-0.68,2.061-1.474,2.935-2.343c-2.304,1.763-5.352,2.503-8.369,1.687c-5.147-1.391-8.191-6.692-6.8-11.839&#10;&#9;&#9;&#9;c1.392-5.147,6.692-8.191,11.839-6.8c5.147,1.391,8.191,6.692,6.8,11.839c-0.039,0.145-0.112,0.269-0.157,0.411&#10;&#9;&#9;&#9;c2.329-4.954,2.186-10.947-0.928-15.936C379.245,236.109,368.956,233.728,361.141,238.605z" style="fill: rgb(225, 225, 225);"/>
		<path fill="#404040" d="M391.42,232.405c-6.546-5.73-14.942-8.572-23.618-7.986c-8.682,0.579-16.617,4.503-22.346,11.055&#10;&#9;&#9;&#9;c-5.73,6.548-8.564,14.937-7.986,23.618c0.579,8.682,4.506,16.617,11.055,22.346c5.989,5.239,13.518,8.06,21.403,8.06&#10;&#9;&#9;&#9;c0.736,0,1.474-0.024,2.216-0.075c8.682-0.579,16.617-4.506,22.346-11.055s8.567-14.937,7.986-23.618&#10;&#9;&#9;&#9;C401.896,246.07,397.971,238.135,391.42,232.405z M388.325,272.978c-8.852,10.119-24.288,11.148-34.409,2.296&#10;&#9;&#9;&#9;c-10.119-8.852-11.148-24.288-2.296-34.409c4.287-4.901,10.231-7.842,16.729-8.274c0.555-0.037,1.107-0.056,1.658-0.056&#10;&#9;&#9;&#9;c5.903,0,11.537,2.112,16.022,6.034c4.901,4.287,7.842,10.231,8.274,16.729C394.737,261.796,392.615,268.075,388.325,272.978z" style="fill: rgb(225, 225, 225);"/>
		<path fill="#404040" d="M537.179,299.178c-1.085-5.594-2.782-11.136-5.243-16.395c-2.977-6.376-7.316-12.227-12.637-16.747&#10;&#9;&#9;&#9;c-5.351-4.486-11.529-7.744-18.055-9.106c10.137,8.661,16.771,18.753,19.973,30.073c1.7,5.619,2.649,11.476,3.266,17.437&#10;&#9;&#9;&#9;c0.26,2.985,0.503,5.998,0.571,9.037c0.083,3.002,0.089,5.916-0.128,8.872c-0.804,11.73-3.836,23.395-10.712,32.393&#10;&#9;&#9;&#9;c-3.454,4.472-7.93,8.19-13.308,10.942c-5.445,2.624-11.593,4.062-18.092,5.237c6.306,1.485,13.064,1.935,19.868,0.633&#10;&#9;&#9;&#9;l39.289,10.061c-7.899-6.076-14.221-16.577-17.563-22.901c0.872-0.977,1.686-1.993,2.469-3.037l16.46,7.281&#10;&#9;&#9;&#9;c-5.847-8.888-7.837-16.971-8.4-22.747c0.867-2.545,1.581-5.124,2.143-7.732l13.993,8.181&#10;&#9;&#9;&#9;c-8.863-6.647-11.582-20.08-12.292-24.909c-0.001-0.582,0.007-1.166-0.007-1.744l12.298,2.08&#10;&#9;&#9;&#9;C546.589,314.094,541.834,307.455,537.179,299.178z" style="fill: rgb(225, 225, 225);"/>
		<path fill="#404040" d="M1002.757,626.807c0.124,0.5,0.182,0.763,0.182,0.763S1002.882,627.292,1002.757,626.807z" style="fill: rgb(225, 225, 225);"/>
		<path fill="#404040" d="M920.188,544.243c69.154,39.607,81.11,76.914,82.569,82.564c-2.54-10.257-32.976-121.005-167.05-140.531&#10;&#9;&#9;&#9;c-115.227-16.781-140.836-13.852-146.329-12.247c5.47-2.365,26.148-10.619,48.379-10.619c0,0-53.061-9.319-64.162-8.191&#10;&#9;&#9;&#9;c-10.918,1.109-49.593,3.337-49.593,3.337l54.03,33.181C678.031,491.737,845.105,501.241,920.188,544.243z" style="fill: rgb(225, 225, 225);"/>
		<path fill="#404040" d="M563.601,437.359c14.671-4.517,28.754-10.935,41.788-19.044c11.159-6.943,22.099-15.876,26.194-28.365&#10;&#9;&#9;&#9;c-23.792,16.784-51.787,26.856-80.273,32.879c-8.045,1.701-16.14,3.092-24.268,4.26c-19.279,2.771-38.743,4.288-58.16,5.716&#10;&#9;&#9;&#9;c-1.106,0.081-2.253,0.14-3.331,0.271c27.318,7.523,54.562,15.326,81.84,22.991c3.412,0.959,6.824,1.917,10.236,2.876&#10;&#9;&#9;&#9;c3.054,0.858,7.019,1.304,9.826,2.761c-5.913-3.069-11.825-6.138-17.738-9.207c13.294-4.062,27.672-4.518,41.197-1.306&#10;&#9;&#9;&#9;c-8.193-5.448-17.603-9.055-27.339-10.477c-0.84-0.123-1.855-0.372-2.081-1.19C561.193,438.443,562.529,437.689,563.601,437.359z" style="fill: rgb(225, 225, 225);"/>
		<path fill="#404040" d="M957.889,282.413c0,0-4.55-15.927-64.162-20.022c-9.528-0.655-22.509-0.469-37.611,0.308&#10;&#9;&#9;&#9;c-0.277,0.014-0.567,0.032-0.846,0.047c-0.575,0.03-1.167,0.065-1.748,0.097c-1.281,0.07-2.547,0.136-3.856,0.215&#10;&#9;&#9;&#9;c-10.88,0.651-22.699,1.572-35.016,2.681c-27.333,2.46-57.125,5.846-84.6,9.271c-51.368,6.404-94.609,12.935-98.398,13.774&#10;&#9;&#9;&#9;c-4.605,1.019-2.766,15.927,13.616,22.753c16.382,6.826,22.753,38.224,48.691,38.224c25.938,0,34.584-14.072,34.584-18.412&#10;&#9;&#9;&#9;c0-2.489,61.66-18.964,122.154-32.138c11.81-2.572,23.554-5.008,34.806-7.198c8.661-1.686,17.038-3.231,24.881-4.557&#10;&#9;&#9;&#9;c0.861-0.146,1.705-0.284,2.553-0.425c0.664-0.11,1.326-0.219,1.981-0.326c0.173-0.028,0.343-0.055,0.515-0.083&#10;&#9;&#9;&#9;C933.93,283.625,949.116,281.936,957.889,282.413z" style="fill: rgb(225, 225, 225);"/>
	</g>
</g>
</svg>