<?xml version="1.0" standalone="no"?>
<svg version="1.1" id="downloadSvg" xmlns="http://www.w3.org/2000/svg" xmlns:xlink="http://www.w3.org/1999/xlink" x="0px" y="0px" viewBox="0 0 1200 1200" enable-background="new 0 0 1200 1200" xml:space="preserve" height="1024" width="1024">
<path d="M814.422,381.724c-0.056,0.167-0.132,0.424-0.235,0.799C814.261,382.255,814.347,381.991,814.422,381.724z M814.939,391.944&#10;&#9;c15.793-33.026,24.825-69.587,35.561-104.47c5.45-17.705,10.461-35.556,14.659-53.602c1.457-6.261,13.834-40.138-1.566-36.272&#10;&#9;c-8.326,2.09-12.23,38.776-14.089,46.827c-4.274,18.505-8.346,37.056-12.679,55.547c-4.334,18.496-8.908,36.938-14.168,55.195&#10;&#9;c-2.563,8.894-5.743,17.649-8.233,26.555C815.308,379.071,810.734,400.768,814.939,391.944z M692.204,447.766&#10;&#9;c-0.657,7.805,4.433-2.377,6.41-6.603c1.946-4.52,3.101-9.664,4.48-14.376c3.989-13.63,7.256-27.462,10.242-41.342&#10;&#9;c5.697-26.474,10.285-53.171,15.859-79.671c5.605-26.648,11.081-53.32,16.554-79.995c2.736-13.337,5.488-26.671,8.334-39.985&#10;&#9;c1.397-6.534,10.796-31.306,5.682-35.881c-13.905-12.438-18.623,40.33-19.968,46.966c-5.592,27.594-11.592,55.105-17.131,82.71&#10;&#9;C711.512,335.174,696.845,391.155,692.204,447.766z M698.82,440.718C699.475,439.3,699.635,438.87,698.82,440.718L698.82,440.718z&#10;&#9; M849.543,369.961c1.358,1.058,2.378,0.717,3.058-1.022c6.199-18.689,64.634-153.245,44.804-159.752&#10;&#9;c-10.738-3.523-23.614,63.469-25.951,72.758c-3.935,15.649-7.746,31.33-11.75,46.961&#10;&#9;C858.146,334.989,846.271,365.803,849.543,369.961z M983.716,571.72c16.952-21.825,32.047-44.921,46.643-68.362&#10;&#9;c6.128-9.84,35.809-45.302,24.255-57.597c-6.718-7.147-15.012,16.291-17.698,20.974c-7.546,13.151-15.254,26.209-23.005,39.24&#10;&#9;c-7.756,13.041-15.575,26.046-23.346,39.078c-1.612,2.704-13.067,18.388-12.699,21.395&#10;&#9;C978.114,568.485,980.083,576.392,983.716,571.72z M1049.136,504.106c7.127-8.038,39.058-39.46,29.815-52.223&#10;&#9;c-3.402-4.698-19.636,23.586-21.54,26.59c-2.72,4.294-13.963,15.674-13.669,19.599&#10;&#9;C1043.886,499.984,1044.542,509.2,1049.136,504.106z M918.295,460.35c17.197-24.69,31.89-51.022,45.549-77.802&#10;&#9;c4.721-9.257,38.159-66.607,24.665-68.967c-10.815-1.892-35.445,62.362-40.837,72.827c-7.455,14.475-14.982,28.913-22.31,43.453&#10;&#9;c-3.326,6.598-9.453,14.683-10.838,21.912C914.422,452.307,912.74,468.341,918.295,460.35z M1023.328,646.982&#10;&#9;c23.339-22.189,44.425-46.379,66.925-69.357c6.005-6.132,52.673-52.29,36.415-55.151c-7.169-1.262-26.019,24.166-29.914,28.743&#10;&#9;c-8.747,10.283-17.067,20.908-25.953,31.076c-10.323,11.814-20.797,23.492-31.02,35.396c-5.035,5.865-10.747,11.61-15.226,17.933&#10;&#9;C1025.885,633.746,1015.284,654.621,1023.328,646.982z M696.196,340.57c9.192-37.626,13.128-76.34,19.786-114.443&#10;&#9;c3.053-17.474,6.408-34.927,8.231-52.586c0.253-2.447,4.984-41.11-5.265-35.124c-7.59,4.432-8.456,41.703-9.394,49.431&#10;&#9;c-2.223,18.338-4.381,36.628-7.079,54.902c-2.692,18.23-5.118,36.496-7.768,54.732c-1.483,10.207-4.301,20.907-4.839,31.185&#10;&#9;c-2.323,3.974-2.24,7.566,0.248,10.776C692.003,341.473,694.03,341.848,696.196,340.57z M923.628,403.583&#10;&#9;c6.06-10.26,47.043-100.367,30.885-99.825c-8.146,0.273-17.387,45.569-20.137,53.768c-3.48,10.375-7.103,20.701-10.878,30.973&#10;&#9;c-0.883,2.402-5.511,10.632-4.187,12.986C919.866,402.468,921.323,407.449,923.628,403.583z M959.361,429.884&#10;&#9;c-9.307,16.21-18.456,32.511-27.567,48.832c-3.865,6.923-8.223,13.88-11.701,21.005c1.677-3.434-5.763,17.877-1.004,10.326&#10;&#9;c20.226-31.831,41.018-63.296,61.364-95.049c10.17-15.873,20.244-31.81,30.07-47.898c4.144-6.784,22.418-29.839,4.56-27.224&#10;&#9;c-8.082,1.184-22.33,33.607-27.258,41.709C978.112,397.551,968.667,413.678,959.361,429.884z M698.82,440.718&#10;&#9;c-0.065,0.141-0.132,0.286-0.206,0.444c-0.029,0.066-0.049,0.137-0.078,0.203C698.644,441.12,698.734,440.912,698.82,440.718z&#10;&#9; M568.202,149.861c0.012,0.235,0.005,0.472,0.016,0.707C568.225,150.458,568.221,150.237,568.202,149.861z M564.045,137.301&#10;&#9;c-9.314,32.354-8.479,67.126-9.995,100.492c-0.982,21.616-1.466,43.21-1.174,64.85c0.107,7.915-3.081,44.14,6.583,41.003&#10;&#9;c5.225-1.696,2.626-39.814,2.863-47.377c0.644-20.51,1.529-41.012,2.583-61.505c0.925-17.967,2.042-35.926,2.685-53.906&#10;&#9;c0.359-10.019,1.055-20.26,0.627-30.29C568.124,152.052,565.844,131.08,564.045,137.301z M136.531,708.589&#10;&#9;c-19.314-20.845-38.538-41.783-57.089-63.313c-2.771-3.203-3.346,1.549-3.748,2.552c-1.047,2.609,5.927,10.594,7.752,13.235&#10;&#9;c6.856,9.926,14.604,19.226,22.665,28.187c16.016,17.804,33.205,36.25,51.423,51.814c9.921,8.475,12.386,4.941,3.839-5.708&#10;&#9;C153.809,725.933,144.745,717.454,136.531,708.589z M78.287,529.686c-8.585,7.292,30.457,50.726,34.858,56.311&#10;&#9;c4.495,5.704,43.172,53.236,46.682,48.883c3.704-4.592-34.01-50.617-38.886-57.493C116.52,571.137,85.561,523.508,78.287,529.686z&#10;&#9; M420.222,1053.297c12.427,7.443,25.646,13.495,38.059,20.943c-21.719,0.621-45.299-11.915-63.908-21.754&#10;&#9;c-7.474-3.952-18.636-9.197-10.452,2.933c6.091,9.028,23.271,16.633,32.676,20.741c-59.661-1.859-76.271-72.821-97.871-117.555&#10;&#9;c27.138,21.673,56.538,41.015,85.511,60.132c15.154,9.999,30.493,19.71,45.987,29.172c6.309,3.852,18.299,13.805,28.255,19.85&#10;&#9;c-12.529-5.241-24.846-10.83-37.209-16.578c-8.028-3.732-36.016-22.976-42.373-20.643&#10;&#9;C387.103,1034.865,415.918,1050.72,420.222,1053.297z M888.952,987.674c-4.375,17.391-5.835,46.801-19.468,59.811&#10;&#9;c-13.686,13.061-43.113,10.573-60.457,11.49c14.278-6.049,27.959-13.559,40.642-22.482c4.287-3.017,24.206-18.486,7.105-16.916&#10;&#9;c-3.387,0.311-14.6,9.55-17.706,11.379c-6.018,3.544-12.194,6.833-18.491,9.855c-15.925,7.645-32.393,12.83-49.517,17.097&#10;&#9;c8.185-4.257,80.3-39.533,74.726-51.781c-3.522-7.739-29.709,14.439-35.313,17.826c-13.346,8.064-27.072,15.51-41.363,21.767&#10;&#9;c49.095-39.916,91.325-87.213,137.331-130.475C898.974,938.971,895.05,963.597,888.952,987.674z M808.419,933.406&#10;&#9;c56.876-62.178,111.556-126.383,170.214-186.919c56.483-58.29,116.117-114.793,169.502-175.924&#10;&#9;c-5.105,21.623-14.373,41.843-22.471,62.431c-3.391,8.616-5.704,19.184-11.352,25.66c-6.374,7.311-16.892,12.691-24.249,19.274&#10;&#9;c-31.63,28.307-60.343,60.219-91.05,89.576c-33.191,31.729-66.481,63.362-98.837,95.947c-8.937,9-93.761,96.409-89.268,99.548&#10;&#9;c4.222,2.95,65.956-62.15,72.591-68.577c24.442-23.676,48.928-47.307,73.626-70.718c24.195-22.934,48.672-45.556,73.512-67.791&#10;&#9;c24.473-21.907,51.316-40.895,75.723-62.797c-10.929,40.488-33.469,61.86-66.105,86.699c-36.441,27.735-73.782,54.347-108.67,84.063&#10;&#9;c-64.737,55.141-118.388,122.551-186.717,173.599c-33.919,25.341-73.76,49.736-116.242,56.423&#10;&#9;c-46.832,7.371-87.683-15.401-126.671-38.331c-82.515-48.531-162.61-100.734-238.809-158.77&#10;&#9;c-42.451-32.332-84.031-66.093-124.029-101.421c-29.494-26.05-78.984-65.593-78.567-109.209&#10;&#9;c13.108,7.738,25.123,24.372,36.926,34.625c12.438,10.804,24.55,21.782,36.449,33.185c28.251,27.075,57.379,53.066,86.424,79.277&#10;&#9;c27.107,24.463,54.018,49.155,81.812,72.842c3.826,3.262,43.907,35.519,44.36,34.566c3.625-7.605-23.588-28.472-29.328-33.616&#10;&#9;C259.782,855.6,206.33,803.855,152.713,748.544c-45.235-46.665-124.469-100.551-97.1-174.478&#10;&#9;c50.179,67.265,105.429,130.507,160.458,193.794c52.435,60.304,104.995,117.378,163.674,171.628&#10;&#9;c3.63,3.357,34.381,30.032,35.551,29.304c5.354-3.333-25.685-33.772-29.282-37.423c-27.922-28.338-56.879-55.01-82.304-85.736&#10;&#9;c-51.624-62.391-101.417-120.544-151.422-184.247c-27.895-35.535-60.363-71.28-83.502-110.131&#10;&#9;c-17.794-29.878-16.875-78.56,4.744-106.872c83.163,159.7,188.885,304.83,299.587,446.064c5.258,6.709,27.043,41.779,35.091,38.292&#10;&#9;c5.083-2.202-24.987-42.047-28.221-46.573c-25.951-36.318-52.946-71.874-79.17-107.993&#10;&#9;c-54.822-75.504-97.613-156.053-144.728-236.251c-12.452-21.195-25.365-42.119-37.548-63.472&#10;&#9;c-6.399-11.216-12.623-22.539-18.441-34.067c-5.797-11.481-8.886-17.043-7.721-29.097c2.122-21.938,0.171-44.651,9.485-65.204&#10;&#9;c8.554-18.874,22.636-34.055,40.163-44.88c38.815,93.554,76.174,187.764,118.69,279.729&#10;&#9;c40.356,87.293,77.189,177.473,124.342,261.393c2.738,4.873,25.102,48.785,32.281,44.133c7.701-4.99-19.931-51.262-24.087-59.858&#10;&#9;c-21.841-45.175-43.708-90.347-64.397-136.065c-40.774-90.094-74.608-183.172-112.472-274.507&#10;&#9;c-9.027-21.774-18.113-43.522-27.208-65.268c-7.064-16.891-28.809-51.822-25.081-68.29c7.645-33.771,45.98-71.637,82.877-66.651&#10;&#9;c13.781,1.863,11.065,5.867,14.803,20.416c3.088,12.019,6.24,24.022,9.43,36.014c6.38,23.986,12.93,47.927,19.446,71.877&#10;&#9;c12.965,47.651,25.188,95.489,37.936,143.197c25.595,95.787,56.404,191.107,92.12,283.616c8.278,21.443,16.475,42.911,24.712,64.37&#10;&#9;c1.634,4.258,5.804,21.029,10.218,22.734c12.622,4.874,7.311-8.916,5.527-15.275c-13.392-47.738-26.354-95.529-41.67-142.699&#10;&#9;c-34.596-106.558-65.161-213.474-94.201-321.647c-7.143-26.608-14.448-53.171-21.641-79.765&#10;&#9;c-6.686-24.716-19.726-54.392-21.033-79.933c-0.664-12.962-1.598-4.764,3.546-13.667c2.482-4.296,6.698-8.228,9.809-12.201&#10;&#9;c7.111-9.077,13.894-17.968,23.25-24.906c18.022-13.363,36.87-13.476,58.279-14.407c1.393,56.417,15.385,112.8,24.797,168.27&#10;&#9;c9.286,54.728,17.352,109.57,26.095,164.374c14.126,88.543,33.768,176.38,52.905,263.965c3.166,14.486,6.342,28.983,9.981,43.36&#10;&#9;c1.05,4.15,3.254,22.225,7.705,24.78c14.229,8.172,8.27-21.265,7.499-25.721c-4.608-26.571-10.079-52.917-15.853-79.259&#10;&#9;c-23.475-107.107-43.244-215.617-59.637-324.04c-9.507-62.88-13.211-126.394-22.11-189.386c-2.096-14.837-4.357-29.651-6.946-44.41&#10;&#9;c-1.728-9.85-2.445-8.954,3.273-16.458c4.051-5.316,12.27-9.259,18.262-12.215c27.416-13.527,52.569-3.388,80.695-7.722&#10;&#9;c3.208,118.724,14.648,237,24.508,355.298c4.699,56.373,9.156,112.767,13.848,169.141c2.357,28.324,4.814,56.639,7.704,84.914&#10;&#9;c1.022,10.007,3.087,79.936,10.884,82.517c4.502,1.49,3.606-41.444,3.602-44.603c-0.022-16.735-0.259-33.469-0.647-50.2&#10;&#9;c-0.844-36.344-2.47-72.667-4.384-108.969c-3.839-72.777-8.127-145.55-12.839-218.276c-4.642-71.627-12.238-143.167-15.869-214.834&#10;&#9;c-0.819-16.166-0.787-32.348-1.509-48.51c-0.525-11.761-2.715-12.028,5.995-17.357c7.323-4.48,21.794-3.489,30.004-3.26&#10;&#9;c33.237,0.929,65.393,11.6,98.825,12.615c-8.493,44.162-5.995,91.975-9.227,136.856c-3.523,48.937-7.443,97.851-11.572,146.74&#10;&#9;c-8.025,95.012-17.138,189.795-23.162,284.968c-1.163,18.377-2.445,36.752-3.314,55.146c-0.676,14.288-4.771,34.636-0.49,48.511&#10;&#9;c6.539,21.194,12.117-4.188,13.715-14.961c3.349-22.59,3.021-45.796,5.081-68.54c8.418-93.014,18.176-185.962,27.348-278.908&#10;&#9;c5.086-51.55,10.231-103.095,14.571-154.716c2.211-26.297,4.158-52.61,6.216-78.919c1.973-25.216,6.37-50.88,3.2-76.176&#10;&#9;c40.295-0.734,84.296-2.169,120.473,18.57c12.926,7.41,10.958,9.715,6.964,23.362c-3.462,11.832-6.863,23.682-10.209,35.548&#10;&#9;c-7.068,25.072-13.877,50.216-20.456,75.421c-24.275,93.027-45.393,186.855-64.681,281.034&#10;&#9;c-9.915,48.412-19.348,96.921-28.482,145.486c-4.304,22.888-8.539,45.789-12.727,68.698c-1.19,6.506-7.457,25.042-4.165,30.989&#10;&#9;c6.192,11.182,10.769-7.554,11.617-10.484c26.861-92.64,48.514-186.676,69.697-280.744c21.197-94.136,41.926-188.42,66.946-281.635&#10;&#9;c3.168-11.803,6.403-23.589,9.716-35.352c1.487-5.277,4.792-29.571,9.029-31.312c5.546-2.28,25.053,8.371,29.532,10.5&#10;&#9;c9.46,4.496,18.504,9.928,26.813,16.319c8.549,6.575,15.809,14.049,22.626,22.367c3.984,4.862,18.456,18.453,19.508,25.01&#10;&#9;c0.939,5.853-9.968,20.739-12.469,26.989c-4.615,11.53-8.93,23.174-13.588,34.69c-35.613,88.06-68.992,177.041-101.342,266.348&#10;&#9;c-16.423,45.337-32.438,90.821-47.917,136.489c-7.96,23.484-15.778,47.017-23.441,70.6c-3.411,10.492-6.788,20.996-10.133,31.509&#10;&#9;c-2.074,6.517-13.591,29.567-9.844,35.486c10.512,16.602,27.797-39.01,30.751-46.112c10.624-25.542,21.3-51.067,31.321-76.854&#10;&#9;c20.33-52.314,38.545-105.488,57.852-158.187c18.719-51.089,37.642-102.106,57.131-152.907&#10;&#9;c19.197-50.039,41.958-98.969,60.571-149.128c31.488,24.946,65.646,41.228,90.607,74.072c2.313,3.045,13.746,15.559,13.267,19.655&#10;&#9;c-0.7,5.996-17.15,20.9-20.652,25.716c-12.48,17.165-23.56,35.28-34.585,53.397c-46.999,77.228-95.247,153.556-139.826,232.248&#10;&#9;c-22.769,40.191-44.783,80.82-65.46,122.129c-10.327,20.631-20.321,41.428-29.908,62.413c-3.101,6.789-25.007,43.589-6.29,38.154&#10;&#9;c4.445-1.291,15.964-28.133,18.71-32.948c5.562-9.751,11.14-19.494,16.733-29.228c12.583-21.902,25.237-43.763,37.944-65.593&#10;&#9;c24.003-41.238,48.193-82.366,72.44-123.461c26.255-44.501,52.765-88.842,80.171-132.647c26.87-42.949,58.02-83.162,84.101-126.566&#10;&#9;c14.756,28.203,26.926,57.7,42.353,85.561c-15.118,0.817-32.622,35.864-41.186,47.405c-13.77,18.558-27.402,37.218-40.981,55.916&#10;&#9;c-27.96,38.502-55.681,77.178-83.857,115.522c-27.802,37.833-55.665,75.62-82.874,113.884&#10;&#9;c-6.815,9.585-78.918,107.823-71.661,110.242c6.451,2.149,73.512-94.047,80.829-103.602c27.954-36.505,55.883-73.029,83.966-109.436&#10;&#9;c54.773-71.008,112.007-140.078,166.643-211.191c5.853,9.919,11.694,20.008,15.956,30.735c4.844,12.194,9.302,22.217,1.8,32.393&#10;&#9;c-13.732,18.625-32,35.387-47.019,53.161c-32.579,38.554-68.026,74.544-101.563,112.254&#10;&#9;c-34.727,39.047-68.258,79.205-102.278,118.869c-18.126,21.133-36.236,42.281-54.283,63.483&#10;&#9;c-8.121,9.541-16.229,19.092-24.321,28.656c-2.243,2.652-13.583,12.267-13.472,15.954&#10;&#9;C803.116,929.401,803.816,938.417,808.419,933.406z M599.785,137.406c-2.704-1.075-6.978-1.706-7.676,2.363&#10;&#9;c-9.51,54.113-13.368,109.284-15.112,164.15c-0.459,14.44-0.633,161.804-1.341,161.916c7.662-1.203,5.956-76.801,6.473-86.255&#10;&#9;c1.735-31.642,4.609-63.241,6.635-94.869c1.91-29.826,4.36-59.618,7.589-89.33c1.61-14.824,4.218-29.663,5.444-44.512&#10;&#9;C602.059,147.683,605.01,139.484,599.785,137.406z M622.549,258.3c0.881-15.16,3.275-30.161,4.692-45.268&#10;&#9;c0.339-3.622,5.039-33.744-6.303-26.9c-8.174,4.932-7.749,30.536-8.493,39.389c-1.289,15.328-1.175,30.738-0.872,46.103&#10;&#9;c0.61,30.972,1.555,61.856-0.223,92.817c-0.83,14.444-2.15,28.856-4.159,43.185c-0.424,3.026-7.412,38.397-3.982,37.809&#10;&#9;c5.606-0.961,9.735-35.148,10.653-40.593c2.639-15.646,4.163-31.458,5.174-47.285C621.145,324.509,620.7,291.359,622.549,258.3z&#10;&#9; M252.109,310.747c-12.267-17.681-10.141,2.498-7.352,13.403c2.377,9.304,27.052,82.448,36.234,81.492&#10;&#9;c4.964-0.517-11.969-48.987-14.186-55.199C262.287,337.797,259.859,321.919,252.109,310.747z M369.13,423.535&#10;&#9;c-5.798-26.672-11.125-53.459-16.794-80.162c-5.315-25.138-11.367-50.088-17.002-75.15c-2.399-10.667-5.642-54.213-18.106-58.276&#10;&#9;c-15.591-5.081,1.559,42.631,3.513,49.393c6.71,23.23,11.943,46.966,17.513,70.492c5.695,24.055,11.052,48.177,16.022,72.392&#10;&#9;c2.624,12.786,4.789,25.647,7.319,38.449c1.907,9.645,2.639,25.573,8.695,33.424c8.886,11.522,6.179-9.524,5.49-16.285&#10;&#9;C374.597,446.206,371.604,434.91,369.13,423.535z M343.986,192.484c-11.407,10.107,7.254,60.101,9.822,71.548&#10;&#9;c3.472,15.475,37.346,176.527,42.512,175.641c11.466-1.967-32.817-174.351-35.787-191.336&#10;&#9;C359.397,241.834,353.654,183.919,343.986,192.484z M151.076,390.232c-2.147-4.271-15.434-38.081-24.238-26.059&#10;&#9;c-4.664,6.367,14.515,40.011,17.387,45.969c15.811,32.809,33.766,64.516,49.512,97.375c4.251,8.87,43.235,98.914,48.42,97.372&#10;&#9;c4.744-1.411-44.121-105.58-49.519-117.664C178.289,455.113,166.893,421.691,151.076,390.232z M470.345,242.584&#10;&#9;c-2.493-19.46-4.982-38.92-7.419-58.387c-1.031-8.236-1.601-16.863-3.105-25.025c0.183,0.999-6.981-18.951-5.988-7.854&#10;&#9;c3.092,35.362,40.162,420.964,50.466,420.105c6.805-0.567-17.308-196.979-19.671-216.196&#10;&#9;C480.009,317.661,475.157,280.125,470.345,242.584z M193.444,545.787c-12.508-20.735-26.185-41.403-42.64-59.232&#10;&#9;c-6.296-6.801-0.323,13.248,0.665,15.202c4.786,9.462,10.91,18.186,17.094,26.767c5.594,7.761,11.518,15.289,16.883,23.214&#10;&#9;c4.727,6.983,9.604,21.93,15.312,27.426c6.15,5.922,5.65,4.023,5.126-5.177C205.334,564.337,198.226,553.714,193.444,545.787z&#10;&#9; M428.03,149.114c-7.822,1.508,17.85,159.825,19.916,177.947c1.513,13.262,15.357,165.093,24.332,163.76&#10;&#9;c7.658-1.137-15.193-154.09-16.831-168.076C453.408,305.224,436.482,147.484,428.03,149.114z M215.199,302.264&#10;&#9;c-2.259-5.824-9.024-27.102-17.166-18.735c-6.163,6.333,7.747,38.443,10.071,45.517c9.727,29.605,18.606,59.5,30.441,88.365&#10;&#9;c3.466,8.456,34.508,80.213,42.135,77.371c3.259-1.215-35.165-98.893-38.951-109.42C231.945,358.076,225.643,329.19,215.199,302.264&#10;&#9;z" style="fill: rgb(225, 225, 225);"/>
</svg>