<?xml version="1.0" standalone="no"?>
<svg version="1.1" id="downloadSvg" xmlns="http://www.w3.org/2000/svg" xmlns:xlink="http://www.w3.org/1999/xlink" x="0px" y="0px" viewBox="0 0 1200 1200" enable-background="new 0 0 1200 1200" xml:space="preserve" height="1024" width="1024">
<style type="text/css">
	.st0{fill:#060606;}
	.st1{fill:#AFAFAF;}
	.st2{fill:#FDFDFD;}
	.st3{fill:#DDDDDD;}
	.st4{fill:#FBFBFB;}
</style>
<g>
	<path class="st0" d="M718.71,409.33c2.09-2.9,3.59-4.74,4.84-6.73c9.59-15.25,20.44-29.21,37.39-37.03&#10;&#9;&#9;c0.79-0.37,1.71-1.05,2.01-1.81c2.36-5.96,6.59-10.63,10.82-15.18c10.33-11.13,15.39-24.47,17.93-39.17&#10;&#9;&#9;c1.88-10.87,1.5-21.94,3.89-32.78c5.19-23.54,17.49-42.84,34.31-59.58c1.95-1.94,4.41-3.43,6.81-4.82c2.92-1.69,4.84-0.7,5.44,2.6&#10;&#9;&#9;c3.41,18.83,10.15,36.48,18.82,53.44c11.98,23.45,14.41,48.15,9.46,73.72c-3,15.51-13.1,26.15-25.45,34.88&#10;&#9;&#9;c-8.78,6.21-17.86,11.56-28.59,14.43c-12.61,3.38-21.36,11.58-26.38,24.37c-6.95,17.72-9.5,35.33-2.87,53.48&#10;&#9;&#9;c3.87,10.59,10.24,19.91,17.5,28.4c24.41,28.54,40.72,61.26,51.36,97.06c5.28,17.77,12.02,35.15,14.6,53.62&#10;&#9;&#9;c2.32,16.58,5.37,33.1,5.9,49.89c0.07,2.31,0.91,2.55,2.78,2.5c3.86-0.11,7.75,0.23,11.58-0.1c4.64-0.41,8.59,1.02,12.41,3.36&#10;&#9;&#9;c21.99,13.42,42.44,28.81,60.86,46.87c13.87,13.6,28.16,26.77,41.85,40.54c9.84,9.9,19.05,20.42,28.42,30.77&#10;&#9;&#9;c8.03,8.86,15.88,17.89,23.83,26.82c16.54,18.57,33.24,37.08,44.93,59.25c7.05,13.37,13.41,27.14,19.56,40.96&#10;&#9;&#9;c3.39,7.6,5.87,15.63,7.42,23.87c0.63,3.35,0.1,6.68-0.37,9.94c-0.67,4.67-6.21,6.98-11.51,5c-4.56-1.7-8.29-4.78-11.96-7.84&#10;&#9;&#9;c-37.72-31.46-76.55-61.51-117.28-88.95c-16-10.77-32.86-20.33-50.57-28.37c-28.56-12.96-57.88-23.95-87.29-34.72&#10;&#9;&#9;c-3.97-1.46-8.23-2.13-12.19-3.61c-4.32-1.62-6.82,0.05-9.76,3.21c-29.7,31.85-62.18,60.53-99.02,83.92&#10;&#9;&#9;c-27.23,17.29-57.06,28.39-88.31,36.21c-21.19,5.3-42.5,9.69-64.19,12.12c-18.69,2.1-37.46,2.66-56.24,1.76&#10;&#9;&#9;c-12.89-0.62-25.83-0.41-38.68-2.02c-50.9-6.41-99.54-19.61-142.97-48.12c-14.12-9.27-28.3-18.59-41.06-29.65&#10;&#9;&#9;c-6.99-6.06-14.02-11.79-21.71-16.97c-14.46-9.73-23.75-23.71-29.98-39.83c-0.4-1.05,0.18-3.03-2.54-2.1&#10;&#9;&#9;c-14.42,4.95-29,9.46-43.39,14.5c-20.56,7.21-41.75,12.31-62.38,19.2c-21.47,7.18-42.01,16.45-60.76,29.34&#10;&#9;&#9;c-0.55,0.37-1.13,0.69-1.67,1.07c-1.85,1.28-3.81,2.25-5.72,0.3c-1.94-1.98-0.78-3.98,0.46-5.74c9.12-13.03,19.5-24.85,31.9-34.99&#10;&#9;&#9;c16.05-13.12,34.41-22.67,51.42-34.29c23.28-15.9,46.58-31.77,69.78-47.79c6.02-4.16,11.57-8.96,16.87-14.04&#10;&#9;&#9;c2.67-2.56,5.42-5.06,9.19-6.04c2.32-0.6,1.4-2.07,0.88-3.6c-3.1-9.23-5.9-18.79-4.07-28.42c1.31-6.91-0.08-12.3-3.32-18.08&#10;&#9;&#9;c-1.34-2.38-2.36-4.42-5.02-5.33c-3.16-1.08-4.78-3.76-6.9-6.16c-12.34-14.02-18.49-30.79-22.46-48.6&#10;&#9;&#9;c-0.27-1.23-0.6-2.26-1.45-3.16c-4.9-5.17-9.58-10.4-15.99-14.07c-7.12-4.09-14.74-7.99-18.36-16.28&#10;&#9;&#9;c-3.56-8.14-7.47-16.15-6.15-25.45c0.18-1.26-0.84-1.87-1.47-2.68c-11.69-14.95-21.48-31.02-27.91-48.93&#10;&#9;&#9;c-5.11-14.24-0.6-27.03,7.8-38.47c3.06-4.17,8.55-6.22,13.26-8.66c32.6-16.85,66.24-31.28,101.25-42.36&#10;&#9;&#9;c17.64-5.58,34.3-13.43,51.24-20.68c16.37-7.01,33.16-13.28,50.78-15.99c22.32-3.43,44.65-7.34,67.33-7.64&#10;&#9;&#9;c13.57-0.18,27.13,0.61,40.67,1.84c5.83,0.53,11.73,0.25,17.54,0.88c24.75,2.69,48.96,7.9,72.61,15.71&#10;&#9;&#9;c9.58,3.16,18.98,6.75,28.36,10.41c1.31,0.51,2.39,1.5,3.27-0.94c7.34-20.57,17.05-40.1,28.12-58.83&#10;&#9;&#9;c24.27-41.04,51.95-79.55,87.9-111.41c8.35-7.4,16.74-14.84,26.5-20.47c3.12-1.8,6.32-3.42,10.01-3.69&#10;&#9;&#9;c5.93-0.43,9.61,2.47,10.48,8.39c1.21,8.18-0.47,16.11-2.22,24.04c-4.25,19.26-11.92,37.47-17.28,56.38&#10;&#9;&#9;c-5.54,19.54-11.5,39.02-15.06,59.04C718.39,383.37,717.58,395.69,718.71,409.33z M349.87,798.11c0.09,0.39,0.17,0.78,0.26,1.18&#10;&#9;&#9;c3.17,6.66,7.04,13.01,9.01,20.25c-8.02-12.85-15.87-25.76-21.41-39.97c-1.67,11.67-4.07,23.03-6.07,34.46&#10;&#9;&#9;c-1.8,10.29-0.73,12.55,8.71,17.66c3.63,1.96,7.35,4.15,11.58,3c5.2-1.41,10.31-3.25,15.15-5.71c2.51-1.28,3.18-2.68,1.45-5.48&#10;&#9;&#9;c-5.35-8.66-11.9-16.45-17.7-24.77c-0.17-0.36-0.34-0.72-0.5-1.08c-0.43-0.25-0.34-1.44-1.08-0.86&#10;&#9;&#9;C348.77,797.17,349.17,797.87,349.87,798.11z M1098.73,913.08l0.08,0.09c-0.3-0.56-0.59-1.12-0.89-1.67l0.08,0.04&#10;&#9;&#9;c-2.49-5.54-5.61-10.68-9.58-15.29l0.13,0c-0.59-0.84-1.19-1.68-1.78-2.51c-6.16-10.66-14.45-19.66-22.61-28.71&#10;&#9;&#9;c-9.88-10.96-19.41-22.23-29.45-33.06c-14.47-15.6-28.28-31.81-43.65-46.56c-0.67-0.64-1.18-1.88-2.84-1.04&#10;&#9;&#9;c3.39,10.72,8.04,21.16,9.11,33.26c-2-1.31-2.08-2.7-2.57-3.85c-4.28-10.13-8.41-20.32-12.88-30.37&#10;&#9;&#9;c-1.82-4.09-3.84-8.14-7.42-11.21c-4.75-4.07-9.59-8.09-13.88-12.62c-16.21-17.12-34.77-31.33-54.12-44.63&#10;&#9;&#9;c-6.5-4.47-13.49-7.31-21.45-7.51c-6.3-0.16-12.6-0.16-18.89-0.54c-9.78-0.6-19.65-0.81-28.9-4.69c-0.88-0.37-2.16-0.43-2.05-1.9&#10;&#9;&#9;c0.25-0.17,0.47-0.44,0.67-0.42c5.56,0.38,11.13,0.65,16.67,1.24c8.79,0.93,9.81,0.42,9.63-8.36c-0.38-18.99-0.65-37.98-5.61-56.58&#10;&#9;&#9;c-9.12-34.17-15.8-69.13-34.35-100.08c-6.75-11.26-13.29-22.57-21.58-32.88c-7.11-8.84-15.34-16.99-18.99-28.39&#10;&#9;&#9;c-2.66-8.3-5.3-16.54-5.12-25.27c0.48-23.06,8.34-43.88,20.04-63.45c0.34-0.57,0.64-1.18,1.75-0.77c-0.11,3.84-2.84,7.08-3.27,11.6&#10;&#9;&#9;c6.03-5.25,11.99-9.94,19.18-11.39c10.48-2.11,18.89-7.81,27.17-13.76c10.45-7.51,18.97-16.75,22.21-29.74&#10;&#9;&#9;c3.31-13.25,2.94-26.67,1.27-40.07c-0.9-7.25-1.73-14.79-5.46-21.09c-3.52-5.97-6.58-12.13-9.48-18.35&#10;&#9;&#9;c-6.13-13.13-12.07-26.38-12.67-41.25c-0.02-0.62-0.2-1.55-0.61-1.79c-1.06-0.6-1.62,0.55-2.23,1.11&#10;&#9;&#9;c-11.17,10.25-18.61,23.15-25.48,36.4c-2.38,4.59-4.45,9.4-5.2,14.6c-1.86,12.88-3.94,25.73-5.39,38.65&#10;&#9;&#9;c-1.68,14.99-6.49,28.35-17.54,39.1c-3.57,3.47-6.72,7.37-10.62,11.7c1.42-0.23,1.95-0.21,2.4-0.4&#10;&#9;&#9;c13.19-5.42,26.9-9.01,40.82-11.92c3.74-0.78,7.35-1.71,9.9-5.21c4.32-5.94,7.38-12.54,10.77-18.98c0.89-1.68,1.23-3.7,3.51-5.48&#10;&#9;&#9;c-0.93,8.31-4.65,14.82-7.81,21.53c-0.06,0.36-0.12,0.71-0.18,1.07c0.33-0.06,0.67-0.11,1-0.17c6.06-3.29,10.76-8.39,16.41-12.62&#10;&#9;&#9;c0.17,0.76,0.4,1.18,0.3,1.48c-0.25,0.74-0.59,1.48-1.02,2.13c-6.26,9.32-14.23,16.86-25.28,19.55&#10;&#9;&#9;c-12.68,3.09-25.06,6.88-36.99,12.11c-11.29,4.95-22.87,9.21-32.55,17.4c-13.91,11.79-23.09,26.56-29.42,43.38&#10;&#9;&#9;c-1.04,2.75-1.84,5.53-1.54,8.53c1.4,13.94,1.66,27.91,0.34,41.86c-0.23,2.45,0.78,3.21,2.67,3.9c5.87,2.14,11.51,4.81,17.07,7.64&#10;&#9;&#9;c22.91,11.68,42.25,27.92,59.47,46.8c3.38,3.71,6.16,7.97,9.11,12.06c0.43,0.6,1.29,1.68,0.31,2.47c-1.15,0.92-1.55-0.5-2.12-1.03&#10;&#9;&#9;c-4.1-3.8-8.11-7.7-12.22-11.49c-16.58-15.3-34.59-28.66-54.22-39.81c-15.54-8.82-31.99-15.78-47.96-23.7&#10;&#9;&#9;c-22.24-11.04-44.49-22.03-67.34-31.78c-30.77-13.12-61.48-26.37-94.15-34.2c-10.71-2.57-21.44-5.3-32.45-6.1&#10;&#9;&#9;c-15.53-1.13-31.07-2.02-46.62-2.74c-12.08-0.56-24.17-1.16-36.27,0.29c-28.16,3.38-55.73,9.38-82.86,17.6&#10;&#9;&#9;c-22.15,6.71-43.34,16.08-65.32,23.23c-35.32,11.5-69.63,25.4-102.76,42.22c-5.47,2.78-10.75,5.63-14.63,10.69&#10;&#9;&#9;c-4.88,6.36-7.51,13.43-8.41,21.14c13.26-2.82,26.23-3.45,39.32-1.35c0.26,2.46-1.66,1.63-2.7,1.59&#10;&#9;&#9;c-10.49-0.39-20.94-0.23-31.41,0.77c-5.67,0.54-6.07,0.56-4.45,6.09c2.32,7.96,6.55,15.06,10.37,22.33&#10;&#9;&#9;c8.44,16.07,17.86,31.44,31.3,43.99c3.29,3.08,6.23,6.56,9.11,10.05c2.26,2.73,4.61,5.52,5.44,9.43c-2.47-0.49-2.52-3.42-4.86-3.33&#10;&#9;&#9;c-9.36,0.35-15.87-5.51-16.12-14.82c-0.07-2.63-1.09-4.08-3.53-5.18c0.22,3.83,1.22,7.23,2.21,10.62&#10;&#9;&#9;c1.47,5.03,3.89,9.07,8.68,12.11c11.14,7.07,20.9,15.91,29.93,25.55c3.82,4.08,7.81,8.13,12.51,11.11&#10;&#9;&#9;c11.88,7.52,24.9,12.83,38.09,17.43c22.64,7.9,46.12,11.46,70.05,13.2c24.78,1.81,49.15-0.56,73.21-5.58&#10;&#9;&#9;c28.35-5.91,56.19-13.79,82.04-27.41c1.13-0.6,2.4-1.6,3.92-0.39c-1.25,1.79-3.19,2.43-4.88,3.32&#10;&#9;&#9;c-14.91,7.86-30.37,14.29-46.5,19.31c-27.16,8.46-54.92,13.39-83.25,15.13c-15.98,0.98-31.98-0.51-47.77-2.57&#10;&#9;&#9;c-24.61-3.21-48.54-9.33-70.84-20.73c-0.84-0.43-1.69-1.26-3.17-0.17c8.99,6.48,18.87,10.68,28.82,14.69&#10;&#9;&#9;c9.92,4,20.39,6.4,30.37,10.15c-28.87-4.03-54.84-14.88-77.58-33.94c-0.09,0.94-0.2,1.31-0.14,1.64&#10;&#9;&#9;c2.42,13.45,8.75,24.96,17.61,35.18c0.51,0.59,1.12,1.18,1.81,1.52c10.38,5.02,20.55,10.55,31.66,13.94&#10;&#9;&#9;c19.94,6.08,40.07,11.27,60.86,13.68c9.89,1.15,19.67,3.21,29.68,3.39c29.81,0.54,59.24-2.41,88.18-9.63&#10;&#9;&#9;c19.08-4.75,38.08-9.91,55.89-18.5c13.77-6.64,26.1-15.73,39.05-23.77c11.26-6.99,23.13-13,33.68-21.1&#10;&#9;&#9;c0.98-0.76,2.66-1.16,2.41-3.41c-0.86,0.43-1.43,0.68-1.97,0.99c-10.6,6.11-21.18,12.26-31.82,18.29&#10;&#9;&#9;c-1.34,0.76-3.48,2.93-4.26,1.43c-1.02-1.98,2.07-2.4,3.42-3.21c8.22-4.95,16.46-9.86,24.87-14.47&#10;&#9;&#9;c15.35-8.43,28.35-19.99,42.33-30.91c-10.1-1.23-19.7,0.66-30,0.48c0.93-0.87,1.19-1.32,1.49-1.35c10.1-1.03,20.02-3.06,30.4-2.08&#10;&#9;&#9;c9.77,0.92,15.29,6.11,18.57,14.32c9.14,22.85,11.15,47.08,12.96,71.28c0.73,9.86-0.65,19.79,0.7,29.65&#10;&#9;&#9;c0.15,1.13,0.47,2.47-1.31,3.1c-2.06-15.39-1.35-30.97-4.06-46.29c-1.72-9.73-2.37-19.66-4.55-29.33&#10;&#9;&#9;c-1.64-7.25-3.51-14.45-5.27-21.67c-0.62-2.37-1.33-4.71-3.15-6.65c0.6,2.21,1.2,4.43,1.8,6.64c0.04,0.66,0.01,1.34,0.13,1.98&#10;&#9;&#9;c2.52,14.18,3.79,28.37,3.4,42.86c-0.27,10.05-3.89,20.12-0.46,30.23c0.2,0.59,0.08,1.35-0.07,1.98&#10;&#9;&#9;c-1.91,7.93-2.99,15.98-6.13,23.71c-13.4,33.02-29.06,64.83-48.32,94.84c-4.87,7.58-9.76,15.17-16.06,21.7&#10;&#9;&#9;c-0.84,0.87-1.73,1.96-2.98,0.95c-1.61-1.3,0.24-2.07,0.81-2.74c4.65-5.42,8.53-11.29,11.97-17.59&#10;&#9;&#9;c8.22-15.07,16.83-29.92,24.24-45.41c12.93-27.02,25.93-53.93,28.71-84.51c1.86-20.39,2.2-40.64-0.6-60.92&#10;&#9;&#9;c-0.54-3.89-0.58-7.92-2.32-11.56c-0.37,1.64-0.36,3.25-0.58,4.82c-1.51,10.72-3.05,21.43-4.62,32.14&#10;&#9;&#9;c-1.58,10.79-3.89,21.44-6.56,32c-2.7,10.67-6.46,21-10.04,31.41c-7.23,21.02-14.92,41.64-30.29,58.47&#10;&#9;&#9;c-7.63,8.36-14.76,17.29-24.66,23.03c-17.17,9.96-34.84,19.01-53.3,26.36c-16.18,6.44-33.11,9.75-50.28,12.43&#10;&#9;&#9;c-17.22,2.69-34.49,4.51-51.88,5.13c-16.98,0.6-33.57-3.15-50.16-5.87c-25.65-4.21-49.13-13.58-67.84-32.65&#10;&#9;&#9;c-5.31-5.4-11.4-10.02-16.46-15.69c-0.58-0.65-2.01-1.18-0.75-2.72c2.49,1.95,4.95,3.88,7.41,5.82c0.15,0.16,0.3,0.33,0.45,0.49&#10;&#9;&#9;c0.02-0.18,0.03-0.35,0.05-0.53c-0.2,0.06-0.39,0.12-0.59,0.18c0.91-3.04-0.2-6.1-0.28-9.1c-0.06-2.16-1.78-6.07-4.42-6.01&#10;&#9;&#9;c-2.75,0.06-5.56,2.22-8.12,3.82c-1.73,1.08-0.7,3.21-0.85,4.83c-2.05,22.85,4.09,43.06,19.72,60.11c1.79,1.95,3.61,4.03,5.82,5.41&#10;&#9;&#9;c15.01,9.41,30.64,17.51,47.82,22.31c20.23,5.66,40.48,10.79,61.63,12.27c21.59,1.5,43.05,1.61,64.39-1.93&#10;&#9;&#9;c15.24-2.53,30.31-6.03,45.51-8.74c18.04-3.21,35.46-7.88,50.87-18.34c1.7-1.16,3.28-2.84,5.75-2.64&#10;&#9;&#9;c-9.42,9.28-20.79,15.29-33.11,19.75c-0.45,0.18-0.9,0.36-1.35,0.54c-0.58,0.14-1.17,0.28-1.75,0.42c-0.75,0.14-1.5,0.29-2.25,0.43&#10;&#9;&#9;c-0.56,0.16-1.12,0.32-1.68,0.48c-0.77,0.1-1.54,0.19-2.32,0.29c-0.6,0.09-1.21,0.19-1.81,0.28c-0.73,0.17-1.46,0.34-2.19,0.51&#10;&#9;&#9;c-0.63-0.08-1.26-0.13-1.74,0.42c-3.42,0.66-6.83,1.33-10.25,1.99c-0.64-0.09-1.23-0.05-1.67,0.52c-1.31,0.19-2.63,0.3-3.92,0.58&#10;&#9;&#9;c-26.27,5.85-52.43,12.13-79.63,12.13c-14.95,0-29.85-0.69-44.57-2.82c-16.04-2.33-31.7-6.72-47.15-11.71&#10;&#9;&#9;c-0.91-0.29-1.85-1.09-3.5-0.04c17.16,8.13,34.13,15.69,52.02,20.94c18.21,5.35,36.77,7.8,55.83,7.1&#10;&#9;&#9;c18.71-0.69,36.06-7.49,55.02-11.99c-2.34,2.71-2.38,2.6-7.44,4.66c-18.58,7.58-37.7,12.34-57.95,11.68&#10;&#9;&#9;c-13.86-0.45-27.43-2.54-40.89-5.85c-12.25-3.02-23.79-7.91-35.56-12.22c-0.43-0.23-0.87-0.6-1.26,0c-0.02,0.03,0.47,0.4,0.73,0.62&#10;&#9;&#9;c18.43,13.76,38.85,23.9,60.04,32.51c17.23,7,35.62,9.66,53.65,13.62c11.68,2.57,23.27,6.05,35.36,5.56&#10;&#9;&#9;c12.39-0.5,24.76-0.05,37.13,0.11c35.76,0.45,71.26-1.56,106.42-8.71c20.29-4.12,39.45-11.53,58.72-18.66&#10;&#9;&#9;c21.86-8.09,42.91-17.86,62.18-31.22c20.71-14.36,38.55-31.81,55.35-50.43c6.26-6.94,12.46-13.95,19.06-21.34&#10;&#9;&#9;c-12.86-3-24.66-7.79-36.9-11.11c-0.07-4.69,3.47-2.36,4.99-2.07c6.48,1.23,12.87,2.97,19.28,4.55&#10;&#9;&#9;c14.53,3.59,29.42,5.97,43.52,11.01c26.22,9.38,52.41,18.82,77.98,29.99c21.89,9.56,42.69,20.9,62.46,34.12&#10;&#9;&#9;c37.16,24.86,72.8,51.79,107.08,80.49c6.31,5.28,12.39,10.92,19.5,15.16c3.97,2.36,5.48,1.42,5.5-3.01&#10;&#9;&#9;c0.85-3.48-0.02-6.78-0.92-10.13c-4.14-15.42-11.96-29.23-18.89-43.44c-0.19-0.74-0.19-1.58-0.97-2.04l0.13-0.15l-0.12-0.16&#10;&#9;&#9;c-1.02-2.86-2.29-5.58-3.99-8.1l0.08,0.09C1099.32,914.2,1099.02,913.64,1098.73,913.08z M235.26,649.79&#10;&#9;&#9;c-0.39-0.26-0.78-0.5-1.2-0.04c0.25,0.17,0.49,0.33,0.74,0.5c0.13,0.77,0.76,0.9,1.37,1.06c0.8,0.72,1.46,1.72,2.88,1.44&#10;&#9;&#9;c0.1-1.74-1.51-1.51-2.25-2.18C236.28,650.31,235.77,650.05,235.26,649.79z M584.45,634.53c-0.44,0.4-0.88,0.81-1.32,1.21&#10;&#9;&#9;c-0.79,0.09-1.54,0.25-1.72,1.18c-0.04,0.19,0.1,0.57,0.23,0.61c1.08,0.3,1.52-0.63,2.16-1.18c0.41-0.37,0.83-0.74,1.24-1.11&#10;&#9;&#9;c0.4-0.15,0.66-0.47,0.37-0.82C585.28,634.3,584.77,634.49,584.45,634.53z M120.79,855.91c2.21-0.59,4.33-1.41,6.24-2.69&#10;&#9;&#9;c29.74-13.24,60.78-22.37,92.44-29.61c7.47-1.71,15.02-3.17,22.23-5.88c2.31-0.87,3.63-1.89,2.9-4.89&#10;&#9;&#9;c-0.84-3.45-0.85-7.1-1.22-10.66c-0.02-4.89,0.02-4.82-4.14-2.56c-6.45,3.5-13.02,6.73-20.45,7.97c0.05-2.21,1.84-2.39,3-3.02&#10;&#9;&#9;c5.48-2.94,10.99-5.83,16.58-8.57c3.2-1.57,5.96-3.19,6.19-7.33c0.08-1.52,1.24-2.83,2.37-4.04c2.45-2.63,5.54-3.96,8.81-5.15&#10;&#9;&#9;c0.65-0.24,2.64,0,1.8-2.19c-3.13-8.13-4.5-16.62-4.3-25.56c-2.81,1.2-5.1,2.51-7.09,4.22c-13.97,11.95-29.15,22.27-44.09,32.93&#10;&#9;&#9;c-23.81,17-47.53,34.11-71.89,50.31c-11.85,7.88-23.89,15.48-34.1,25.53c-0.32,0.4-1.35,0.6-0.76,1.25&#10;&#9;&#9;c0.46,0.51,1.03-0.09,1.33-0.64c1.05-0.54,2.12-1.04,3.14-1.64c15.84-9.35,31.07-19.79,48.02-27.17&#10;&#9;&#9;c15.27-6.65,31.23-11.48,46.69-17.65c4.21-1.68,8.43-3.34,12.95-5.13c-0.55,2.64-3.15,2.5-3.93,4.23&#10;&#9;&#9;c-11.99,5.76-24.36,10.59-36.81,15.23c-13.75,5.12-27.24,10.74-39.76,18.47c-2.34,1-4.63,2.08-6.47,3.91&#10;&#9;&#9;c-0.41,0.19-0.83,0.38-1.24,0.56c0.09,0.09,0.21,0.27,0.27,0.25C119.92,856.24,120.35,856.07,120.79,855.91z M608.08,674.16&#10;&#9;&#9;c-0.18-0.26-0.36-0.51-0.54-0.77c-0.54,0.41-0.22,0.82,0.01,1.23c1.04,3.1,2.08,6.2,3.17,9.45&#10;&#9;&#9;C613.66,679.53,610.69,676.9,608.08,674.16z M439.72,712.91c-0.81-0.78-1.78-0.46-2.64-0.27c-6.62,1.48-13.27,2.86-20.78,3.4&#10;&#9;&#9;c5.05,3.01,9.42,5.61,14.06,8.37c0.57-6.18,4.25-9.45,9.24-11.62c0.59-0.21,1.18-0.43,2.16-0.78&#10;&#9;&#9;C440.69,712.15,439.49,711.07,439.72,712.91z M267.27,775.28c-0.36-0.32-0.71-0.65-1.07-0.97c-0.49,0.73-0.21,1.17,0.53,1.45&#10;&#9;&#9;c0.12,1.53,1.33,2.53,1.87,3.85c0.39,0.96,2.19,2.02,0.82,2.93c-1.3,0.86-1.84-1-2.46-1.87c-4.64-6.56-7.58-13.95-10.35-22.03&#10;&#9;&#9;c0.23,14.46,8.6,31.62,16.23,33.17C272.46,785.85,273.38,779.34,267.27,775.28z M488.21,699.05c-8.87,1.71-17.13,5.48-25.97,7.7&#10;&#9;&#9;c5.97,0.45,10.08,4.41,14.71,7.3c1.78,1.11,2.17,1.24,2.37-0.04c0.95-6.2,5.14-10.45,8.8-15.03c0.3-0.16,0.61-0.31,0.91-0.47&#10;&#9;&#9;c-0.12-0.04-0.26-0.12-0.37-0.1C488.31,698.47,487.77,698.43,488.21,699.05z M533.37,736.12c-0.36-0.32-0.73-0.63-1.09-0.95&#10;&#9;&#9;c-0.52,0.74-0.16,1.16,0.52,1.48c0.23,0.59,0.42,1.2,0.69,1.78c2.58,5.51,5.47,10.86,6.86,16.88c0.41,1.78,0.56,2.31-1.38,1.63&#10;&#9;&#9;c-1.85-4.47-3.71-8.95-5.56-13.42c0.25,5.19-0.6,10.81,5.02,13.88c2.89,5.24,7.47,9.09,11.24,14.9c0-6.41-0.09-11.58,0.03-16.75&#10;&#9;&#9;c0.06-2.7-0.77-4.8-2.77-6.63C542.35,744.72,537.88,740.4,533.37,736.12z M448.43,763.16c-0.22,0.11-0.45,0.22-0.67,0.33&#10;&#9;&#9;c0.09,0.1,0.18,0.19,0.27,0.29c0.13-0.21,0.26-0.42,0.4-0.63c-1.32,4.78,0.02,9.53,0.16,14.29c0.13,4.14,0.94,7.84,3.99,11.1&#10;&#9;&#9;c4.98,5.31,8.9,11.48,12.98,17.5c0.84,1.24,1.01,3.9,3.38,3.07c2.16-0.76,4.4-1.83,4.85-4.67c0.48-2.99,1.03-5.98,1.79-8.9&#10;&#9;&#9;c0.3-1.13,0.39-1.86-0.4-2.84c-3.76-4.59-7.41-9.26-11.26-14.1c-1.17,1.72-1.99,4.79-3.95,1.45&#10;&#9;&#9;C456.52,774.14,452.48,768.65,448.43,763.16z M570.34,700.7c0.21,0.46-0.25,1.41,0.82,1.17c0.07-0.02-0.09-1.08-0.15-1.66&#10;&#9;&#9;c-2.68-7.78-7.58-14.52-10.72-22.1c2.56,1.2,3.44,3.63,4.73,5.7c3.55,5.67,6.53,11.67,8.25,18.13c0.88,3.32,0.32,7.04,3.46,9.58&#10;&#9;&#9;c2.36-14.77,3.37-29.57,3.37-44.44c0-8.09-3.13-10.33-10.76-7.91c-10.15,3.22-15.96,16.37-10.42,24.55&#10;&#9;&#9;C562.74,689.38,566.5,695.07,570.34,700.7z M537.62,718.99c0.16-0.53-0.06-0.83-0.58-0.95c-1.81-4.95-6.04-8.69-7.13-14.02&#10;&#9;&#9;c7.23,8.92,11.95,19.28,16.86,30.4c1.89-8.92,3.18-16.84,4.17-24.81c0.96-7.77,1.54-15.59,1.05-23.4c-0.19-3.1-1.4-6.02-5.29-6.38&#10;&#9;&#9;c-7.76-0.72-13.83,2.93-19.1,7.95c-2.89,2.75-3.81,6.81-3.25,10.65c1.26,8.65,6.97,14.83,12.63,20.94&#10;&#9;&#9;C537,719.4,537.39,719.12,537.62,718.99z M309.2,753.41c3.63-6.85,6.99-13.83,10.88-20.55c1.28-2.21,4.92-3.81,3.31-7.13&#10;&#9;&#9;c-1.27-2.63-3.68-4.47-5.96-6.34c-2.44-2-5.29-2.85-8.26-3.61c-5.59-1.44-10.91-0.44-16.38,0.98c-3.11,0.81-3.54,2.12-3.7,5.01&#10;&#9;&#9;c-1.02,18.45,4.07,35.45,12.13,52.53c0.83-6.78,1.8-12.95,3.81-18.92c1.95-5.81,3.61-11.71,6.65-17.03&#10;&#9;&#9;c0.35,0.12,0.7,0.24,1.05,0.36c-1.38,4.75-2.76,9.51-4.13,14.26c-0.11,0.64-0.76,1.34,0.22,1.86&#10;&#9;&#9;C308.94,754.35,309.07,753.88,309.2,753.41z M502.05,745.09c0.36,0.29,0.72,0.57,1.08,0.86c0.33-0.65,0.28-1.2-0.42-1.57&#10;&#9;&#9;c-1.76-7.5-5.98-14.02-8.24-21.36c8.06,9.75,10.67,22.13,15.85,33.57c0.39-0.66,0.79-1.07,0.88-1.54&#10;&#9;&#9;c2.66-14.26,6.27-28.34,6.8-42.98c0.36-9.86-8.35-18.39-18.33-14.92c-6.46,2.25-11.12,6.28-15.19,11.57&#10;&#9;&#9;c-2.88,3.75-2.38,6.92-0.26,10.65C489.4,728.5,495.8,736.74,502.05,745.09z M398.67,790.07c-0.16-0.25-0.32-0.5-0.48-0.74&#10;&#9;&#9;c-0.49,0.42-0.23,0.78,0.1,1.13c3.75,9.03,7.49,18.06,11.24,27.09c-0.38,0.17-0.76,0.34-1.14,0.51&#10;&#9;&#9;c-8.91-12.42-12.14-27.78-20.28-40.72c-0.54,10.9-4.48,20.94-6.19,31.41c-1,6.11-2.77,12.11-2.38,18.43&#10;&#9;&#9;c0.14,2.2,0.81,3.81,2.71,4.93c7.14,4.17,14.38,6.63,22.89,3.84c4.53-1.48,7.73-4.2,11.11-7.18c2.49-2.19,2.86-4.19,1.36-6.87&#10;&#9;&#9;c-5.29-9.44-10.55-18.89-15.92-28.29C400.94,792.28,400.26,790.74,398.67,790.07z M424.14,738.13c0.49-3.27,0.93-6.55,1.5-9.81&#10;&#9;&#9;c0.31-1.77-0.2-2.7-1.78-3.83c-8.93-6.42-18.62-7.25-28.69-3.9c-7.55,2.51-9.59,6.19-8.27,12.96&#10;&#9;&#9;c3.51,18.05,14.96,31.95,24.67,47.15c3.83-17.04,10.3-33.46,9.06-51.4c2.69,2.64,1.73,5.86,2.42,8.72&#10;&#9;&#9;c-0.44,4.15-0.89,8.3-1.33,12.45c0.29,0.03,0.58,0.06,0.87,0.08C423.1,746.41,423.62,742.27,424.14,738.13z M452.89,761.42&#10;&#9;&#9;c0.18,0.26,0.49,0.75,0.52,0.74c0.58-0.32,0.28-0.78,0.13-1.21c-2.68-6.93-5.82-13.7-7.03-21.16&#10;&#9;&#9;c6.17,11.72,12.25,23.46,15.29,37.51c4.02-10.86,6.31-21.04,8.76-31.19c2.11-8.75,3.68-17.58,3.98-26.59&#10;&#9;&#9;c0.03-0.97,0.57-2.1-0.63-2.89c-3.98-2.6-7.77-5.79-12.89-5.54c-8.03,0.38-15.5,3.06-22.59,6.61c-3.51,1.76-5.24,4.76-4.12,9.27&#10;&#9;&#9;C437.58,740.08,444.72,751.01,452.89,761.42z M571.27,711.77c-0.1-0.27-0.04-0.78-0.53-0.54c-0.12,0.06,0.01,0.63,0.03,0.96&#10;&#9;&#9;c1.26,5.4,1.64,10.91,2.13,16.41c0.45,4.95,1.18,9.73,3.99,14.2c4.68,7.45,4.01,10.86-1.14,17.93c-2.55,3.51-6.39,5.62-8.87,9.06&#10;&#9;&#9;c-2.28,3.17-5.4,5.04-8.86,6.41c-2.06,0.81-5.06-0.04-6.34,0.86c-1.51,1.07-1.22,4.3-2.38,6.44c-3.42,6.34-9.16,9.77-15.39,12.61&#10;&#9;&#9;c-3.47,1.58-6.96,3.29-10.82,3.51c-2.83,0.16-5.23-0.11-5.61-4.26c-0.45-4.83-0.27-9.57,0.14-14.32c0.37-4.37-0.15-8.03-3.53-11.39&#10;&#9;&#9;c-5.86-5.82-10.57-12.74-17.1-18.76c0,5.13-0.22,9.64,0.06,14.11c0.29,4.59,1.24,8.87,4.79,12.53c4.9,5.05,8.28,11.3,11.67,17.46&#10;&#9;&#9;c1.91,3.46,1.82,6.84-0.67,9.96c-7.4,9.26-16.58,14.65-28.9,13.11c-5.22-0.65-8.48-3.47-9.9-8.6c-3.37,0.81-6.06,1.92-3.47,6.17&#10;&#9;&#9;c0.4,0.65,0.3,1.94-0.08,2.67c-2.32,4.55-5.14,8.92-10.05,10.84c-10.28,4-20.72,4.97-31.12,0.12c-3.08-1.44-4.76-3.48-4.22-7.13&#10;&#9;&#9;c0.26-1.73,1.18-3.48,0.39-5.59c-0.7,0.62-1.19,1.36-1.86,1.59c-2.88,0.99-3.3,2.78-1.79,5.17c1.52,2.41-0.25,3.97-1.46,5.47&#10;&#9;&#9;c-8.86,11.02-20.82,13.8-34.1,8.37c-6.33-2.58-9.78-6.72-9.18-13.77c0.08-0.89-0.06-1.8-0.11-2.78c-2.14,0.59-4.12,1.14-6.11,1.69&#10;&#9;&#9;c2.64,5.99,2.75,7.01-1.67,9.53c-5.96,3.39-12.33,6.55-19.36,6.16c-8.68-0.48-15.08-5.79-20.95-11.7&#10;&#9;&#9;c-0.31-0.32-0.56-0.97-0.47-1.38c1.36-5.83-0.26-11.85,1.81-18.55c-3.28,2.32-5.93,0.53-8.64,0.68c0.77,3.76,2.91,7,2.75,10.82&#10;&#9;&#9;c-0.06,1.46-0.05,2.08-2.11,2.7c-6.4,1.91-12.24,0.55-18.2-1.4c-5.15-1.68-8.21-5.04-8.81-10.5c-8.57,1.1-16.52-3.59-20.76-12.08&#10;&#9;&#9;c-0.39-0.78,0.03-2.4-1.63-2.31c-2.76,0.15-4.46-2.05-7.02-3.19c0.73,4.18,0.01,8.48,3.52,11.56&#10;&#9;&#9;c13.81,12.14,28.49,22.83,46.05,29.15c12.05,4.34,24.47,6.56,37.07,8.36c13.66,1.95,27.19,5.12,41.11,4.25&#10;&#9;&#9;c10.21-0.64,20.45-1.02,30.62-2.3c15.37-1.93,30.71-4.05,45.8-7.64c21.02-4.99,40.13-14.62,59.07-24.61&#10;&#9;&#9;c7.13-3.76,14.66-6.81,21.08-11.88c10.65-8.4,19.05-18.92,27.48-29.36c4.85-6.01,7.37-13.39,10.1-20.67&#10;&#9;&#9;c-6.86-0.32-6.86-0.32-6.86-6.8c0-4.66,0.02-9.32,0.01-13.98c0-1.3,0.13-2.55-0.72-3.79C577.38,719.33,574.82,715.18,571.27,711.77&#10;&#9;&#9;z M691.13,394.51c0.18,0.13,0.35,0.25,0.53,0.38c0-0.12,0-0.24-0.01-0.36c-0.19,0.02-0.38,0.05-0.57,0.07&#10;&#9;&#9;c0.5-2.22-0.25-4.31-0.54-6.47c-0.28-2.03-1.08-4.45,1.64-5.79c0.23,0.39,0.42,0.59,0.49,0.83c2.01,7.1,2.29,14.9,8.31,20.4&#10;&#9;&#9;c0.84,0.76,1.17,1.98-0.8,1.94c-0.16-0.13-0.31-0.28-0.49-0.37c-0.05-0.03-0.19,0.11-0.29,0.17c0.17,0.13,0.34,0.27,0.51,0.4&#10;&#9;&#9;c2.24,8.81,4.93,17.47,8.54,25.84c0.16-2.88-0.05-5.66-0.18-8.45c-0.54-10.91-0.94-21.85,0.52-32.7&#10;&#9;&#9;c5.15-38.17,18.35-74.2,29.89-110.64c2.85-8.99,5.93-17.91,8.16-27.07c1.35-5.56,2.04-11.26,2.01-16.99&#10;&#9;&#9;c-0.02-4.07-1.25-4.88-5.24-3.83c-3.13,0.83-5.94,2.36-8.57,4.16c-3.4,2.33-6.72,4.79-9.98,7.31&#10;&#9;&#9;c-21.61,16.67-37.84,38.11-52.76,60.55c-12.59,18.93-24.27,38.47-36.66,57.54c-4.65,7.16-8.88,14.46-12.36,22.25&#10;&#9;&#9;c-5.91,13.23-10.11,27.11-15.72,40.45c-0.56,1.32-0.59,2.19,0.92,2.82c3.75,1.55,7.47,3.17,10.59,4.51&#10;&#9;&#9;c9.9-28.71,21.21-56.38,39.67-81.76c0.44,2.55-0.47,3.4-1.04,4.36c-14.26,23.87-24.25,49.69-34.35,75.45&#10;&#9;&#9;c-0.93,2.37-0.84,3.78,2.06,5.04c23.25,10.12,46.18,20.89,68.54,32.87c1.73,0.93,3.63,1.58,5.5,2.19c2.61,0.85,6.27,2.96,7.67,1.97&#10;&#9;&#9;c2.08-1.48,0.77-5.35,0.89-8.18c0.5-12.13-0.05-24.12-5.79-35.26c-0.84-1.64-1.27-3.48-2-5.19c-3.82-9-3.46-19.77-11.44-27.03&#10;&#9;&#9;c-0.47-0.43-0.74-1.09-0.12-1.73C689.64,393.17,690.31,394.38,691.13,394.51z M370.87,739.29c1.1,5.61,0.1,10.97-0.17,16.42&#10;&#9;&#9;c3.02-6.26,5.4-12.66,6.43-19.56c0.43-2.89,0.59-5.23-1.85-7.41c-10.34-9.24-27.26-8.55-37.33-3.36c-1.67,0.86-2.53,1.95-2.5,4.02&#10;&#9;&#9;c0.11,6.65,0.98,13.1,3.04,19.5c4.37,13.63,12,25.83,16.41,39.13C365.41,773.51,366.91,756,370.87,739.29z M436.94,809.05&#10;&#9;&#9;c-1.86-8.03-0.93-16.29-2.69-24.34c-0.82,12.59-3.84,24.72-6.7,36.87c-0.71,3.01,1.18,4.19,3.5,5.33&#10;&#9;&#9;c5.33,2.6,10.94,3.04,16.65,2.27c7.28-0.98,14.35-2.36,18.7-9.47c1.51-2.47,1.74-4.25,0.25-6.74&#10;&#9;&#9;c-5.17-8.66-11.02-16.81-17.45-24.57c-4.18-5.04-8.33-10.1-13.23-16.04C437.42,785.39,438.59,797.21,436.94,809.05z M485.11,760.6&#10;&#9;&#9;c-0.69,11.87,1.47,22.8-1.76,33.42c-1.78-4.75,0.56-9.52-0.32-14.69c-1.19,4.24-2.42,8.08-3.32,12&#10;&#9;&#9;c-1.23,5.37-3.28,10.58-2.86,16.27c0.36,4.9,2.13,6.65,7.02,7.32c9.48,1.31,17.09-2.63,23.92-8.42c4.57-3.88,4.8-6.84,1.89-12.03&#10;&#9;&#9;C502.99,782.5,493.66,772.47,485.11,760.6z M521.83,745.75c0,3.34,0.12,5.57-0.02,7.79c-0.8,13.23-1.72,26.45-2.46,39.68&#10;&#9;&#9;c-0.25,4.49,0.26,4.74,4.75,3.53c6.98-1.88,13.15-5.36,18.65-9.91c6.2-5.13,6.71-10.11,1.92-16.48&#10;&#9;&#9;C538.12,761.67,530.17,754.26,521.83,745.75z M553.89,745.06c-1.52,9.24-0.75,17.76-1.05,26.23c-0.09,2.71,0.71,3.05,3.22,2.29&#10;&#9;&#9;c6.8-2.04,10.16-8.21,15.19-12.35c2.8-2.3,5.01-5.38,5.99-9.13c0.42-1.61,0.53-3-0.25-4.56c-5.34-10.69-13.58-18.95-22.7-27.66&#10;&#9;&#9;c1.12,12.52,2.16,24.14,3.2,35.76C554.94,752.69,555.04,749.12,553.89,745.06z M274.2,755.83c1.83-12.02,4.1-23.87,9.37-34.95&#10;&#9;&#9;c0.56-1.17,1.45-2.3,0.66-3.7c-2.95-5.22-6.64-9.65-12.74-11.29c-3.47-0.93-6.37,0.72-7.12,3.74c-3.99,15.99-1.12,31.02,6.47,46.05&#10;&#9;&#9;c-0.59-10.17-2.23-19.82,1.12-29.19C272.29,736.32,272.8,746.09,274.2,755.83z M600.91,684.72c2.45-8.57,2.92-17.29,3.64-25.93&#10;&#9;&#9;c0.49-5.89,1.39-11.87,0.31-17.84c-0.53-2.91-2.32-4.77-4.97-5.65c-4.37-1.45-12.76,3.1-14.22,7.53&#10;&#9;&#9;c-2.74,8.31-0.82,14.79,6.37,21.32c0.16-1.57-1.05-2.69-1.24-4.06c-0.18-1.33-2.11-2.47-0.33-4.3&#10;&#9;&#9;C595.24,665.07,598.48,674.71,600.91,684.72z M308.3,770.62c-0.76-0.23-0.76,0.25-0.89,0.59c-4.34,11.46-7.61,23.21-9.4,35.33&#10;&#9;&#9;c-0.65,4.44,1.14,7.41,5.14,9.13c3.15,1.36,6.47,2.27,9.9,2.43c9.37,0.44,9.68-0.1,6.05-8.5&#10;&#9;&#9;C313.69,797.08,307.5,784.76,308.3,770.62z M583.96,643.87c-26.85,16.59-52.85,32.65-78.57,48.54c4.67,0.88,9.28,2.87,12.83,8.3&#10;&#9;&#9;c0.24-4.24,3.08-6.33,3.9-8.77c2.23-6.64,7.27-9.67,12.6-12.93c3.74-2.29,7.63-2.53,11.8-2.52c5.26,0.01,6.84,3.81,8.69,8.46&#10;&#9;&#9;c-0.6-14.49-0.56-14.64,1.96-19.63c3.01-5.97,8.41-8.59,14.44-10.08c4.6-1.13,8.54,0.25,11.16,5.48&#10;&#9;&#9;C584.56,654.6,580.3,649.44,583.96,643.87z M350.57,783.16c-1.13,6.68-1.04,6.63,2.48,12.52c4.08,6.82,8.96,13.07,13.52,19.55&#10;&#9;&#9;c2.6,3.69,6.68,4.45,10.1,1.68c1.46-1.19,2.37-2.44,0.78-4.58c-4.48-6.03-8.73-12.24-12.95-18.45c-1.2-1.76-3.01-3.39-2.42-6.36&#10;&#9;&#9;c6.34,7.37,10.54,15.95,16.95,23c1.42-3.1-0.46-4.95-1.93-6.93c-5.14-6.94-10.27-13.88-15.52-20.97c-1.92,3.07-3.61,5.86-5.38,8.59&#10;&#9;&#9;c-1.16,1.8-2.07,1.68-2.79-0.42C352.54,788.22,351.52,785.7,350.57,783.16z M402.16,775.08c-1.3,17.66,10.47,29.18,17.4,42.74&#10;&#9;&#9;c1.5-0.8,2.75-1.53,4.06-2.16c3.53-1.68,5.11-7.32,2.59-10.53C418.38,795.17,410.38,785.33,402.16,775.08z M584.57,719.11&#10;&#9;&#9;c-0.74,7.74-1.65,15.4-1.39,23.12c0.05,1.57-0.4,3.35,1.88,3.68c1.94,0.28,3.71-0.04,4.54-2.14c3.08-7.81,6.13-15.64,9.25-23.44&#10;&#9;&#9;c0.38-0.96,0.45-1.73-0.12-2.6c-4.21-6.44-8.4-12.89-12.9-19.79c-0.32,3.72-1.4,7.04-0.68,9.91c1.54,6.19,1.71,12.52,2.72,18.75&#10;&#9;&#9;c0.62,3.84,0.12,7.85,0.12,11.79c-0.37,0.02-0.74,0.04-1.11,0.05C586.11,731.99,585.34,725.55,584.57,719.11z M277.58,768.95&#10;&#9;&#9;c-1.29,7.48-2.31,14.01-2.06,20.7c0.33,8.74,8.36,16.45,17.1,16.5c3.44,0.02,3.56-1.69,2.53-3.92c-4.48-9.78-9.11-19.5-13.92-29.73&#10;&#9;&#9;c-0.4,4.74,2.22,8.51,1.69,12.7C280.11,780.44,279.61,774.94,277.58,768.95z M320.28,768.38c-0.2,0.06-0.41,0.12-0.61,0.18&#10;&#9;&#9;c-1.64,5.81-3.32,11.61-4.88,17.44c-0.31,1.17-0.82,2.31-0.2,3.74c1.55,3.62,2.67,7.42,4.19,11.05c1.12,2.68,5.65,4.28,9.37,3.73&#10;&#9;&#9;c3.52-0.52,2.11-3.36,2.63-5.31c0.17-0.64,0.48-1.26,0.52-1.91c0.23-3.42,1.76-6.97-0.91-10.14c-1.43-1.71-2.81-3.46-4.92-6.07&#10;&#9;&#9;c1.2,5.16,2.37,9.15,4,12.99c0.35,0.83,1.07,1.79-0.15,2.3c-0.89,0.38-1.38-0.63-1.73-1.29c-1.87-3.62-3.13-7.48-4.06-11.42&#10;&#9;&#9;C322.35,778.6,321.36,773.48,320.28,768.38z M255.45,715.91c1.52,11.5,1.44,23.19,3.99,34.52c0.62-4.48,1.73-9.03,1.08-13.31&#10;&#9;&#9;c-0.8-5.3-1.27-10.55-0.85-15.81c0.42-5.21,0.51-10.66,3.09-15.37c1.16-2.12,0.25-3.17-0.72-4.48c-1.39-1.89-3.2-3.42-5.67-2.97&#10;&#9;&#9;c-1.73,0.32-2.71,1.7-3.27,3.58c-1.1,3.64-0.5,7.39-1.21,11.06c-1.05,5.42,0.06,13.96,1.92,19.07&#10;&#9;&#9;C254.66,726.87,252.86,721.24,255.45,715.91z M313.66,713.53c5.22,2.16,8.47,6.35,11.89,10.32c1.92,2.23,4.84,2.58,6.6,1.21&#10;&#9;&#9;c5.21-4.04,10.82-6.35,17.43-6.56C337.68,716.03,325.68,714.5,313.66,713.53z M294.08,765.27c-2.1,4.69-2.32,9.56-3.21,14.24&#10;&#9;&#9;c-1.12,5.86,4.51,7.94,6.76,12.43c1.14-3.97,2.08-7.38,3.13-10.75c0.21-0.69,0.3-1.24-0.13-1.83&#10;&#9;&#9;C297.59,775.19,296.62,770.06,294.08,765.27z M390.68,718.05c-9.98,0.87-19.17,1.12-28.33,0.33c5.67,1.77,11.07,4.18,15.44,8.21&#10;&#9;&#9;c1.68,1.55,3.14,2.92,5.56,3.24C382.61,724.41,387.01,721.95,390.68,718.05z M287.04,716.35c5.57-3.41,11.77-4.69,18.3-4.92&#10;&#9;&#9;c-9.09-2.12-18.1-3.95-26.97-6.62C282.36,708.08,285.19,711.98,287.04,716.35z M266.23,753.88c0.73,6.15,1.95,12.15,3.74,18.03&#10;&#9;&#9;c0.65,2.15-0.21,5.06,2.99,5.84c0.28-1.22,0.85-2.4,0.75-3.53c-0.21-2.46,2.09-5.04,0.34-7.21&#10;&#9;&#9;C270.81,762.98,268.68,758.38,266.23,753.88z M600.21,714.87c5.94-7.76-1.6-11.7-4.63-17.85&#10;&#9;&#9;C594.66,704.3,594.64,710.46,600.21,714.87z M581.59,719.95c0.18-7.97,0.46-15.85,1.97-23.61c0.16-0.8,1.26-1.78-0.34-2.11&#10;&#9;&#9;c-1.65-0.34-1.5,1.03-1.57,2.06c-0.34,5.26-1.34,10.41-2.31,15.57C578.81,714.71,578.18,717.86,581.59,719.95z M568.6,713.64&#10;&#9;&#9;c-1.87,16.16-1.87,16.16,2.02,18.58C569.93,725.91,569.27,719.77,568.6,713.64z M605.28,624.88c-2.45,2.32-4.67,4.42-7.3,6.91&#10;&#9;&#9;c2.97-0.12,4.66,1.53,6.87,2.34C604.53,631,606.25,628.28,605.28,624.88z M187.4,598.17c-1.71-3.95-2.48-8.47-6.97-11.09&#10;&#9;&#9;C181.42,591.86,182.89,595.96,187.4,598.17z M608.35,691.72c2.58-2.49,1.31-4.63,0-7.07C608.35,687.21,608.35,689.46,608.35,691.72&#10;&#9;&#9;z M538.5,720.49c-0.18-0.24-0.36-0.53-0.6-0.74c-0.05-0.04-0.37,0.23-0.56,0.35c0.24,0.35,0.49,0.7,0.73,1.06&#10;&#9;&#9;C538.2,720.97,538.32,720.77,538.5,720.49z M454.04,763.11c-0.05,0.1-0.15,0.22-0.13,0.29c0.15,0.4,0.35,0.4,0.52,0.01&#10;&#9;&#9;c0.03-0.07-0.05-0.22-0.13-0.28C454.26,763.08,454.13,763.12,454.04,763.11z M987.82,783.2c0.09,0.16,0.17,0.32,0.26,0.48&#10;&#9;&#9;c0.08-0.08,0.24-0.19,0.22-0.25c-0.04-0.18-0.15-0.34-0.23-0.5C987.99,783.02,987.91,783.1,987.82,783.2z M310.34,881.41&#10;&#9;&#9;c-0.09,0.06-0.17,0.12-0.26,0.18c0.08,0.07,0.15,0.2,0.23,0.2c0.08,0.01,0.17-0.11,0.26-0.17&#10;&#9;&#9;C310.5,881.55,310.42,881.48,310.34,881.41z M311.94,882.02c-0.09,0.08-0.26,0.17-0.25,0.23c0.04,0.17,0.14,0.32,0.22,0.48&#10;&#9;&#9;c0.09-0.08,0.26-0.17,0.25-0.23C312.13,882.33,312.02,882.17,311.94,882.02z M607.02,672.09c-0.09-0.05-0.2-0.16-0.26-0.14&#10;&#9;&#9;c-0.11,0.05-0.19,0.17-0.28,0.27c0.18,0.05,0.35,0.1,0.53,0.16C607.01,672.28,607.01,672.19,607.02,672.09z" style="fill: rgb(238, 238, 238);"/>
	<path class="st1" d="M829.76,340.6c3.16-6.71,6.88-13.22,7.81-21.53c-2.28,1.77-2.62,3.79-3.51,5.48&#10;&#9;&#9;c-3.39,6.44-6.45,13.04-10.77,18.98c-2.55,3.5-6.16,4.43-9.9,5.21c-13.92,2.9-27.63,6.5-40.82,11.92c-0.45,0.18-0.98,0.17-2.4,0.4&#10;&#9;&#9;c3.91-4.33,7.06-8.23,10.62-11.7c11.05-10.75,15.85-24.11,17.54-39.1c1.45-12.92,3.53-25.78,5.39-38.65&#10;&#9;&#9;c0.75-5.2,2.82-10.02,5.2-14.6c6.87-13.25,14.3-26.15,25.48-36.4c0.61-0.56,1.17-1.71,2.23-1.11c0.42,0.24,0.59,1.16,0.61,1.79&#10;&#9;&#9;c0.59,14.86,6.54,28.11,12.67,41.25c2.9,6.22,5.96,12.38,9.48,18.35c3.72,6.3,4.55,13.84,5.46,21.09&#10;&#9;&#9;c1.67,13.41,2.03,26.82-1.27,40.07c-3.24,12.99-11.76,22.23-22.21,29.74c-8.28,5.95-16.69,11.65-27.17,13.76&#10;&#9;&#9;c-7.19,1.45-13.15,6.14-19.18,11.39c0.43-4.52,3.16-7.76,3.27-11.6c-1.12-0.41-1.41,0.21-1.75,0.77&#10;&#9;&#9;c-11.7,19.56-19.56,40.38-20.04,63.45c-0.18,8.73,2.46,16.97,5.12,25.27c3.65,11.4,11.88,19.55,18.99,28.39&#10;&#9;&#9;c8.29,10.31,14.83,21.62,21.58,32.88c18.55,30.95,25.24,65.91,34.35,100.08c4.96,18.6,5.23,37.59,5.61,56.58&#10;&#9;&#9;c0.18,8.78-0.84,9.29-9.63,8.36c-5.54-0.59-11.11-0.85-16.67-1.24c-0.2-0.01-0.41,0.26-0.67,0.42c-0.11,1.48,1.17,1.53,2.05,1.9&#10;&#9;&#9;c9.25,3.88,19.12,4.1,28.9,4.69c6.28,0.38,12.59,0.39,18.89,0.54c7.96,0.2,14.95,3.04,21.45,7.51&#10;&#9;&#9;c19.35,13.3,37.91,27.51,54.12,44.63c4.29,4.53,9.13,8.55,13.88,12.62c3.57,3.06,5.6,7.12,7.42,11.21&#10;&#9;&#9;c4.47,10.05,8.6,20.24,12.88,30.37c0.49,1.15,0.56,2.54,2.57,3.85c-1.08-12.1-5.72-22.55-9.11-33.26c1.66-0.84,2.17,0.4,2.84,1.04&#10;&#9;&#9;c15.37,14.75,29.19,30.96,43.65,46.56c10.04,10.83,19.57,22.09,29.45,33.06c8.16,9.05,16.46,18.05,22.61,28.71&#10;&#9;&#9;c0.04,1.23-0.32,2.75,1.78,2.51c0,0-0.13,0-0.13,0c0.56,4.73,4.4,7.68,6.39,11.65c0.68,1.35,0.91,3.53,3.19,3.65&#10;&#9;&#9;c0,0-0.08-0.04-0.08-0.04c0.18,0.62,0,1.43,0.89,1.67c0,0-0.08-0.09-0.08-0.09c0.16,0.64,0,1.44,0.89,1.68c0,0-0.08-0.09-0.08-0.09&#10;&#9;&#9;c0.19,3.26,0.88,6.28,3.99,8.1l0.12,0.16c0,0-0.13,0.15-0.13,0.15c0.13,0.77,0.05,1.65,0.97,2.04&#10;&#9;&#9;c6.93,14.2,14.75,28.01,18.89,43.44c0.9,3.34,1.77,6.64,0.92,10.13c-2.27,0.48-3.43-1.16-4.6-2.55&#10;&#9;&#9;c-3.58-4.26-7.29-8.44-10.48-12.98c-1.69-2.42-4.84-3.91-5-7.36c1.22,0.09,1.66,1.21,2.43,1.88c2.93,2.51,5.8,5.08,8.73,7.59&#10;&#9;&#9;c0.59,0.51,1.35,0.96,2.16,0.42c0.59-0.39,0.34-1.03,0.01-1.39c-2.03-2.2-3.13-4.99-5.3-7.19c-6.7-6.78-15.01-11.71-20.89-19.54&#10;&#9;&#9;c-5.57-7.42-11.93-14.47-19.42-19.99c-13.07-9.64-25.81-19.65-38.13-30.23c-1.63-1.4-2.38-1.91-0.01-3.51&#10;&#9;&#9;c6.23-4.19,8.21-13.14,4.78-20.13c-0.82,0.46-1.05,1.37-0.95,2.04c0.56,3.67-0.1,7.38-0.36,10.96c-0.2,2.68-3.95,3.94-6.36,5.55&#10;&#9;&#9;c-1.7,1.14-2.84,0.22-4.25-0.75c-10.53-7.27-18.95-17.24-29.77-24.03c-27.38-17.18-55.08-33.67-85.41-45.59&#10;&#9;&#9;c-24.67-9.7-47.77-23.26-73.47-30.59c-3.07-0.88-3.88-4.34-1.96-6.95c1.99-2.71,3.65-5.51,3.06-10.05&#10;&#9;&#9;c-2.39,3.96-4.02,7.28-6.84,9.74c-0.41,0.36-0.67,1.24-0.56,1.79c0.84,4.2-1.42,3-3.7,2.31c-8.01-2.4-16.21-3.86-24.72-4.72&#10;&#9;&#9;c0.75,1.95,2.11,2.1,3.62,2.38c8.14,1.53,16.23,3.28,24.05,6.12c1.82,0.66,3.1,1.04,3.4,3.52c0.25,2.06,1.95,3.98,3.12,5.89&#10;&#9;&#9;c0.47,0.77,1.25,1.62,2.3,0.97c1.32-0.83,0.06-1.59-0.29-2.3c-0.87-1.8-2.32-3.33-2.78-5.98c5.95,2.05,11.45,3.81,16.85,5.83&#10;&#9;&#9;c17.13,6.42,32.89,15.93,49.88,22.57c24.15,9.45,47.34,20.67,69.07,34.76c9.36,6.07,19.68,10.66,28.26,17.86&#10;&#9;&#9;c7.43,6.24,14.71,12.64,22.31,18.69c15.59,12.41,30.05,26.2,46.56,37.54c6.03,4.14,11.18,9.73,15.44,15.9&#10;&#9;&#9;c-1.57,0.5-2.45-0.64-3.48-1.44c-5.54-4.34-11.1-8.65-16.62-13.02c-13.43-10.63-27.04-21.05-40.22-31.98&#10;&#9;&#9;c-16.82-13.96-34.24-26.94-53.9-36.69c-15-7.44-30.28-14.34-44.62-23.05c-7.41-4.5-15.35-7.85-23.55-10.68&#10;&#9;&#9;c-17.46-6.03-35.39-10.36-53.25-14.97c-14.25-3.68-28.36-7.89-42.62-11.51c-7.13-1.81-14.45-2.55-21.35,1.27&#10;&#9;&#9;c-2.2,1.22-4.34,2.54-6.51,3.82c-2.78-11.21-3.26-21.86,3.73-32.26c9.42-14,20.55-26.43,32.26-38.44c0.92-0.94,2.39-1.63,2.34-4.29&#10;&#9;&#9;c-3.88,3.12-7.34,5.63-10.49,8.48c-17.9,16.19-32.29,34.73-38.74,58.51c-2.2,0.45-2.78-1.68-4.11-2.6&#10;&#9;&#9;c-2.25-1.55-4.12-4.3-7.23-3.54c-5.97,1.45-11.76,3.45-16.05,8.27c-1.23,1.38-2.47,2.79-3.88,3.96c-3.22,2.67-5.12,1.98-5.92-2.23&#10;&#9;&#9;c-1.42-7.43-0.17-14.84,0.61-22.21c1-9.48,3-18.82,2.91-28.46c-0.08-8.18-3.85-14.16-9.41-19.44c-2.05-1.95-4.51-2.2-7.03-1&#10;&#9;&#9;c-3.91,1.85-7.28,4.35-9.32,8.33c-0.78,1.52-1.41,3.28-3.67,3.06c-0.08-1.45-0.3-2.92-0.21-4.36c1.21-19.96,1.01-39.88-0.76-59.81&#10;&#9;&#9;c-1.24-13.88-3.06-27.6-7.66-40.82c-2.54-7.29-5.2-14.54-7.81-21.81c15.88,18.33,27.64,39.06,37.28,61.11&#10;&#9;&#9;c0.4-0.58,0.55-0.98,0.48-1.34c-0.12-0.64-0.36-1.25-0.56-1.87c-6.5-19.82-16.95-37.51-29.34-54.13&#10;&#9;&#9;c-6.33-8.48-14.63-15.52-19.39-25.12c-3.62-7.29-9.9-11.53-16.13-15.93c-3.19-2.26-6.74-4-10.73-6.32&#10;&#9;&#9;c7.86,0.54,14.79,2.74,22.8,3.93c-14.81-10.58-87.38-14.06-94.54-4.87c6.69-0.71,13.17-1.56,19.68-2.04&#10;&#9;&#9;c16.66-1.23,32.72,1.48,48.14,7.93c9.99,4.17,19.57,9.23,26.28,17.9c7.69,9.94,12.93,21.33,16.87,33.28&#10;&#9;&#9;c-1.56-0.07-1.67-1.52-2.31-2.45c-7.59-11.02-14.55-22.54-27.35-28.69c-7.97-3.83-15.24-9.2-24.76-8.89&#10;&#9;&#9;c-11.24,0.36-21.61,3.51-31.54,8.61c-8.63,4.43-17.22,8.9-24.98,14.81c-0.75,0.57-1.88,1.74-2.75,0.82&#10;&#9;&#9;c-1.19-1.27,0.32-2.11,1.16-2.83c1.56-1.33,3.38-2.4,4.53-4.58c-0.88,0-1.42-0.07-1.93,0.01c-16,2.54-31.72,6.18-46.86,12.05&#10;&#9;&#9;c-1.96,0.76-3.87,1.81-6.11,1.48c4.17-5.39,10.25-8.23,15.78-11.78c12.16-7.8,24.96-14.6,36.63-23.18c1.07-0.78,2.68-1.3,2.54-3.16&#10;&#9;&#9;c-7.83,0.42-42.1,20.72-60.41,35.74c-1.68,0.33-3.37,0.61-5.03,1c-0.75,0.18-1.54,0.77-2.08-0.2c-0.42-0.75-0.22-1.58,0.26-2.26&#10;&#9;&#9;c1.07-1.51,2.36-2.89,3.26-4.5c3.38-6.08,2.66-7.81-3.66-10.52c-9-3.86-18.52-5.34-28.12-6.8c-16.59-2.52-33.44-3.8-49.45-9.47&#10;&#9;&#9;c-5.11-1.81-10.34-3.31-15.5-5.02c-0.96-0.32-2.1-0.68-2.12-2.06c-0.01-0.7,0.32-1.68,0.94-1.49c2.24,0.71,4.43-1.01,6.57-0.05&#10;&#9;&#9;c8.03,3.63,16.25,2.03,24.53,0.82c-28.05-11.57-58.54-12.91-87.49-20.94c11.66-0.15,23.08,2.45,34.66,2.9&#10;&#9;&#9;c-11.86-3.49-23.55-7.29-35.06-11.66c-1.26-0.48-3.03-0.34-3.32-2.29c1.31-0.11,2.63-0.32,3.94-0.32&#10;&#9;&#9;c30.05-0.01,59.78-2.35,88.6-11.71c1.65-0.54,4.82-0.79,4.3-2.18c-0.77-2.07-3.44-0.33-5.14,0.07&#10;&#9;&#9;c-17.37,4.09-34.79,7.91-52.65,8.94c-16.86,0.98-33.73,1.08-50.65,0.42c-25.75-0.99-50.93-5.41-75.86-11.28&#10;&#9;&#9;c-21.17-4.98-42.56-7.71-64.2-8.96c-1.32-0.08-3.09,0.85-3.88-0.97c-0.77-1.77,0.49-3.01,1.58-4.19&#10;&#9;&#9;c6.06-6.57,12.82-12.35,19.82-17.87c2.57-2.03,4.95-4.43,8.46-4.83c4.2-0.48,8.17-1.87,12.21-3.01c4.72-1.33,6.46-5.65,9.51-8.73&#10;&#9;&#9;c-1.58,0.41-3.01,1.13-3.9,2.27c-3.24,4.16-7.81,5.29-12.64,6.29c-3.04,0.63-6.41,0.5-9.08,2.23&#10;&#9;&#9;c-9.72,6.32-19.08,13.27-26.23,22.41c-3.97,5.07-8.14,7.34-14.28,6.51c-2.6-1.41-5.24-1.01-7.87-0.11&#10;&#9;&#9;c-13.09-2.11-26.06-1.47-39.32,1.35c0.9-7.7,3.53-14.78,8.41-21.14c3.88-5.06,9.16-7.91,14.63-10.69&#10;&#9;&#9;c33.13-16.82,67.44-30.72,102.76-42.22c21.98-7.16,43.17-16.52,65.32-23.23c27.13-8.22,54.71-14.21,82.86-17.6&#10;&#9;&#9;c12.1-1.45,24.19-0.85,36.27-0.29c15.55,0.72,31.1,1.61,46.62,2.74c11.02,0.8,21.75,3.54,32.45,6.1&#10;&#9;&#9;c32.67,7.83,63.39,21.09,94.15,34.2c22.85,9.74,45.1,20.73,67.34,31.78c15.97,7.93,32.42,14.88,47.96,23.7&#10;&#9;&#9;c19.63,11.15,37.64,24.51,54.22,39.81c4.11,3.79,8.12,7.68,12.22,11.49c0.57,0.53,0.97,1.95,2.12,1.03&#10;&#9;&#9;c0.98-0.79,0.13-1.87-0.31-2.47c-2.94-4.09-5.73-8.35-9.11-12.06c-17.22-18.88-36.56-35.13-59.47-46.8&#10;&#9;&#9;c-5.56-2.84-11.2-5.5-17.07-7.64c-1.9-0.69-2.91-1.45-2.67-3.9c1.32-13.95,1.06-27.92-0.34-41.86c-0.3-3,0.5-5.78,1.54-8.53&#10;&#9;&#9;c6.33-16.82,15.51-31.6,29.42-43.38c9.68-8.2,21.26-12.46,32.55-17.4c11.93-5.23,24.3-9.03,36.99-12.11&#10;&#9;&#9;c11.05-2.69,19.02-10.22,25.28-19.55c0.44-0.65,0.77-1.39,1.02-2.13c0.1-0.3-0.13-0.72-0.3-1.48c-5.65,4.23-10.35,9.34-16.41,12.62&#10;&#9;&#9;C830.31,341.2,830.04,340.9,829.76,340.6z M568.96,556.86c-0.32-0.11-0.64-0.23-0.96-0.34c1.14-2.15,4.31-2.91,4.42-6.48&#10;&#9;&#9;c-6.96,4.87-13.23,9.85-21.38,13.48c5.95-8.16,7.67-16.12,3.55-24.73c5.56-1.59,10.53,0.31,15.57,1.88&#10;&#9;&#9;c-4.85-3.98-10.53-6.26-16.45-9.32c10.27-0.74,20,1.01,29.41-2c-13.64-1.3-27.26-2.46-40.93-2.06c-2.78,0.08-5.44,1.06-7.91,2.45&#10;&#9;&#9;c-6.25,3.51-12.35,7.25-18.23,11.37c-9.54,6.69-19.85,11.37-31.65,12.69c-5.1,0.57-10.22,0.15-15.53,0.84&#10;&#9;&#9;c0.64,2.1,2.07,2.13,3.53,2.12c2.53-0.01,5.1,0.29,7.58-0.07c5.16-0.75,7.9,2.83,11.06,5.72c0.33,0.3,0.62,0.91,0.57,1.34&#10;&#9;&#9;c-0.66,5.31,3.23,11.57,8.98,13.41c-3.23-4.45-7.24-7.8-8.23-13.03c7.02,4.97,12.35,12.05,20.66,15.21&#10;&#9;&#9;c7.97,3.03,16.01,5.01,24.58,3.79c-9.26-2.55-19.07-3.23-27.46-8.24c-8.36-4.99-14.41-12.89-22.5-18.46&#10;&#9;&#9;c3.9-1.58,3.8-1.42,8.28,1.22c7.35,4.34,14.28,9.51,22.64,11.96c4.26,4,15.51,5.28,20.71,2.37c0.6-0.26,1.18-0.68,1.81-0.75&#10;&#9;&#9;c9.49-1.05,18.09-4.31,26.09-9.6c7.71-5.1,15.69-9.79,23.65-14.5c3.14-1.86,6.39-3.76,10.38-2.99c12.91,2.49,25.65,5.7,38.18,9.69&#10;&#9;&#9;c1.24,0.4,2.31,0.72,4.64,0.13c-1.13-0.52-1.49-0.7-1.87-0.86c-13.8-5.64-28.16-9.21-42.85-11.49c-4.01-0.62-7.55,0.28-10.9,3.09&#10;&#9;&#9;C582.51,549.63,576,553.71,568.96,556.86z M768.36,536.1c-2.54-1.85-4.52-0.61-6.06,0.08c-9.5,4.23-18.09,1.99-26.53-2.98&#10;&#9;&#9;c-5.01-2.95-10.17-5.64-15.31-8.36c-0.53-0.28-1.45-1.19-2.01-0.15c-0.45,0.83,0.2,1.43,1.03,1.81c0.71,0.33,1.35,0.82,2.03,1.22&#10;&#9;&#9;c6.57,3.86,13.15,7.72,19.73,11.58c-13.28-0.96-26.4-1.99-39.38-4.16c-13.02-2.17-26.05-4.23-39.07-6.39&#10;&#9;&#9;c-12.77-2.12-25.53-4.3-38.3-6.45c-0.06,0.33-0.12,0.67-0.18,1c3.61,1.47,7.37,2.4,11.21,3.07c13.63,2.38,27.26,4.8,40.91,7.06&#10;&#9;&#9;c12.11,2.01,24.22,4.03,36.37,5.71c11.15,1.54,22.28,3.43,33.61,3.14c1.13-0.03,2.26,0.66,3.41,0.94&#10;&#9;&#9;c5.72,1.43,10.62,5.02,16.59,5.93c5.71,0.86,11.46,1.76,17.01,3.51c0.45,0.14,1.08,0,1.06-1.3c-2.51-0.84-5.18-1.77-7.88-2.63&#10;&#9;&#9;c-7.09-2.25-15.32-1.41-20.65-7.66C759.78,539.55,763.78,537.94,768.36,536.1z M687.38,554.62c-0.01,0.24-0.13,0.55-0.02,0.7&#10;&#9;&#9;c0.64,0.85,1.31,1.67,1.99,2.48c8.7,10.41,16.43,21.42,22.75,33.5c12.11,23.14,19.38,47.76,23.82,73.35&#10;&#9;&#9;c0.57,3.29,0.72,6.89,3.21,10.02C745.84,648.36,707.44,559.82,687.38,554.62z M708.78,556.62c-0.96,1.4-0.2,1.88,0.25,2.48&#10;&#9;&#9;c5.77,7.73,11.37,15.54,15.75,24.2c12.37,24.5,19.2,50.35,20.09,77.84c0.16,5.06-0.11,10.36,2.21,15.26&#10;&#9;&#9;c2.13-20.88,1.21-41.55-5.04-61.77C735.28,592.79,723.51,573.81,708.78,556.62z M828.98,667.71c2.75-3.08,2-5.77,2.19-8.2&#10;&#9;&#9;c1.27-16.34,0.86-32.63-1.29-48.89c-1.94-14.66-6.69-28.52-11.73-42.3c-0.31-0.84-0.52-2.07-1.7-1.79&#10;&#9;&#9;c-1.17,0.28-0.75,1.55-0.7,2.37c0.23,4.15,2.08,7.88,3.25,11.78c6.68,22.46,8.51,45.52,8.82,68.8&#10;&#9;&#9;C827.9,655.23,828.54,660.98,828.98,667.71z M757.74,659.89c5.31-11.97-3.03-54.35-14.55-76.6c-9.57-18.47-16.38-28.47-20.98-29.52&#10;&#9;&#9;C746.03,585.55,754.47,621.87,757.74,659.89z M582.53,499.77c-14.46-4.88-28.04-9.44-41.6-14.06c-11.33-3.86-21.7-1.62-31.81,4.28&#10;&#9;&#9;c-11.61,6.78-22.58,14.76-35.29,19.56c-1.55,0.58-3.18,1.18-4.02,3.71c5.52-2.19,10.9-3.19,15.73-5.87&#10;&#9;&#9;c8.43-4.67,16.81-9.45,25.35-13.91c10.77-5.62,21.82-7.8,33.85-3.37c10.11,3.73,20.55,6.56,30.91,9.57&#10;&#9;&#9;C577.46,500.21,579.44,501.62,582.53,499.77z M597.24,535.84c3.2,0,5.73,0.28,8.18-0.05c8.09-1.1,16.11-0.98,24.1,0.65&#10;&#9;&#9;c10.22,2.09,19.88,5.93,29.6,9.57c1.62,0.61,3.32,2.12,5.31,0.69C645.23,534.65,610.05,528.7,597.24,535.84z M825.92,561.33&#10;&#9;&#9;c-5.55-14.64-11.17-29.25-24.12-39.4C809.57,535.23,817.82,548.24,825.92,561.33z M803.59,749.25&#10;&#9;&#9;c4.81-7.49,10.44-14.28,16.75-20.46c6.31-6.18,12.84-12.13,19.57-18.47C830.11,712.6,803.99,740.41,803.59,749.25z M827.9,291.06&#10;&#9;&#9;c0.86,2.68,0.72,4.9,0.7,7.11c-0.09,8.89-1.25,17.66-3.01,26.37c-0.24,1.18-1,2.96,0.66,3.44c1.74,0.51,1.93-1.43,2.32-2.57&#10;&#9;&#9;c3-8.78,3.42-17.9,2.92-27.04C831.37,296.04,831.61,292.95,827.9,291.06z M785.26,740.88c-7.38,5.89-20.99,33.15-19.82,39.58&#10;&#9;&#9;C771.43,766.96,777.68,753.6,785.26,740.88z M496.37,506.8c-0.07,0.32-0.15,0.64-0.22,0.97c5.85,1.48,11.63,3.6,17.57,4.26&#10;&#9;&#9;c6.4,0.71,9.96,7.27,17.29,7.32c-5.66-5.58-12.1-8.55-18.19-12.02c-0.58-0.33-1.61-0.26-1.37,0.64c0.55,2.02-0.18,1.67-1.57,1.24&#10;&#9;&#9;C505.46,507.86,500.98,506.87,496.37,506.8z" style="fill: rgb(238, 238, 238);"/>
	<path class="st2" d="M181.44,511.16c2.64-0.9,5.27-1.29,7.87,0.11c0.76,1.68,2.31,1.37,3.72,1.56c2.19,0.29,5.59,0.09,6.29,1.32&#10;&#9;&#9;c2,3.56,5.73,6.7,4.38,11.64c-0.49,1.79-0.02,5.59,0.67,8.09c2.26-6.99,2.69-13.29-2.39-19.75c7.65,0.75,14.11,1.38,20.57,2.03&#10;&#9;&#9;c21.3,2.13,42.05,7.18,62.96,11.44c15.71,3.19,31.51,5.98,47.59,6.99c8.76,0.55,17.59,0.14,26.29,1.58&#10;&#9;&#9;c0.29,1.94,2.06,1.81,3.32,2.29c11.51,4.37,23.2,8.17,35.06,11.66c-11.59-0.45-23-3.05-34.66-2.9&#10;&#9;&#9;c28.95,8.03,59.44,9.37,87.49,20.94c-8.28,1.21-16.5,2.82-24.53-0.82c-2.14-0.97-4.33,0.76-6.57,0.05&#10;&#9;&#9;c-0.62-0.2-0.94,0.79-0.94,1.49c0.01,1.38,1.15,1.74,2.12,2.06c5.15,1.71,10.38,3.2,15.5,5.02c16.01,5.68,32.85,6.96,49.45,9.47&#10;&#9;&#9;c9.6,1.46,19.11,2.94,28.12,6.8c6.32,2.71,7.04,4.44,3.66,10.52c-0.89,1.61-2.19,2.99-3.26,4.5c-0.48,0.68-0.67,1.51-0.26,2.26&#10;&#9;&#9;c0.54,0.97,1.32,0.38,2.08,0.2c1.66-0.39,3.35-0.68,5.03-1c-2.51,2.33-5.06,4.63-7.5,7.03c-0.44,0.43-2.23,1.34-0.57,1.87&#10;&#9;&#9;c3.45,1.1,0.67,1.98,0.03,2.69c-2.39,2.66-5.34,4.83-7.75,8.48c2.78-0.36,3.78-2.02,5.11-3.12c5.59-4.63,9.93-10.64,16.14-14.59&#10;&#9;&#9;c2.24,0.33,4.15-0.71,6.11-1.48c15.14-5.88,30.86-9.52,46.86-12.05c0.51-0.08,1.05-0.01,1.93-0.01c-1.14,2.18-2.97,3.25-4.53,4.58&#10;&#9;&#9;c-0.84,0.72-2.36,1.56-1.16,2.83c0.87,0.92,2-0.25,2.75-0.82c7.75-5.91,16.34-10.38,24.98-14.81c9.93-5.1,20.29-8.24,31.54-8.61&#10;&#9;&#9;c9.52-0.31,16.79,5.06,24.76,8.89c12.8,6.15,19.76,17.67,27.35,28.69c0.64,0.93,0.75,2.38,2.31,2.45&#10;&#9;&#9;c3.39,6.87,5.71,14.14,7.32,21.59c4.39,20.32,5.01,41.01,5.49,61.67c0.33,14.21,0.35,28.45-0.59,42.66&#10;&#9;&#9;c-0.09,1.32-0.92,3.15,1.08,4.16c1.61-5.25,0.82-10.68,2.29-15.79c2.26,0.22,2.89-1.54,3.67-3.06c2.04-3.98,5.41-6.48,9.32-8.33&#10;&#9;&#9;c2.52-1.19,4.98-0.95,7.03,1c5.56,5.29,9.33,11.27,9.41,19.44c0.09,9.64-1.91,18.98-2.91,28.46c-0.78,7.37-2.02,14.78-0.61,22.21&#10;&#9;&#9;c0.8,4.2,2.7,4.9,5.92,2.23c1.42-1.18,2.65-2.58,3.88-3.96c4.29-4.82,10.08-6.81,16.05-8.27c3.12-0.76,4.99,1.99,7.23,3.54&#10;&#9;&#9;c1.34,0.92,1.91,3.05,4.11,2.6c-0.3,1.94-0.75,3.86-0.85,5.81c-0.09,1.82-1.25,4.63,1.2,5.07c1.72,0.31,1.19-2.63,1.8-4.06&#10;&#9;&#9;c0.15-0.35,0.11-0.77,0.16-1.16c1.55-0.22,2.07,1.81,3.6,1.63c1.16,3.95,2.31,7.9,3.47,11.85c-3.04,3.84-7.63,5.63-11.38,8.54&#10;&#9;&#9;c-15.15,11.72-31.26,22-48.41,30.52c-20.02,9.94-41.18,17.07-62.24,24.4c-0.81,0.28-1.71,0.95-2.35-0.23&#10;&#9;&#9;c0.04-1.05,0.86-1.3,1.49-1.76c7.87-5.65,15.62-11.37,22.63-18.16c7.37-7.14,13.39-15.47,20.79-22.54&#10;&#9;&#9;c4.64-4.43,8.17-9.74,11.85-14.93c0.64-0.91,2.01-1.91,0.65-3.04c-1.03-0.85-1.9,0.28-2.72,0.94c-7.22,5.81-14.4,11.64-22.15,16.79&#10;&#9;&#9;c-10.65,7.08-22.09,12.71-33.18,18.99c-21.45,12.14-43.82,22.18-66.84,30.88c-1.04,0.39-2,0.94-2.64-0.51&#10;&#9;&#9;c7.15-5.28,14.7-10.08,20.89-16.53c6.25-6.51,12.37-13.16,18.27-19.99c5.64-6.52,12.02-12.51,16.72-20.7&#10;&#9;&#9;c-2.17,0.26-2.8,1.19-3.41,1.99c-5.6,7.29-12.15,13.71-18.61,20.18c-7.59,7.59-14.72,15.73-23.88,21.6&#10;&#9;&#9;c-0.3-1.55,0.71-2.45,1.65-3.4c4.3-4.32,8.74-8.51,12.51-13.33c1.26-1.61,3.41-3.05,1.8-5.46c-1.77-2.65-3.8-0.85-5.55,0.12&#10;&#9;&#9;c-6.01,3.36-12.09,6.63-17.9,10.3c-19.88,12.57-42.08,19.06-64.51,25c-1.02,0.27-2.05,0.85-2.71-0.55&#10;&#9;&#9;c12.31-4.46,23.69-10.47,33.11-19.75c-2.47-0.2-4.05,1.48-5.75,2.64c-15.41,10.46-32.84,15.13-50.87,18.34&#10;&#9;&#9;c-15.21,2.71-30.28,6.22-45.51,8.74c-21.34,3.54-42.8,3.43-64.39,1.93c-21.14-1.47-41.4-6.61-61.63-12.27&#10;&#9;&#9;c-17.18-4.8-32.82-12.9-47.82-22.31c-2.21-1.38-4.03-3.46-5.82-5.41c-15.64-17.05-21.77-37.26-19.72-60.11&#10;&#9;&#9;c0.15-1.62-0.88-3.76,0.85-4.83c2.56-1.6,5.38-3.77,8.12-3.82c2.64-0.05,4.36,3.85,4.42,6.01c0.08,3,1.2,6.06,0.28,9.1l0.08-0.13&#10;&#9;&#9;c-2.46-1.93-4.92-3.86-7.41-5.82c-1.25,1.54,0.17,2.07,0.75,2.72c5.06,5.67,11.16,10.29,16.46,15.69&#10;&#9;&#9;c18.71,19.07,42.2,28.44,67.84,32.65c16.59,2.73,33.17,6.47,50.16,5.87c17.39-0.62,34.66-2.44,51.88-5.13&#10;&#9;&#9;c17.17-2.68,34.11-5.99,50.28-12.43c18.46-7.35,36.13-16.4,53.3-26.36c9.9-5.74,17.03-14.67,24.66-23.03&#10;&#9;&#9;c15.37-16.83,23.05-37.45,30.29-58.47c3.58-10.41,7.35-20.73,10.04-31.41c2.67-10.56,4.98-21.21,6.56-32&#10;&#9;&#9;c1.57-10.71,3.11-21.43,4.62-32.14c0.22-1.57,0.21-3.18,0.58-4.82c1.74,3.64,1.78,7.67,2.32,11.56c2.8,20.28,2.46,40.53,0.6,60.92&#10;&#9;&#9;c-2.78,30.58-15.78,57.49-28.71,84.51c-7.41,15.49-16.03,30.35-24.24,45.41c-3.44,6.3-7.32,12.16-11.97,17.59&#10;&#9;&#9;c-0.57,0.67-2.42,1.43-0.81,2.74c1.26,1.02,2.15-0.08,2.98-0.95c6.3-6.53,11.19-14.12,16.06-21.7c19.26-30,34.92-61.82,48.32-94.84&#10;&#9;&#9;c3.14-7.73,4.22-15.78,6.13-23.71c0.15-0.64,0.27-1.39,0.07-1.98c-3.43-10.11,0.19-20.18,0.46-30.23&#10;&#9;&#9;c0.39-14.49-0.88-28.68-3.4-42.86c-0.12-0.65-0.09-1.32-0.13-1.98c0.45,0,0.9,0,1.35,0c1.77,7.22,3.64,14.42,5.27,21.67&#10;&#9;&#9;c2.18,9.67,2.83,19.59,4.55,29.33c2.71,15.32,1.99,30.9,4.06,46.29c1.78-0.63,1.46-1.97,1.31-3.1c-1.35-9.86,0.04-19.79-0.7-29.65&#10;&#9;&#9;c-1.8-24.21-3.82-48.43-12.96-71.28c-3.28-8.21-8.8-13.4-18.57-14.32c-10.38-0.98-20.3,1.05-30.4,2.08&#10;&#9;&#9;c-0.3,0.03-0.56,0.49-1.49,1.35c10.3,0.18,19.9-1.71,30-0.48c-13.98,10.93-26.98,22.49-42.33,30.91&#10;&#9;&#9;c-8.41,4.61-16.65,9.53-24.87,14.47c-1.35,0.81-4.44,1.23-3.42,3.21c0.78,1.5,2.91-0.67,4.26-1.43&#10;&#9;&#9;c10.64-6.04,21.22-12.19,31.82-18.29c0.54-0.31,1.11-0.56,1.97-0.99c0.25,2.25-1.43,2.66-2.41,3.41&#10;&#9;&#9;c-10.55,8.11-22.42,14.12-33.68,21.1c-12.95,8.04-25.28,17.13-39.05,23.77c-17.8,8.58-36.81,13.74-55.89,18.5&#10;&#9;&#9;c-28.94,7.21-58.37,10.17-88.18,9.63c-10.01-0.18-19.79-2.24-29.68-3.39c-20.79-2.41-40.91-7.6-60.86-13.68&#10;&#9;&#9;c-11.11-3.39-21.27-8.91-31.66-13.94c-0.69-0.33-1.3-0.93-1.81-1.52c-8.86-10.23-15.18-21.73-17.61-35.18&#10;&#9;&#9;c-0.06-0.34,0.05-0.71,0.14-1.64c22.74,19.06,48.71,29.91,77.58,33.94c-9.98-3.75-20.45-6.15-30.37-10.15&#10;&#9;&#9;c-9.95-4.01-19.83-8.21-28.82-14.69c1.49-1.09,2.33-0.26,3.17,0.17c22.3,11.4,46.23,17.52,70.84,20.73&#10;&#9;&#9;c15.8,2.06,31.79,3.55,47.77,2.57c28.33-1.74,56.09-6.67,83.25-15.13c16.13-5.02,31.59-11.45,46.5-19.31&#10;&#9;&#9;c1.69-0.89,3.62-1.53,4.88-3.32c-1.52-1.21-2.79-0.2-3.92,0.39c-25.85,13.62-53.69,21.5-82.04,27.41&#10;&#9;&#9;c-24.07,5.02-48.43,7.39-73.21,5.58c-23.93-1.75-47.41-5.3-70.05-13.2c-13.2-4.61-26.21-9.91-38.09-17.43&#10;&#9;&#9;c-4.7-2.97-8.69-7.03-12.51-11.11c-9.03-9.64-18.79-18.48-29.93-25.55c-4.79-3.04-7.21-7.08-8.68-12.11&#10;&#9;&#9;c-0.99-3.39-1.99-6.79-2.21-10.62c2.44,1.1,3.46,2.55,3.53,5.18c0.25,9.31,6.76,15.18,16.12,14.82c2.34-0.09,2.38,2.84,4.86,3.33&#10;&#9;&#9;c-0.83-3.91-3.19-6.7-5.44-9.43c-2.88-3.48-5.81-6.97-9.11-10.05c-13.44-12.55-22.86-27.92-31.3-43.99&#10;&#9;&#9;c-3.82-7.27-8.05-14.38-10.37-22.33c-1.62-5.53-1.22-5.55,4.45-6.09c10.47-0.99,20.92-1.16,31.41-0.77&#10;&#9;&#9;C179.79,512.8,181.71,513.63,181.44,511.16z M392.04,619.21c7.81,0.18,11.17-4.7,8.21-11.98c-0.34-0.85-0.7-1.71-1.2-2.48&#10;&#9;&#9;c-5.16-7.88-12.28-13.15-21.5-15.05c-3.84-0.79-8.16-0.92-10.92,2.91c-2.82,3.91-1.22,7.68,0.58,11.55&#10;&#9;&#9;c1.86,4.01,5.61,5.93,8.73,8.44C380.57,616.35,385.82,619.11,392.04,619.21z M447.91,696.25c-19.93,4.45-39.82,8.8-60.32,9.13&#10;&#9;&#9;c-20.61,0.33-41.19-0.15-61.63-3.25c-20-3.04-39.62-7.95-59.35-12.24c41.51,16.95,84.87,20.85,129.13,17.89&#10;&#9;&#9;C413.7,706.56,431.07,702.51,447.91,696.25z M256.07,646.28c15.7,8.64,69.72,26.64,131.59,17.51c6.66-0.98,13.58-1.27,19.59-5.09&#10;&#9;&#9;c-25.51,3.7-50.98,5.54-76.72,3.27C305.05,659.73,280.54,653.2,256.07,646.28z M458.42,659.11c-16,6.61-32.38,12.07-49.18,16.21&#10;&#9;&#9;c-16.97,4.19-34.21,6.72-51.6,8.4C376.5,688.38,449.63,670.5,458.42,659.11z M460.48,685.08c31.15-8.58,59.91-22.31,85.77-41.94&#10;&#9;&#9;C519.03,659.87,490.6,674.1,460.48,685.08z M399.16,591.33c0.22,1.7,1.4,2.62,2.26,3.7c3.64,4.55,7.13,9.2,10.05,14.25&#10;&#9;&#9;c3.45,5.95,6,11.97,0.36,18.13c-0.45,0.5-0.75,1.24-0.17,1.77c0.76,0.71,1.46,0.04,2.08-0.4c3.32-2.36,4.45-5.9,4.6-9.67&#10;&#9;&#9;C418.64,611.63,406.68,594.34,399.16,591.33z"/>
	<path class="st3" d="M518.24,879.16c0.66,1.4,1.69,0.82,2.71,0.55c22.43-5.94,44.63-12.43,64.51-25c5.81-3.68,11.89-6.94,17.9-10.3&#10;&#9;&#9;c1.75-0.98,3.78-2.77,5.55-0.12c1.61,2.41-0.54,3.85-1.8,5.46c-3.78,4.81-8.21,9.01-12.51,13.33c-0.95,0.95-1.95,1.85-1.65,3.4&#10;&#9;&#9;c-0.18,0.19-0.34,0.41-0.55,0.57c-32.92,23.84-68.84,40.92-108.98,48.62c-3.25,0.62-6.76,0.69-10.3,2.49&#10;&#9;&#9;c2.26,0.98,4.01,0.73,5.65,0.56c14.88-1.6,29.55-4.37,43.78-9.05c21.52-7.07,41.41-17.54,60.43-29.74c0.64,1.45,1.59,0.9,2.64,0.51&#10;&#9;&#9;c23.02-8.7,45.39-18.74,66.84-30.88c11.09-6.28,22.53-11.9,33.18-18.99c7.74-5.15,14.93-10.98,22.15-16.79&#10;&#9;&#9;c0.82-0.66,1.69-1.79,2.72-0.94c1.36,1.13-0.01,2.13-0.65,3.04c-3.67,5.19-7.21,10.5-11.85,14.93&#10;&#9;&#9;c-7.4,7.07-13.42,15.41-20.79,22.54c-7.01,6.78-14.76,12.51-22.63,18.16c-0.63,0.46-1.45,0.71-1.49,1.76&#10;&#9;&#9;c0.64,1.18,1.53,0.51,2.35,0.23c21.06-7.33,42.22-14.46,62.24-24.4c17.15-8.52,33.26-18.8,48.41-30.52&#10;&#9;&#9;c3.75-2.9,8.34-4.7,11.38-8.54c1.72,2.93,2.64,6.3,4.96,8.89c0.89,1,1.97,2.23,3.33,1.25c1.35-0.97,0.05-2.12-0.44-3.11&#10;&#9;&#9;c-1.33-2.71-2.88-5.33-3.55-8.33c0.74-0.1,1.47-0.2,2.21-0.3c12.25,3.33,24.04,8.11,36.9,11.11c-6.6,7.39-12.79,14.4-19.06,21.34&#10;&#9;&#9;c-16.8,18.62-34.64,36.07-55.35,50.43c-19.27,13.36-40.31,23.12-62.18,31.22c-19.27,7.14-38.43,14.54-58.72,18.66&#10;&#9;&#9;c-35.16,7.15-70.67,9.16-106.42,8.71c-12.37-0.16-24.74-0.61-37.13-0.11c-12.1,0.49-23.69-2.99-35.36-5.56&#10;&#9;&#9;c-18.03-3.96-36.42-6.62-53.65-13.62c-21.2-8.61-41.61-18.75-60.04-32.51c0.18-0.21,0.36-0.41,0.54-0.62&#10;&#9;&#9;c11.77,4.31,23.31,9.2,35.56,12.22c13.47,3.32,27.04,5.4,40.89,5.85c20.25,0.66,39.37-4.1,57.95-11.68&#10;&#9;&#9;c5.06-2.06,5.11-1.95,7.44-4.66c-18.96,4.51-36.32,11.31-55.02,11.99c-19.06,0.7-37.62-1.75-55.83-7.1&#10;&#9;&#9;c-17.89-5.26-34.86-12.82-52.02-20.94c1.65-1.05,2.59-0.26,3.5,0.04c15.45,4.99,31.11,9.38,47.15,11.71&#10;&#9;&#9;c14.72,2.14,29.62,2.82,44.57,2.82c27.2,0,53.37-6.28,79.63-12.13c1.29-0.29,2.61-0.39,3.92-0.58c1.02,1.33,1.44,0.71,1.67-0.52&#10;&#9;&#9;c3.42-0.66,6.83-1.33,10.25-1.99c0.93,1.32,1.48,1.05,1.74-0.42c0.73-0.17,1.46-0.34,2.19-0.51c0.82,1.3,1.46,1.41,1.81-0.28&#10;&#9;&#9;c0.77-0.1,1.54-0.19,2.32-0.29c0.99,1.35,1.44,0.79,1.68-0.48c0.75-0.14,1.5-0.29,2.25-0.43c0.94,1.34,1.49,1.06,1.75-0.42&#10;&#9;&#9;C517.34,879.52,517.79,879.34,518.24,879.16z" style="fill: rgb(240, 240, 240);"/>
	<path class="st1" d="M700.19,405.5c1.96,0.04,1.62-1.17,0.78-1.93c-6.02-5.5-6.29-13.3-8.31-20.4c-0.07-0.24-0.26-0.44-0.49-0.83&#10;&#9;&#9;c-2.72,1.34-1.92,3.76-1.64,5.79c0.3,2.16,1.04,4.25,0.54,6.47l0.05-0.09c-0.82-0.13-1.49-1.34-2.46-0.31&#10;&#9;&#9;c-0.61,0.64-0.34,1.31,0.12,1.73c7.98,7.25,7.62,18.02,11.44,27.03c0.72,1.71,1.15,3.55,2,5.19c5.73,11.14,6.29,23.13,5.79,35.26&#10;&#9;&#9;c-0.12,2.83,1.19,6.71-0.89,8.18c-1.4,0.99-5.06-1.12-7.67-1.97c-1.87-0.61-3.77-1.26-5.5-2.19&#10;&#9;&#9;c-22.36-11.98-45.29-22.76-68.54-32.87c-2.9-1.26-2.99-2.67-2.06-5.04c10.1-25.76,20.08-51.58,34.35-75.45&#10;&#9;&#9;c0.57-0.96,1.48-1.81,1.04-4.36c-18.46,25.38-29.76,53.05-39.67,81.76c-3.12-1.34-6.84-2.96-10.59-4.51&#10;&#9;&#9;c-1.51-0.62-1.47-1.49-0.92-2.82c5.61-13.34,9.8-27.23,15.72-40.45c3.48-7.78,7.71-15.09,12.36-22.25&#10;&#9;&#9;c12.38-19.07,24.07-38.61,36.66-57.54c14.92-22.44,31.15-43.88,52.76-60.55c3.26-2.52,6.58-4.98,9.98-7.31&#10;&#9;&#9;c2.63-1.8,5.44-3.34,8.57-4.16c3.99-1.05,5.22-0.24,5.24,3.83c0.02,5.73-0.66,11.43-2.01,16.99c-2.23,9.17-5.31,18.08-8.16,27.07&#10;&#9;&#9;c-11.55,36.44-24.75,72.48-29.89,110.64c-1.46,10.85-1.05,21.79-0.52,32.7c0.14,2.79,0.35,5.57,0.18,8.45&#10;&#9;&#9;c-3.62-8.36-6.3-17.03-8.54-25.84L700.19,405.5z M701.03,285.34c0.21,0.2,0.41,0.4,0.62,0.6c0.07,0.98-0.78,2.37,0.49,2.83&#10;&#9;&#9;c1.22,0.44,1.67-0.99,2.27-1.81c1.1-1.49,2.16-3.01,3.28-4.49c9.76-12.84,21.16-24.21,32.04-36.05c1.26-1.38,2.84-2.65,2.58-5.23&#10;&#9;&#9;c-1.27,0.76-2.23,1.33-3.24,1.93c-0.48-3.03-0.49-3.04-2.71-1.47c-1.08,0.77-2.16,1.55-3.13,2.44&#10;&#9;&#9;c-17.11,15.68-32.07,33.25-45.93,51.83c-5.73,7.68-10.65,15.76-14.72,24.41c-0.47,1-1.17,2.02,0.2,2.69&#10;&#9;&#9;c0.97,0.48,1.21-0.57,1.61-1.21C682.47,309.06,691.61,297.1,701.03,285.34z" style="fill: rgb(238, 238, 238);"/>
	<path class="st4" d="M783.97,808.45c-0.74,0.1-1.47,0.2-2.21,0.3c-1.62-3.09-2.63-6.35-2.78-9.85c2.17-1.27,4.31-2.6,6.51-3.82&#10;&#9;&#9;c6.9-3.82,14.22-3.08,21.35-1.27c14.26,3.62,28.37,7.84,42.62,11.51c17.86,4.61,35.79,8.94,53.25,14.97&#10;&#9;&#9;c8.2,2.83,16.14,6.17,23.55,10.68c14.34,8.72,29.62,15.62,44.62,23.05c19.66,9.75,37.08,22.73,53.9,36.69&#10;&#9;&#9;c13.18,10.94,26.79,21.35,40.22,31.98c5.52,4.37,11.08,8.68,16.62,13.02c1.03,0.8,1.92,1.94,3.48,1.44&#10;&#9;&#9;c5.62,6.98,12.15,13.04,19.13,18.63c0.16,3.45,3.31,4.95,5,7.36c3.18,4.54,6.9,8.72,10.48,12.98c1.17,1.39,2.33,3.04,4.6,2.55&#10;&#9;&#9;c-0.02,4.43-1.54,5.38-5.5,3.01c-7.12-4.24-13.19-9.88-19.5-15.16c-34.29-28.71-69.92-55.63-107.08-80.49&#10;&#9;&#9;c-19.77-13.23-40.56-24.56-62.46-34.12c-25.58-11.17-51.76-20.61-77.98-29.99c-14.1-5.04-28.99-7.42-43.52-11.01&#10;&#9;&#9;c-6.41-1.59-12.8-3.33-19.28-4.55C787.44,806.09,783.89,803.76,783.97,808.45z"/>
	<path class="st4" d="M571.27,711.77c3.55,3.41,6.11,7.56,8.87,11.58c0.85,1.23,0.71,2.49,0.72,3.79c0.01,4.66-0.01,9.32-0.01,13.98&#10;&#9;&#9;c0,6.48,0,6.48,6.86,6.8c-2.73,7.28-5.25,14.67-10.1,20.67c-8.43,10.44-16.83,20.96-27.48,29.36c-6.42,5.07-13.95,8.11-21.08,11.88&#10;&#9;&#9;c-18.94,9.99-38.05,19.62-59.07,24.61c-15.09,3.59-30.43,5.71-45.8,7.64c-10.17,1.28-20.41,1.66-30.62,2.3&#10;&#9;&#9;c-13.92,0.87-27.45-2.3-41.11-4.25c-12.59-1.8-25.02-4.03-37.07-8.36c-17.56-6.32-32.24-17.01-46.05-29.15&#10;&#9;&#9;c-3.5-3.08-2.79-7.37-3.52-11.56c2.56,1.14,4.26,3.34,7.02,3.19c1.66-0.09,1.24,1.53,1.63,2.31c4.25,8.49,12.19,13.18,20.76,12.08&#10;&#9;&#9;c0.59,5.46,3.65,8.82,8.81,10.5c5.96,1.94,11.8,3.31,18.2,1.4c2.06-0.61,2.05-1.24,2.11-2.7c0.16-3.83-1.98-7.06-2.75-10.82&#10;&#9;&#9;c2.71-0.16,5.36,1.64,8.64-0.68c-2.07,6.69-0.45,12.72-1.81,18.55c-0.1,0.41,0.15,1.06,0.47,1.38c5.86,5.91,12.27,11.22,20.95,11.7&#10;&#9;&#9;c7.04,0.39,13.41-2.77,19.36-6.16c4.42-2.52,4.32-3.53,1.67-9.53c1.99-0.55,3.97-1.1,6.11-1.69c0.04,0.98,0.18,1.89,0.11,2.78&#10;&#9;&#9;c-0.6,7.05,2.85,11.19,9.18,13.77c13.28,5.42,25.24,2.64,34.1-8.37c1.2-1.5,2.98-3.06,1.46-5.47c-1.51-2.39-1.09-4.18,1.79-5.17&#10;&#9;&#9;c0.67-0.23,1.16-0.97,1.86-1.59c0.79,2.11-0.13,3.86-0.39,5.59c-0.54,3.66,1.14,5.7,4.22,7.13c10.4,4.85,20.84,3.89,31.12-0.12&#10;&#9;&#9;c4.91-1.91,7.73-6.29,10.05-10.84c0.37-0.74,0.48-2.02,0.08-2.67c-2.58-4.24,0.1-5.36,3.47-6.17c1.43,5.13,4.69,7.95,9.9,8.6&#10;&#9;&#9;c12.32,1.54,21.5-3.85,28.9-13.11c2.49-3.12,2.58-6.49,0.67-9.96c-3.39-6.16-6.78-12.41-11.67-17.46&#10;&#9;&#9;c-3.55-3.66-4.5-7.94-4.79-12.53c-0.28-4.48-0.06-8.98-0.06-14.11c6.53,6.02,11.24,12.94,17.1,18.76c3.38,3.36,3.9,7.02,3.53,11.39&#10;&#9;&#9;c-0.41,4.75-0.59,9.5-0.14,14.32c0.38,4.15,2.78,4.42,5.61,4.26c3.86-0.22,7.35-1.93,10.82-3.51c6.23-2.84,11.97-6.27,15.39-12.61&#10;&#9;&#9;c1.16-2.15,0.87-5.37,2.38-6.44c1.27-0.91,4.27-0.05,6.34-0.86c3.47-1.37,6.59-3.25,8.86-6.41c2.48-3.44,6.32-5.55,8.87-9.06&#10;&#9;&#9;c5.14-7.07,5.82-10.48,1.14-17.93c-2.81-4.47-3.55-9.25-3.99-14.2c-0.5-5.5-0.87-11.01-2.13-16.41&#10;&#9;&#9;C570.95,712.07,571.12,711.93,571.27,711.77z"/>
	<path class="st1" d="M203.5,817.96c0.78-1.72,3.38-1.58,3.93-4.23c-4.51,1.79-8.74,3.45-12.95,5.13&#10;&#9;&#9;c-15.46,6.17-31.42,11.01-46.69,17.65c-16.95,7.38-32.18,17.82-48.02,27.17c-1.01,0.6-2.09,1.09-3.14,1.64&#10;&#9;&#9;c-0.19-0.2-0.38-0.41-0.57-0.61c10.21-10.05,22.26-17.65,34.1-25.53c24.36-16.2,48.08-33.32,71.89-50.31&#10;&#9;&#9;c14.94-10.66,30.11-20.99,44.09-32.93c2-1.71,4.28-3.01,7.09-4.22c-0.19,8.93,1.17,17.42,4.3,25.56c0.85,2.2-1.15,1.95-1.8,2.19&#10;&#9;&#9;c-3.27,1.19-6.36,2.51-8.81,5.15c-1.13,1.21-2.29,2.53-2.37,4.04c-0.23,4.14-2.99,5.76-6.19,7.33c-5.59,2.74-11.1,5.63-16.58,8.57&#10;&#9;&#9;c-1.17,0.63-2.95,0.81-3,3.02c7.44-1.24,14-4.46,20.45-7.97c4.16-2.26,4.13-2.33,4.14,2.56c-8.62,4.63-17.32,9.11-26.66,12.14&#10;&#9;&#9;C212.38,815.73,208.3,818.2,203.5,817.96z" style="fill: rgb(238, 238, 238);"/>
	<path class="st4" d="M370.87,739.29c-3.95,16.71-5.46,34.23-15.97,48.73c-4.41-13.3-12.04-25.5-16.41-39.13&#10;&#9;&#9;c-2.05-6.4-2.93-12.84-3.04-19.5c-0.03-2.07,0.83-3.16,2.5-4.02c10.08-5.18,26.99-5.88,37.33,3.36c2.44,2.18,2.28,4.52,1.85,7.41&#10;&#9;&#9;c-1.04,6.9-3.41,13.3-6.43,19.56C370.97,750.25,371.97,744.9,370.87,739.29z"/>
	<path class="st4" d="M452.89,761.42c-8.17-10.42-15.31-21.35-18.58-34.46c-1.13-4.51,0.6-7.51,4.12-9.27&#10;&#9;&#9;c7.08-3.55,14.55-6.23,22.59-6.61c5.12-0.24,8.91,2.94,12.89,5.54c1.21,0.79,0.67,1.92,0.63,2.89c-0.3,9.02-1.87,17.84-3.98,26.59&#10;&#9;&#9;c-2.44,10.15-4.74,20.33-8.76,31.19c-3.04-14.05-9.12-25.79-15.29-37.51c1.21,7.45,4.35,14.23,7.03,21.16&#10;&#9;&#9;C453.31,761.09,453.09,761.25,452.89,761.42z"/>
	<path class="st2" d="M423.05,738.02c-0.69-2.86,0.27-6.08-2.42-8.72c1.24,17.94-5.23,34.35-9.06,51.4&#10;&#9;&#9;c-9.71-15.2-21.16-29.1-24.67-47.15c-1.31-6.76,0.73-10.45,8.27-12.96c10.07-3.35,19.76-2.52,28.69,3.9&#10;&#9;&#9;c1.58,1.13,2.09,2.06,1.78,3.83c-0.57,3.26-1.01,6.54-1.5,9.81C423.77,738.09,423.41,738.05,423.05,738.02z"/>
	<path class="st4" d="M398.67,790.07c1.59,0.67,2.27,2.21,3.02,3.53c5.37,9.4,10.63,18.85,15.92,28.29c1.5,2.68,1.13,4.68-1.36,6.87&#10;&#9;&#9;c-3.39,2.98-6.59,5.69-11.11,7.18c-8.51,2.79-15.75,0.33-22.89-3.84c-1.91-1.11-2.58-2.73-2.71-4.93&#10;&#9;&#9;c-0.39-6.31,1.38-12.32,2.38-18.43c1.71-10.47,5.65-20.51,6.19-31.41c8.14,12.94,11.37,28.3,20.28,40.72&#10;&#9;&#9;c0.38-0.17,0.76-0.34,1.14-0.51c-3.75-9.03-7.49-18.06-11.24-27.09C398.42,790.33,398.54,790.2,398.67,790.07z"/>
	<path class="st4" d="M436.94,809.05c1.65-11.84,0.47-23.67-0.96-36.7c4.9,5.94,9.05,11,13.23,16.04&#10;&#9;&#9;c6.43,7.75,12.28,15.91,17.45,24.57c1.49,2.49,1.26,4.27-0.25,6.74c-4.36,7.11-11.42,8.49-18.7,9.47&#10;&#9;&#9;c-5.72,0.77-11.32,0.34-16.65-2.27c-2.33-1.14-4.21-2.32-3.5-5.33c2.86-12.15,5.88-24.28,6.7-36.87&#10;&#9;&#9;C436.02,792.77,435.09,801.03,436.94,809.05z"/>
	<path class="st4" d="M502.05,745.09c-6.25-8.35-12.65-16.59-17.82-25.71c-2.12-3.74-2.62-6.91,0.26-10.65&#10;&#9;&#9;c4.07-5.3,8.73-9.33,15.19-11.57c9.98-3.47,18.68,5.06,18.33,14.92c-0.53,14.64-4.15,28.72-6.8,42.98&#10;&#9;&#9;c-0.09,0.47-0.5,0.88-0.88,1.54c-5.18-11.44-7.79-23.82-15.85-33.57c2.26,7.33,6.48,13.85,8.24,21.36&#10;&#9;&#9;C502.49,744.62,502.27,744.85,502.05,745.09z"/>
	<path class="st4" d="M308.59,752.96c1.38-4.75,2.76-9.51,4.13-14.26c-0.35-0.12-0.7-0.24-1.05-0.36&#10;&#9;&#9;c-3.04,5.33-4.7,11.22-6.65,17.03c-2.01,5.97-2.97,12.14-3.81,18.92c-8.07-17.08-13.15-34.08-12.13-52.53&#10;&#9;&#9;c0.16-2.89,0.59-4.2,3.7-5.01c5.47-1.42,10.79-2.41,16.38-0.98c2.97,0.76,5.81,1.61,8.26,3.61c2.28,1.87,4.69,3.71,5.96,6.34&#10;&#9;&#9;c1.61,3.32-2.03,4.92-3.31,7.13c-3.89,6.72-7.25,13.7-10.88,20.55C309.02,753.24,308.81,753.09,308.59,752.96z"/>
	<path class="st4" d="M485.11,760.6c8.55,11.87,17.88,21.9,24.58,33.87c2.9,5.19,2.68,8.15-1.89,12.03&#10;&#9;&#9;c-6.83,5.79-14.44,9.73-23.92,8.42c-4.88-0.67-6.66-2.42-7.02-7.32c-0.42-5.69,1.63-10.91,2.86-16.27c0.9-3.92,2.13-7.76,3.32-12&#10;&#9;&#9;c0.88,5.16-1.47,9.94,0.32,14.69C486.58,783.4,484.42,772.47,485.11,760.6z"/>
	<path class="st4" d="M350.85,798.73c5.81,8.32,12.35,16.11,17.7,24.77c1.73,2.79,1.05,4.2-1.45,5.48&#10;&#9;&#9;c-4.84,2.46-9.95,4.29-15.15,5.71c-4.23,1.15-7.95-1.04-11.58-3c-9.43-5.1-10.5-7.36-8.71-17.66c1.99-11.43,4.4-22.79,6.07-34.46&#10;&#9;&#9;c5.54,14.21,13.4,27.12,21.41,39.97c-1.97-7.24-5.84-13.59-9.01-20.25C350.37,799.1,350.61,798.91,350.85,798.73z"/>
	<path class="st4" d="M537.62,718.98c-0.23,0.13-0.62,0.42-0.66,0.38c-5.66-6.11-11.38-12.28-12.63-20.94&#10;&#9;&#9;c-0.56-3.84,0.37-7.91,3.25-10.65c5.27-5.02,11.34-8.66,19.1-7.95c3.89,0.36,5.1,3.28,5.29,6.38c0.49,7.82-0.09,15.63-1.05,23.4&#10;&#9;&#9;c-0.98,7.97-2.27,15.89-4.17,24.81c-4.9-11.12-9.62-21.48-16.86-30.4c1.09,5.32,5.32,9.06,7.13,14.02&#10;&#9;&#9;C536.93,718.54,537.13,718.85,537.62,718.98z"/>
	<path class="st4" d="M521.83,745.75c8.34,8.51,16.29,15.92,22.85,24.62c4.8,6.37,4.29,11.34-1.92,16.48&#10;&#9;&#9;c-5.5,4.55-11.68,8.03-18.65,9.91c-4.5,1.21-5,0.96-4.75-3.53c0.74-13.23,1.66-26.45,2.46-39.68&#10;&#9;&#9;C521.95,751.32,521.83,749.09,521.83,745.75z"/>
	<path class="st4" d="M203.5,817.96c4.81,0.25,8.88-2.23,13.23-3.64c9.34-3.03,18.04-7.51,26.66-12.14&#10;&#9;&#9;c0.37,3.56,0.38,7.21,1.22,10.66c0.73,3.01-0.59,4.03-2.9,4.89c-7.21,2.71-14.77,4.17-22.23,5.88&#10;&#9;&#9;c-31.66,7.24-62.7,16.37-92.44,29.61c-0.04-0.52-0.07-1.04-0.11-1.56c12.53-7.73,26.02-13.35,39.76-18.47&#10;&#9;&#9;C179.14,828.55,191.51,823.72,203.5,817.96z"/>
	<path class="st4" d="M553.89,745.06c1.15,4.06,1.04,7.63,3.6,10.59c-1.04-11.62-2.08-23.24-3.2-35.76&#10;&#9;&#9;c9.12,8.71,17.36,16.97,22.7,27.66c0.78,1.56,0.67,2.94,0.25,4.56c-0.98,3.75-3.19,6.84-5.99,9.13&#10;&#9;&#9;c-5.03,4.13-8.39,10.3-15.19,12.35c-2.51,0.75-3.32,0.42-3.22-2.29C553.14,762.82,552.37,754.3,553.89,745.06z"/>
	<path class="st4" d="M570.34,700.7c-3.84-5.63-7.6-11.33-11.43-16.97c-5.55-8.18,0.27-21.33,10.42-24.55&#10;&#9;&#9;c7.63-2.42,10.76-0.18,10.76,7.91c0,14.87-1.01,29.67-3.37,44.44c-3.14-2.54-2.58-6.27-3.46-9.58c-1.71-6.46-4.7-12.46-8.25-18.13&#10;&#9;&#9;c-1.29-2.07-2.17-4.5-4.73-5.7c3.14,7.58,8.04,14.32,10.72,22.1C570.79,700.38,570.57,700.54,570.34,700.7z"/>
	<path class="st4" d="M274.2,755.83c-1.4-9.74-1.91-19.52-2.24-29.35c-3.35,9.37-1.71,19.02-1.12,29.19&#10;&#9;&#9;c-7.59-15.02-10.46-30.06-6.47-46.05c0.75-3.02,3.65-4.67,7.12-3.74c6.1,1.64,9.79,6.07,12.74,11.29c0.79,1.41-0.1,2.53-0.66,3.7&#10;&#9;&#9;C278.3,731.96,276.03,743.81,274.2,755.83z"/>
	<path class="st4" d="M600.91,684.72c-2.42-10.01-5.66-19.65-10.45-28.93c-1.78,1.83,0.15,2.96,0.33,4.3&#10;&#9;&#9;c0.19,1.37,1.4,2.49,1.24,4.06c-7.18-6.54-9.11-13.02-6.37-21.32c1.46-4.43,9.85-8.98,14.22-7.53c2.64,0.88,4.44,2.74,4.97,5.65&#10;&#9;&#9;c1.08,5.97,0.18,11.95-0.31,17.84C603.82,667.43,603.35,676.15,600.91,684.72z"/>
	<path class="st4" d="M308.3,770.62c-0.8,14.14,5.39,26.46,10.8,38.98c3.63,8.4,3.32,8.94-6.05,8.5c-3.43-0.16-6.75-1.07-9.9-2.43&#10;&#9;&#9;c-4-1.73-5.79-4.69-5.14-9.13c1.78-12.13,5.06-23.88,9.4-35.33C307.54,770.87,307.54,770.39,308.3,770.62z"/>
	<path class="st4" d="M583.96,643.87c-3.65,5.57,0.6,10.72-1.19,16.86c-2.62-5.23-6.56-6.61-11.16-5.48&#10;&#9;&#9;c-6.04,1.48-11.44,4.11-14.44,10.08c-2.52,4.99-2.56,5.14-1.96,19.63c-1.85-4.64-3.43-8.45-8.69-8.46&#10;&#9;&#9;c-4.17-0.01-8.06,0.23-11.8,2.52c-5.34,3.27-10.37,6.29-12.6,12.93c-0.82,2.44-3.67,4.53-3.9,8.77c-3.55-5.44-8.16-7.42-12.83-8.3&#10;&#9;&#9;C531.11,676.52,557.11,660.46,583.96,643.87z"/>
	<path class="st4" d="M448.43,763.16c4.05,5.49,8.09,10.98,11.55,16.89c1.96,3.34,2.77,0.27,3.95-1.45&#10;&#9;&#9;c3.85,4.84,7.51,9.51,11.26,14.1c0.8,0.97,0.7,1.7,0.4,2.84c-0.77,2.92-1.32,5.91-1.79,8.9c-0.45,2.84-2.69,3.91-4.85,4.67&#10;&#9;&#9;c-2.37,0.84-2.54-1.83-3.38-3.07c-4.08-6.02-8.01-12.19-12.98-17.5c-3.05-3.26-3.87-6.96-3.99-11.1&#10;&#9;&#9;c-0.15-4.76-1.48-9.51-0.16-14.29L448.43,763.16z"/>
	<path class="st4" d="M350.57,783.16c0.96,2.54,1.97,5.06,2.85,7.63c0.71,2.1,1.62,2.22,2.79,0.42c1.77-2.74,3.46-5.52,5.38-8.59&#10;&#9;&#9;c5.24,7.09,10.38,14.03,15.52,20.97c1.47,1.98,3.35,3.83,1.93,6.93c-6.41-7.05-10.6-15.63-16.95-23c-0.59,2.97,1.22,4.6,2.42,6.36&#10;&#9;&#9;c4.22,6.22,8.47,12.42,12.95,18.45c1.59,2.14,0.68,3.39-0.78,4.58c-3.42,2.78-7.5,2.02-10.1-1.68&#10;&#9;&#9;c-4.56-6.48-9.44-12.73-13.52-19.55C349.52,789.79,349.44,789.84,350.57,783.16z"/>
	<path class="st4" d="M402.16,775.08c8.22,10.24,16.21,20.09,24.05,30.06c2.52,3.21,0.94,8.84-2.59,10.53&#10;&#9;&#9;c-1.3,0.62-2.56,1.35-4.06,2.16C412.64,804.26,400.87,792.75,402.16,775.08z"/>
	<path class="st4" d="M584.57,719.11c0.77,6.44,1.54,12.88,2.3,19.32c0.37-0.02,0.74-0.04,1.11-0.05c0-3.94,0.51-7.96-0.12-11.79&#10;&#9;&#9;c-1.01-6.23-1.18-12.56-2.72-18.75c-0.72-2.87,0.37-6.2,0.68-9.91c4.5,6.9,8.69,13.35,12.9,19.79c0.57,0.87,0.5,1.64,0.12,2.6&#10;&#9;&#9;c-3.12,7.8-6.16,15.63-9.25,23.44c-0.83,2.11-2.6,2.43-4.54,2.14c-2.28-0.33-1.83-2.1-1.88-3.68&#10;&#9;&#9;C582.93,734.51,583.83,726.85,584.57,719.11z"/>
	<path class="st4" d="M277.58,768.95c2.03,5.99,2.53,11.49,5.34,16.26c0.53-4.19-2.08-7.97-1.69-12.7&#10;&#9;&#9;c4.81,10.23,9.44,19.95,13.92,29.73c1.02,2.23,0.91,3.94-2.53,3.92c-8.74-0.06-16.77-7.76-17.1-16.5&#10;&#9;&#9;C275.27,782.96,276.29,776.43,277.58,768.95z"/>
	<path class="st4" d="M320.28,768.38c1.08,5.1,2.07,10.22,3.26,15.29c0.93,3.94,2.18,7.81,4.06,11.42c0.34,0.66,0.83,1.67,1.73,1.29&#10;&#9;&#9;c1.22-0.52,0.5-1.47,0.15-2.3c-1.62-3.85-2.8-7.83-4-12.99c2.11,2.61,3.49,4.36,4.92,6.07c2.67,3.18,1.14,6.72,0.91,10.14&#10;&#9;&#9;c-0.04,0.65-0.35,1.27-0.52,1.91c-0.51,1.95,0.9,4.79-2.63,5.31c-3.72,0.55-8.25-1.05-9.37-3.73c-1.52-3.63-2.64-7.43-4.19-11.05&#10;&#9;&#9;c-0.62-1.43-0.11-2.57,0.2-3.74c1.56-5.83,3.24-11.63,4.88-17.44C319.88,768.5,320.08,768.44,320.28,768.38z"/>
	<path class="st4" d="M255.45,715.91c-2.59,5.33-0.78,10.96-1.65,16.3c-1.87-5.12-2.98-13.65-1.92-19.07&#10;&#9;&#9;c0.71-3.67,0.12-7.42,1.21-11.06c0.57-1.88,1.54-3.26,3.27-3.58c2.47-0.46,4.28,1.08,5.67,2.97c0.97,1.32,1.88,2.36,0.72,4.48&#10;&#9;&#9;c-2.58,4.7-2.66,10.16-3.09,15.37c-0.43,5.26,0.04,10.51,0.85,15.81c0.65,4.28-0.46,8.84-1.08,13.31&#10;&#9;&#9;C256.88,739.1,256.96,727.41,255.45,715.91z"/>
	<path class="st4" d="M533.37,736.12c4.52,4.27,8.98,8.6,13.57,12.8c2,1.84,2.83,3.93,2.77,6.63c-0.12,5.17-0.03,10.34-0.03,16.75&#10;&#9;&#9;c-3.77-5.81-8.36-9.66-11.24-14.9c0.18-0.15,0.36-0.3,0.54-0.46c1.94,0.68,1.79,0.16,1.38-1.63c-1.39-6.02-4.28-11.38-6.86-16.88&#10;&#9;&#9;c-0.27-0.57-0.46-1.18-0.69-1.78C532.99,736.48,533.18,736.3,533.37,736.12z"/>
	<path class="st4" d="M313.66,713.53c12.02,0.96,24.02,2.5,35.92,4.96c-6.61,0.21-12.22,2.52-17.43,6.56&#10;&#9;&#9;c-1.77,1.37-4.68,1.02-6.6-1.21C322.13,719.88,318.88,715.69,313.66,713.53z"/>
	<path class="st4" d="M488.11,698.97c-3.66,4.58-7.85,8.83-8.8,15.03c-0.2,1.28-0.59,1.15-2.37,0.04c-4.64-2.88-8.74-6.85-14.71-7.3&#10;&#9;&#9;c8.84-2.22,17.1-5.99,25.97-7.7L488.11,698.97z"/>
	<path class="st4" d="M294.08,765.27c2.54,4.78,3.51,9.91,6.54,14.08c0.43,0.59,0.34,1.14,0.13,1.83&#10;&#9;&#9;c-1.04,3.37-1.98,6.78-3.13,10.75c-2.25-4.48-7.88-6.57-6.76-12.43C291.76,774.83,291.98,769.96,294.08,765.27z"/>
	<path class="st4" d="M267.27,775.28c6.11,4.07,5.18,10.57,5.57,16.53c-7.63-1.55-16-18.72-16.23-33.17&#10;&#9;&#9;c2.77,8.08,5.7,15.47,10.35,22.03c0.62,0.87,1.16,2.73,2.46,1.87c1.37-0.91-0.43-1.96-0.82-2.93c-0.53-1.31-1.74-2.32-1.87-3.85&#10;&#9;&#9;C266.92,775.6,267.1,775.44,267.27,775.28z"/>
	<path class="st4" d="M390.68,718.05c-3.67,3.89-8.07,6.35-7.33,11.78c-2.42-0.32-3.88-1.69-5.56-3.24&#10;&#9;&#9;c-4.37-4.02-9.77-6.44-15.44-8.21C371.52,719.18,380.71,718.93,390.68,718.05z"/>
	<path class="st4" d="M287.04,716.35c-1.85-4.37-4.68-8.27-8.66-11.54c8.86,2.67,17.87,4.5,26.97,6.62&#10;&#9;&#9;C298.81,711.66,292.61,712.94,287.04,716.35z"/>
	<path class="st4" d="M439.61,712.82c-5.01,2.15-8.69,5.42-9.26,11.6c-4.64-2.76-9.01-5.36-14.06-8.37&#10;&#9;&#9;c7.52-0.54,14.16-1.92,20.78-3.4c0.86-0.19,1.83-0.52,2.64,0.27L439.61,712.82z"/>
	<path class="st4" d="M266.23,753.88c2.44,4.49,4.58,9.1,7.82,13.13c1.74,2.17-0.55,4.75-0.34,7.21c0.09,1.12-0.47,2.3-0.75,3.53&#10;&#9;&#9;c-3.2-0.78-2.33-3.69-2.99-5.84C268.19,766.03,266.97,760.04,266.23,753.88z"/>
	<path class="st4" d="M600.21,714.87c-5.57-4.42-5.55-10.58-4.63-17.85C598.61,703.18,606.15,707.12,600.21,714.87z"/>
	<path class="st3" d="M581.59,719.95c-3.41-2.09-2.78-5.24-2.25-8.08c0.97-5.17,1.96-10.32,2.31-15.57c0.07-1.03-0.08-2.4,1.57-2.06&#10;&#9;&#9;c1.6,0.33,0.5,1.31,0.34,2.11C582.05,704.1,581.77,711.98,581.59,719.95z" style="fill: rgb(240, 240, 240);"/>
	<path class="st4" d="M568.6,713.64c0.67,6.13,1.33,12.27,2.02,18.58C566.73,729.8,566.73,729.8,568.6,713.64z"/>
	<path class="st3" d="M605.28,624.88c0.97,3.4-0.76,6.12-0.44,9.26c-2.21-0.81-3.9-2.47-6.87-2.34&#10;&#9;&#9;C600.61,629.3,602.84,627.2,605.28,624.88z" style="fill: rgb(240, 240, 240);"/>
	<path class="st4" d="M538.43,757.4c-5.63-3.07-4.77-8.68-5.02-13.88c1.85,4.47,3.71,8.95,5.56,13.42&#10;&#9;&#9;C538.79,757.09,538.61,757.25,538.43,757.4z"/>
	<path class="st3" d="M187.4,598.17c-4.51-2.21-5.98-6.31-6.97-11.09C184.92,589.7,185.69,594.22,187.4,598.17z" style="fill: rgb(240, 240, 240);"/>
	<path class="st3" d="M1098,911.54c-2.28-0.12-2.52-2.3-3.19-3.65c-1.99-3.97-5.83-6.92-6.39-11.65&#10;&#9;&#9;C1092.39,900.86,1095.51,906,1098,911.54z" style="fill: rgb(240, 240, 240);"/>
	<path class="st3" d="M608.08,674.16c2.6,2.74,5.58,5.38,2.64,9.9c-1.09-3.25-2.13-6.35-3.17-9.45&#10;&#9;&#9;C607.74,674.47,607.91,674.32,608.08,674.16z" style="fill: rgb(240, 240, 240);"/>
	<path class="st1" d="M423.05,738.02c0.36,0.04,0.73,0.07,1.09,0.11c-0.52,4.14-1.03,8.28-1.55,12.43&#10;&#9;&#9;c-0.29-0.03-0.58-0.06-0.87-0.08C422.16,746.32,422.6,742.17,423.05,738.02z" style="fill: rgb(238, 238, 238);"/>
	<path class="st3" d="M608.35,691.72c0-2.25,0-4.5,0-7.07C609.66,687.08,610.93,689.23,608.35,691.72z" style="fill: rgb(240, 240, 240);"/>
	<path class="st3" d="M1103.53,922.78c-3.11-1.82-3.8-4.84-3.99-8.1C1101.24,917.19,1102.51,919.92,1103.53,922.78z" style="fill: rgb(240, 240, 240);"/>
	<path class="st1" d="M126.93,851.65c0.04,0.52,0.07,1.04,0.11,1.56c-1.92,1.28-4.03,2.1-6.24,2.69c-0.11-0.12-0.22-0.23-0.34-0.35&#10;&#9;&#9;C122.29,853.73,124.59,852.66,126.93,851.65z" style="fill: rgb(238, 238, 238);"/>
	<path class="st3" d="M632.64,627.1c-0.45,0-0.9,0-1.35,0c-0.6-2.21-1.2-4.43-1.8-6.64C631.31,622.39,632.02,624.73,632.64,627.1z" style="fill: rgb(240, 240, 240);"/>
	<path class="st2" d="M236.79,650.56c0.74,0.68,2.35,0.44,2.25,2.18c-1.41,0.28-2.08-0.71-2.88-1.44&#10;&#9;&#9;C236.38,651.06,236.59,650.81,236.79,650.56z"/>
	<path class="st3" d="M1088.55,896.25c-2.1,0.23-1.74-1.28-1.78-2.51C1087.36,894.57,1087.96,895.41,1088.55,896.25z" style="fill: rgb(240, 240, 240);"/>
	<path class="st2" d="M512.89,880.55c-0.24,1.28-0.68,1.83-1.68,0.48C511.78,880.87,512.33,880.71,512.89,880.55z"/>
	<path class="st2" d="M583.79,636.36c-0.64,0.55-1.08,1.48-2.16,1.18c-0.13-0.04-0.26-0.42-0.23-0.61c0.18-0.93,0.93-1.1,1.72-1.18&#10;&#9;&#9;C583.34,635.95,583.57,636.15,583.79,636.36z"/>
	<path class="st2" d="M516.9,879.7c-0.27,1.48-0.82,1.75-1.75,0.42C515.73,879.98,516.31,879.84,516.9,879.7z"/>
	<path class="st2" d="M492.92,884.53c-0.23,1.23-0.64,1.85-1.67,0.52C491.68,884.48,492.28,884.44,492.92,884.53z"/>
	<path class="st2" d="M504.91,882.12c-0.26,1.48-0.8,1.74-1.74,0.42C503.65,881.99,504.27,882.04,504.91,882.12z"/>
	<path class="st2" d="M508.9,881.33c-0.35,1.69-0.99,1.58-1.81,0.28C507.7,881.51,508.3,881.42,508.9,881.33z"/>
	<path class="st4" d="M439.72,712.91c-0.22-1.84,0.97-0.76,2.04-0.9c-0.98,0.36-1.57,0.57-2.15,0.79&#10;&#9;&#9;C439.61,712.82,439.72,712.91,439.72,712.91z"/>
	<path class="st4" d="M502.7,744.38c0.7,0.37,0.75,0.92,0.42,1.57c-0.36-0.29-0.72-0.57-1.08-0.86&#10;&#9;&#9;C502.27,744.85,502.49,744.62,502.7,744.38z"/>
	<path class="st4" d="M532.8,736.65c-0.68-0.31-1.04-0.74-0.52-1.48c0.36,0.32,0.73,0.63,1.09,0.95&#10;&#9;&#9;C533.18,736.3,532.99,736.48,532.8,736.65z"/>
	<path class="st2" d="M585.03,635.25c-0.41,0.37-0.83,0.74-1.24,1.11c-0.22-0.21-0.44-0.41-0.67-0.62c0.44-0.4,0.88-0.81,1.32-1.21&#10;&#9;&#9;C584.64,634.77,584.83,635.01,585.03,635.25z"/>
	<path class="st1" d="M120.79,855.91c-0.44,0.16-0.87,0.33-1.31,0.46c-0.06,0.02-0.18-0.16-0.27-0.25c0.41-0.19,0.83-0.38,1.24-0.56&#10;&#9;&#9;C120.57,855.68,120.68,855.79,120.79,855.91z" style="fill: rgb(238, 238, 238);"/>
	<path class="st4" d="M538.5,720.49c-0.18,0.29-0.31,0.48-0.43,0.67c-0.24-0.35-0.49-0.7-0.73-1.06c0.19-0.13,0.51-0.39,0.56-0.35&#10;&#9;&#9;C538.15,719.96,538.32,720.25,538.5,720.49z"/>
	<path class="st4" d="M309.2,753.41c-0.13,0.47-0.26,0.94-0.39,1.41c-0.98-0.51-0.33-1.22-0.22-1.86&#10;&#9;&#9;C308.81,753.09,309.02,753.24,309.2,753.41z"/>
	<path class="st1" d="M96.64,865.32c-0.3,0.55-0.87,1.15-1.33,0.64c-0.59-0.65,0.44-0.85,0.76-1.25&#10;&#9;&#9;C96.26,864.91,96.45,865.12,96.64,865.32z" style="fill: rgb(238, 238, 238);"/>
	<path class="st2" d="M236.17,651.31c-0.6-0.17-1.23-0.29-1.37-1.06c0.17-0.13,0.32-0.29,0.46-0.46c0.51,0.26,1.02,0.52,1.53,0.77&#10;&#9;&#9;C236.59,650.81,236.38,651.06,236.17,651.31z"/>
	<path class="st3" d="M1098.81,913.17c-0.89-0.24-0.71-1.05-0.89-1.67C1098.22,912.05,1098.51,912.61,1098.81,913.17z" style="fill: rgb(240, 240, 240);"/>
	<path class="st3" d="M1099.62,914.76c-0.89-0.25-0.74-1.05-0.89-1.68C1099.02,913.64,1099.32,914.2,1099.62,914.76z" style="fill: rgb(240, 240, 240);"/>
	<path class="st4" d="M266.73,775.76c-0.74-0.28-1.02-0.73-0.53-1.45c0.36,0.32,0.71,0.65,1.07,0.97&#10;&#9;&#9;C267.1,775.44,266.92,775.6,266.73,775.76z"/>
	<path class="st3" d="M1104.49,925.14c-0.92-0.4-0.84-1.27-0.97-2.04C1104.29,923.56,1104.3,924.39,1104.49,925.14z" style="fill: rgb(240, 240, 240);"/>
	<path class="st4" d="M349.87,798.11c-0.7-0.23-1.11-0.94-0.61-1.33c0.75-0.58,0.66,0.62,1.08,0.86&#10;&#9;&#9;C350.18,797.79,350.02,797.94,349.87,798.11z"/>
	<path class="st4" d="M571.02,700.22c0.05,0.58,0.22,1.64,0.15,1.66c-1.07,0.23-0.61-0.71-0.82-1.17&#10;&#9;&#9;C570.57,700.54,570.79,700.38,571.02,700.22z"/>
	<path class="st4" d="M488.21,699.05c-0.43-0.61,0.1-0.58,0.44-0.64c0.11-0.02,0.25,0.06,0.37,0.1c-0.3,0.16-0.61,0.31-0.91,0.47&#10;&#9;&#9;C488.11,698.97,488.21,699.05,488.21,699.05z"/>
	<path class="st2" d="M584.45,634.53c0.33-0.04,0.83-0.24,0.95-0.1c0.3,0.35,0.04,0.66-0.37,0.82&#10;&#9;&#9;C584.83,635.01,584.64,634.77,584.45,634.53z"/>
	<path class="st4" d="M453.53,760.95c0.15,0.43,0.45,0.89-0.13,1.21c-0.03,0.01-0.34-0.48-0.52-0.74&#10;&#9;&#9;C453.09,761.25,453.31,761.09,453.53,760.95z"/>
	<path class="st4" d="M448.43,763.14c-0.13,0.21-0.26,0.42-0.4,0.63c-0.09-0.1-0.18-0.19-0.27-0.29c0.22-0.11,0.45-0.22,0.67-0.33&#10;&#9;&#9;C448.43,763.16,448.43,763.14,448.43,763.14z"/>
	<path class="st4" d="M454.04,763.11c0.09,0,0.21-0.03,0.26,0.01c0.07,0.06,0.16,0.21,0.13,0.28c-0.16,0.4-0.37,0.39-0.52-0.01&#10;&#9;&#9;C453.89,763.33,454,763.21,454.04,763.11z"/>
	<path class="st4" d="M537.04,718.04c0.52,0.12,0.74,0.42,0.58,0.95C537.13,718.85,536.93,718.54,537.04,718.04z"/>
	<path class="st4" d="M398.28,790.45c-0.32-0.35-0.59-0.71-0.1-1.13c0.16,0.25,0.32,0.5,0.48,0.74&#10;&#9;&#9;C398.54,790.2,398.42,790.33,398.28,790.45z"/>
	<path class="st4" d="M570.76,712.19c-0.02-0.33-0.14-0.9-0.03-0.96c0.49-0.24,0.42,0.27,0.53,0.54&#10;&#9;&#9;C571.12,711.93,570.95,712.07,570.76,712.19z"/>
	<path class="st4" d="M350.35,797.65c0.17,0.36,0.34,0.72,0.5,1.08c-0.24,0.19-0.48,0.37-0.73,0.56c-0.09-0.39-0.17-0.78-0.26-1.18&#10;&#9;&#9;C350.02,797.94,350.18,797.79,350.35,797.65z"/>
	<path class="st2" d="M263.49,797.43c0.2-0.06,0.39-0.12,0.59-0.18c-0.02,0.18-0.03,0.35-0.05,0.53c-0.15-0.16-0.3-0.33-0.45-0.49&#10;&#9;&#9;C263.57,797.3,263.49,797.43,263.49,797.43z"/>
	<path class="st1" d="M987.82,783.2c0.1-0.1,0.17-0.19,0.25-0.27c0.08,0.17,0.19,0.33,0.23,0.5c0.01,0.06-0.14,0.17-0.22,0.25&#10;&#9;&#9;C987.99,783.53,987.9,783.36,987.82,783.2z" style="fill: rgb(238, 238, 238);"/>
	<path class="st1" d="M830.59,341.5c-0.33,0.06-0.67,0.11-1,0.17c0.06-0.36,0.12-0.71,0.18-1.07&#10;&#9;&#9;C830.04,340.9,830.31,341.2,830.59,341.5z" style="fill: rgb(238, 238, 238);"/>
	<path class="st3" d="M310.34,881.41c0.08,0.07,0.15,0.15,0.23,0.22c-0.09,0.06-0.18,0.17-0.26,0.17c-0.08-0.01-0.16-0.13-0.23-0.2&#10;&#9;&#9;C310.17,881.53,310.26,881.47,310.34,881.41z" style="fill: rgb(240, 240, 240);"/>
	<path class="st1" d="M699.91,405.72c-0.17-0.13-0.34-0.27-0.51-0.4c0.1-0.06,0.24-0.2,0.29-0.17c0.18,0.09,0.33,0.24,0.5,0.36&#10;&#9;&#9;C700.19,405.5,699.91,405.72,699.91,405.72z" style="fill: rgb(238, 238, 238);"/>
	<path class="st3" d="M311.94,882.01c0.08,0.16,0.19,0.32,0.22,0.49c0.01,0.06-0.16,0.15-0.25,0.23c-0.08-0.16-0.19-0.31-0.22-0.48&#10;&#9;&#9;C311.68,882.19,311.85,882.09,311.94,882.01z" style="fill: rgb(240, 240, 240);"/>
	<path class="st2" d="M234.8,650.25c-0.25-0.17-0.49-0.33-0.74-0.5c0.42-0.46,0.81-0.22,1.2,0.04&#10;&#9;&#9;C235.13,649.96,234.98,650.12,234.8,650.25z"/>
	<path class="st1" d="M691.08,394.6c0.19-0.02,0.38-0.05,0.57-0.07c0,0.12,0,0.24,0.01,0.36c-0.18-0.13-0.35-0.25-0.53-0.38&#10;&#9;&#9;C691.13,394.51,691.08,394.6,691.08,394.6z" style="fill: rgb(238, 238, 238);"/>
	<path class="st3" d="M332.97,898.13c-0.25-0.21-0.75-0.58-0.73-0.62c0.39-0.61,0.83-0.23,1.26,0&#10;&#9;&#9;C333.32,897.72,333.14,897.92,332.97,898.13z" style="fill: rgb(240, 240, 240);"/>
	<path class="st3" d="M607.55,674.61c-0.23-0.41-0.55-0.82-0.01-1.23c0.18,0.26,0.36,0.51,0.54,0.77&#10;&#9;&#9;C607.91,674.32,607.74,674.47,607.55,674.61z" style="fill: rgb(240, 240, 240);"/>
	<path class="st3" d="M607.02,672.09c0,0.1,0,0.19,0,0.29c-0.18-0.05-0.35-0.1-0.53-0.16c0.09-0.09,0.17-0.22,0.28-0.27&#10;&#9;&#9;C606.82,671.93,606.94,672.04,607.02,672.09z" style="fill: rgb(240, 240, 240);"/>
	<path class="st0" d="M518.55,569.61c-8.36-2.45-15.29-7.62-22.64-11.96c-4.47-2.64-4.38-2.8-8.28-1.22&#10;&#9;&#9;c8.09,5.58,14.14,13.47,22.5,18.46c8.39,5.01,18.2,5.69,27.46,8.24c-8.57,1.21-16.61-0.76-24.58-3.79&#10;&#9;&#9;c-8.31-3.16-13.64-10.23-20.66-15.21c0.99,5.23,5,8.58,8.23,13.03c-5.75-1.84-9.64-8.1-8.98-13.41c0.05-0.42-0.23-1.03-0.57-1.34&#10;&#9;&#9;c-3.16-2.89-5.9-6.47-11.06-5.72c-2.48,0.36-5.05,0.05-7.58,0.07c-1.47,0.01-2.9-0.02-3.53-2.12c5.31-0.7,10.44-0.27,15.53-0.84&#10;&#9;&#9;c11.8-1.33,22.11-6,31.65-12.69c5.88-4.12,11.97-7.86,18.23-11.37c2.48-1.39,5.13-2.37,7.91-2.45c13.68-0.4,27.29,0.76,40.93,2.06&#10;&#9;&#9;c-9.41,3.01-19.14,1.26-29.41,2c5.92,3.06,11.6,5.34,16.45,9.32c-5.04-1.57-10.01-3.47-15.57-1.88c4.13,8.61,2.4,16.58-3.55,24.73&#10;&#9;&#9;c8.15-3.62,14.42-8.61,21.38-13.48c-0.12,3.57-3.29,4.33-4.42,6.48c-0.24,0.34-0.3,0.75,0.15,0.86c0.21,0.05,0.53-0.33,0.81-0.52&#10;&#9;&#9;c7.04-3.14,13.55-7.23,19.41-12.17c3.34-2.82,6.89-3.72,10.9-3.09c14.69,2.28,29.06,5.85,42.85,11.49&#10;&#9;&#9;c0.38,0.15,0.74,0.34,1.87,0.86c-2.32,0.6-3.4,0.27-4.64-0.13c-12.53-3.99-25.26-7.19-38.18-9.69c-3.98-0.77-7.23,1.13-10.38,2.99&#10;&#9;&#9;c-7.96,4.71-15.94,9.4-23.65,14.5c-7.99,5.29-16.6,8.55-26.09,9.6c-0.62,0.07-1.21,0.49-1.81,0.75&#10;&#9;&#9;C532.2,572.54,525.35,571.27,518.55,569.61z M566.07,557.75c-0.43,0.44-0.86,0.87-1.3,1.31c-0.38,0.16-0.75,0.31-1.13,0.47&#10;&#9;&#9;c-0.32,0.39-1.45,0.46-0.83,1.17c0.46,0.52,1.04-0.11,1.29-0.71c0.35-0.19,0.7-0.38,1.04-0.58c0.6-0.15,1.19-0.29,1.38-1&#10;&#9;&#9;c0.27-0.23,0.8-0.59,0.76-0.67C566.93,557.01,566.49,557.49,566.07,557.75z M512.34,547.14c-4.37,0.72-4.96,3.14-3.41,6.59&#10;&#9;&#9;c0.43,0.96,0.79,1.96,1.3,2.88c4.85,8.72,14.02,13.03,25.36,11.23c8.05-1.28,14.31-5.67,17.08-13.64c2.62-7.56,0.12-14.06-5.5-19.4&#10;&#9;&#9;c-5.14-4.89-8.76-4.67-14.08,0.64c3.69,1.3,6.77,3.54,9.6,6.11c1.09,0.99,2.1,2.27,1.2,3.84c-0.9,1.57-2.23,0.78-3.52,0.42&#10;&#9;&#9;c-1.73-0.49-3.39-0.49-4.54,1.35c-2.43,3.9-0.17,9.53,4.32,10.63c0.78,0.19,1.62,0.44,1.9,1.24c0.32,0.9-0.38,1.43-1.09,1.82&#10;&#9;&#9;c-5.87,3.15-11.8,4.15-18.09,0.98C516.77,558.74,513.48,553.82,512.34,547.14z" style="fill: rgb(238, 238, 238);"/>
	<path class="st0" d="M1104.21,955.8c-6.97-5.6-13.5-11.65-19.13-18.63c-4.25-6.17-9.4-11.76-15.44-15.9&#10;&#9;&#9;c-16.51-11.34-30.96-25.13-46.56-37.54c-7.6-6.05-14.88-12.45-22.31-18.69c-8.58-7.2-18.9-11.79-28.26-17.86&#10;&#9;&#9;c-21.73-14.09-44.92-25.31-69.07-34.76c-16.99-6.64-32.75-16.15-49.88-22.57c-5.4-2.03-10.9-3.78-16.85-5.83&#10;&#9;&#9;c0.46,2.65,1.91,4.19,2.78,5.98c0.35,0.71,1.6,1.48,0.29,2.3c-1.04,0.65-1.82-0.2-2.3-0.97c-1.17-1.91-2.87-3.83-3.12-5.89&#10;&#9;&#9;c-0.3-2.48-1.58-2.86-3.4-3.52c-7.82-2.84-15.91-4.59-24.05-6.12c-1.51-0.28-2.87-0.44-3.62-2.38c8.51,0.87,16.7,2.32,24.72,4.72&#10;&#9;&#9;c2.28,0.68,4.55,1.89,3.7-2.31c-0.11-0.55,0.15-1.43,0.56-1.79c2.82-2.46,4.46-5.77,6.84-9.74c0.59,4.54-1.07,7.34-3.06,10.05&#10;&#9;&#9;c-1.92,2.62-1.11,6.08,1.96,6.95c25.7,7.33,48.8,20.89,73.47,30.59c30.32,11.92,58.02,28.41,85.41,45.59&#10;&#9;&#9;c10.82,6.79,19.23,16.76,29.77,24.03c1.4,0.97,2.54,1.88,4.25,0.75c2.41-1.61,6.16-2.87,6.36-5.55c0.26-3.58,0.92-7.28,0.36-10.96&#10;&#9;&#9;c-0.1-0.67,0.13-1.58,0.95-2.04c3.43,6.99,1.46,15.94-4.78,20.13c-2.37,1.59-1.62,2.11,0.01,3.51&#10;&#9;&#9;c12.32,10.57,25.05,20.59,38.13,30.23c7.49,5.52,13.85,12.57,19.42,19.99c5.88,7.82,14.18,12.76,20.89,19.54&#10;&#9;&#9;c2.17,2.2,3.27,5,5.3,7.19c0.33,0.36,0.57,1-0.01,1.39c-0.81,0.54-1.57,0.09-2.16-0.42c-2.93-2.51-5.81-5.08-8.73-7.59&#10;&#9;&#9;C1105.87,957.01,1105.43,955.89,1104.21,955.8z" style="fill: rgb(238, 238, 238);"/>
	<path class="st0" d="M704.96,735.04c-1.47,5.11-0.68,10.54-2.29,15.79c-2-1.02-1.17-2.84-1.08-4.16&#10;&#9;&#9;c0.94-14.21,0.92-28.44,0.59-42.66c-0.48-20.66-1.11-41.36-5.49-61.67c-1.61-7.45-3.93-14.72-7.32-21.59&#10;&#9;&#9;c-3.94-11.95-9.17-23.34-16.87-33.28c-6.71-8.67-16.29-13.72-26.28-17.9c-15.42-6.44-31.47-9.15-48.14-7.93&#10;&#9;&#9;c-6.51,0.48-12.99,1.34-19.68,2.04c7.15-9.19,79.73-5.71,94.54,4.87c-8.01-1.18-14.94-3.38-22.8-3.93&#10;&#9;&#9;c3.99,2.33,7.55,4.07,10.73,6.32c6.22,4.4,12.51,8.64,16.13,15.93c4.76,9.6,13.06,16.64,19.39,25.12&#10;&#9;&#9;c12.39,16.61,22.84,34.31,29.34,54.13c0.2,0.62,0.44,1.24,0.56,1.87c0.07,0.36-0.08,0.77-0.48,1.34&#10;&#9;&#9;c-9.64-22.04-21.4-42.78-37.28-61.11c2.61,7.27,5.28,14.51,7.81,21.81c4.6,13.22,6.42,26.95,7.66,40.82&#10;&#9;&#9;c1.78,19.93,1.98,39.85,0.76,59.81C704.66,732.12,704.89,733.59,704.96,735.04z" style="fill: rgb(238, 238, 238);"/>
	<path class="st0" d="M359.41,536.17c-8.7-1.44-17.53-1.03-26.29-1.58c-16.09-1.01-31.88-3.8-47.59-6.99&#10;&#9;&#9;c-20.92-4.25-41.67-9.3-62.96-11.44c-6.46-0.65-12.92-1.27-20.57-2.03c5.08,6.46,4.65,12.76,2.39,19.75&#10;&#9;&#9;c-0.69-2.5-1.16-6.31-0.67-8.09c1.35-4.94-2.38-8.08-4.38-11.64c-0.7-1.24-4.1-1.03-6.29-1.32c-1.42-0.19-2.96,0.13-3.72-1.56&#10;&#9;&#9;c6.13,0.82,10.31-1.44,14.28-6.51c7.15-9.14,16.52-16.09,26.23-22.41c2.66-1.73,6.03-1.6,9.08-2.23c4.83-1,9.39-2.13,12.64-6.29&#10;&#9;&#9;c0.89-1.14,2.32-1.86,3.9-2.27c-3.05,3.07-4.79,7.4-9.51,8.73c-4.04,1.14-8.01,2.52-12.21,3.01c-3.51,0.4-5.89,2.81-8.46,4.83&#10;&#9;&#9;c-7,5.52-13.77,11.3-19.82,17.87c-1.09,1.18-2.35,2.42-1.58,4.19c0.79,1.82,2.56,0.89,3.88,0.97c21.65,1.25,43.04,3.98,64.2,8.96&#10;&#9;&#9;c24.94,5.87,50.12,10.29,75.86,11.28c16.92,0.65,33.79,0.55,50.65-0.42c17.85-1.03,35.28-4.85,52.65-8.94&#10;&#9;&#9;c1.69-0.4,4.37-2.14,5.14-0.07c0.52,1.4-2.65,1.65-4.3,2.18c-28.81,9.36-58.55,11.7-88.6,11.71&#10;&#9;&#9;C362.03,535.86,360.72,536.06,359.41,536.17z" style="fill: rgb(238, 238, 238);"/>
	<path class="st0" d="M768.36,536.1c-4.58,1.84-8.58,3.45-12.42,4.99c5.33,6.25,13.57,5.41,20.65,7.66c2.7,0.86,5.37,1.79,7.88,2.63&#10;&#9;&#9;c0.03,1.29-0.61,1.44-1.06,1.3c-5.55-1.75-11.29-2.65-17.01-3.51c-5.97-0.9-10.88-4.49-16.59-5.93c-1.15-0.29-2.28-0.97-3.41-0.94&#10;&#9;&#9;c-11.33,0.29-22.47-1.6-33.61-3.14c-12.15-1.68-24.26-3.69-36.37-5.71c-13.65-2.27-27.28-4.68-40.91-7.06&#10;&#9;&#9;c-3.83-0.67-7.6-1.6-11.21-3.07c0.06-0.33,0.12-0.67,0.18-1c12.77,2.15,25.53,4.33,38.3,6.45c13.02,2.16,26.05,4.22,39.07,6.39&#10;&#9;&#9;c12.99,2.17,26.1,3.2,39.38,4.16c-6.58-3.86-13.15-7.72-19.73-11.58c-0.68-0.4-1.32-0.89-2.03-1.22c-0.83-0.38-1.48-0.98-1.03-1.81&#10;&#9;&#9;c0.56-1.04,1.48-0.13,2.01,0.15c5.14,2.72,10.3,5.41,15.31,8.36c8.43,4.96,17.03,7.21,26.53,2.98&#10;&#9;&#9;C763.84,535.49,765.82,534.25,768.36,536.1z" style="fill: rgb(238, 238, 238);"/>
	<path class="st0" d="M687.38,554.62c20.06,5.21,58.46,93.74,51.76,120.05c-2.49-3.13-2.64-6.73-3.21-10.02&#10;&#9;&#9;c-4.44-25.6-11.71-50.21-23.82-73.35c-6.32-12.09-14.05-23.09-22.75-33.5c-0.68-0.81-1.36-1.63-1.99-2.48&#10;&#9;&#9;C687.26,555.17,687.37,554.86,687.38,554.62z" style="fill: rgb(238, 238, 238);"/>
	<path class="st0" d="M778.98,798.9c0.15,3.5,1.16,6.76,2.78,9.85c0.67,3,2.22,5.61,3.55,8.33c0.49,0.99,1.78,2.15,0.44,3.11&#10;&#9;&#9;c-1.36,0.98-2.43-0.26-3.33-1.25c-2.32-2.59-3.24-5.96-4.96-8.89c-1.16-3.95-2.31-7.9-3.47-11.85c-0.22-3.24-0.45-6.47-0.67-9.71&#10;&#9;&#9;c-0.16-0.03-0.32-0.06-0.48-0.08c-0.82,2.72-1.63,5.44-2.45,8.16c-0.05,0.39-0.01,0.82-0.16,1.16c-0.61,1.43-0.09,4.38-1.8,4.06&#10;&#9;&#9;c-2.45-0.45-1.29-3.25-1.2-5.07c0.09-1.95,0.55-3.87,0.85-5.81c6.44-23.79,20.84-42.32,38.74-58.51c3.15-2.85,6.62-5.37,10.49-8.48&#10;&#9;&#9;c0.05,2.65-1.42,3.34-2.34,4.29c-11.71,12.01-22.84,24.44-32.26,38.44C775.71,777.04,776.2,787.69,778.98,798.9z" style="fill: rgb(238, 238, 238);"/>
	<path class="st0" d="M708.78,556.62c14.73,17.2,26.5,36.17,33.26,58.01c6.25,20.22,7.17,40.89,5.04,61.77&#10;&#9;&#9;c-2.32-4.9-2.05-10.2-2.21-15.26c-0.89-27.49-7.72-53.33-20.09-77.84c-4.37-8.67-9.97-16.48-15.75-24.2&#10;&#9;&#9;C708.58,558.5,707.82,558.01,708.78,556.62z" style="fill: rgb(238, 238, 238);"/>
	<path class="st0" d="M526.48,611.08c-6.2,3.95-10.55,9.96-16.14,14.59c-1.33,1.1-2.33,2.75-5.11,3.12&#10;&#9;&#9;c2.41-3.66,5.36-5.83,7.75-8.48c0.64-0.71,3.42-1.59-0.03-2.69c-1.66-0.53,0.13-1.44,0.57-1.87c2.44-2.4,4.99-4.7,7.5-7.03&#10;&#9;&#9;c18.31-15.02,52.58-35.32,60.41-35.74c0.14,1.85-1.47,2.37-2.54,3.16c-11.67,8.57-24.47,15.37-36.63,23.18&#10;&#9;&#9;C536.73,602.85,530.65,605.69,526.48,611.08z M517.29,614.83c0.22,0.88,0.64,1.05,1.27,0.35c0.13-0.14,0.28-0.48,0.24-0.52&#10;&#9;&#9;c-0.54-0.48-0.94,0.07-1.38,0.24c-0.08,0.35-0.17,0.7-0.25,1.05c0.21-0.1,0.53-0.14,0.62-0.31&#10;&#9;&#9;C518.06,615.15,517.61,615.01,517.29,614.83z M515.83,616.8c-0.17,0.09-0.34,0.19-0.51,0.28c0.09,0.09,0.2,0.26,0.26,0.25&#10;&#9;&#9;c0.19-0.04,0.36-0.16,0.54-0.25C516.02,617,515.93,616.91,515.83,616.8z" style="fill: rgb(238, 238, 238);"/>
	<path class="st0" d="M828.98,667.71c-0.45-6.73-1.08-12.47-1.16-18.23c-0.32-23.28-2.14-46.34-8.82-68.8&#10;&#9;&#9;c-1.16-3.9-3.01-7.63-3.25-11.78c-0.05-0.82-0.47-2.09,0.7-2.37c1.17-0.28,1.39,0.95,1.7,1.79c5.04,13.79,9.8,27.64,11.73,42.3&#10;&#9;&#9;c2.15,16.26,2.56,32.56,1.29,48.89C830.99,661.94,831.74,664.63,828.98,667.71z" style="fill: rgb(238, 238, 238);"/>
	<path class="st0" d="M757.74,659.89c-3.27-38.02-11.7-74.34-35.53-106.12c4.59,1.05,11.41,11.05,20.98,29.52&#10;&#9;&#9;C754.71,605.54,763.05,647.93,757.74,659.89z" style="fill: rgb(238, 238, 238);"/>
	<path class="st0" d="M582.53,499.77c-3.09,1.85-5.07,0.44-6.88-0.09c-10.36-3.01-20.81-5.84-30.91-9.57&#10;&#9;&#9;c-12.02-4.44-23.07-2.25-33.85,3.37c-8.55,4.46-16.92,9.24-25.35,13.91c-4.83,2.68-10.21,3.68-15.73,5.87&#10;&#9;&#9;c0.84-2.53,2.47-3.12,4.02-3.71c12.71-4.8,23.68-12.78,35.29-19.56c10.11-5.9,20.47-8.14,31.81-4.28&#10;&#9;&#9;C554.49,490.34,568.07,494.89,582.53,499.77z" style="fill: rgb(238, 238, 238);"/>
	<path class="st0" d="M597.24,535.84c12.8-7.14,47.98-1.18,67.2,10.86c-2,1.42-3.7-0.09-5.31-0.69c-9.73-3.64-19.38-7.48-29.6-9.57&#10;&#9;&#9;c-7.99-1.63-16.01-1.76-24.1-0.65C602.98,536.12,600.44,535.84,597.24,535.84z" style="fill: rgb(238, 238, 238);"/>
	<path class="st0" d="M825.92,561.33c-8.1-13.1-16.35-26.1-24.12-39.4C814.75,532.08,820.36,546.69,825.92,561.33z" style="fill: rgb(238, 238, 238);"/>
	<path class="st0" d="M803.59,749.25c0.4-8.84,26.52-36.65,36.32-38.94c-6.73,6.34-13.26,12.29-19.57,18.47&#10;&#9;&#9;C814.03,734.97,808.41,741.76,803.59,749.25z" style="fill: rgb(238, 238, 238);"/>
	<path class="st0" d="M827.9,291.06c3.71,1.89,3.47,4.98,3.6,7.32c0.5,9.13,0.07,18.25-2.92,27.04c-0.39,1.14-0.59,3.08-2.32,2.57&#10;&#9;&#9;c-1.66-0.49-0.9-2.27-0.66-3.44c1.76-8.71,2.92-17.47,3.01-26.37C828.62,295.96,828.76,293.74,827.9,291.06z" style="fill: rgb(238, 238, 238);"/>
	<path class="st0" d="M785.26,740.88c-7.58,12.73-13.83,26.09-19.82,39.58C764.27,774.03,777.89,746.77,785.26,740.88z" style="fill: rgb(238, 238, 238);"/>
	<path class="st0" d="M496.37,506.8c4.61,0.07,9.09,1.06,13.5,2.41c1.39,0.42,2.12,0.77,1.57-1.24c-0.24-0.9,0.79-0.97,1.37-0.64&#10;&#9;&#9;c6.1,3.47,12.54,6.44,18.19,12.02c-7.33-0.05-10.89-6.61-17.29-7.32c-5.94-0.66-11.72-2.78-17.57-4.26&#10;&#9;&#9;C496.22,507.44,496.29,507.12,496.37,506.8z" style="fill: rgb(238, 238, 238);"/>
	<path class="st4" d="M518.55,569.61c6.8,1.65,13.65,2.93,20.71,2.37C534.05,574.89,522.8,573.61,518.55,569.61z"/>
	<path class="st0" d="M582.96,879.93c-19.02,12.2-38.9,22.67-60.43,29.74c-14.23,4.67-28.89,7.45-43.78,9.05&#10;&#9;&#9;c-1.64,0.18-3.39,0.42-5.65-0.56c3.55-1.8,7.05-1.87,10.3-2.49c40.14-7.7,76.06-24.78,108.98-48.62c0.21-0.15,0.37-0.38,0.55-0.57&#10;&#9;&#9;c9.15-5.88,16.29-14.01,23.88-21.6c6.46-6.47,13.01-12.89,18.61-20.18c0.61-0.8,1.24-1.73,3.41-1.99&#10;&#9;&#9;c-4.7,8.2-11.08,14.18-16.72,20.7c-5.9,6.83-12.02,13.48-18.27,19.99C597.66,869.84,590.11,874.65,582.96,879.93z" style="fill: rgb(238, 238, 238);"/>
	<path class="st0" d="M392.04,619.21c-6.22-0.1-11.47-2.86-16.1-6.6c-3.12-2.52-6.87-4.44-8.73-8.44c-1.8-3.87-3.4-7.65-0.58-11.55&#10;&#9;&#9;c2.76-3.83,7.07-3.7,10.92-2.91c9.22,1.9,16.35,7.17,21.5,15.05c0.5,0.76,0.85,1.63,1.2,2.48&#10;&#9;&#9;C403.21,614.5,399.86,619.39,392.04,619.21z M396.74,614.69c-11.01-2.53-21.08-6.23-27.63-17.31&#10;&#9;&#9;C371.42,610.36,388.58,620.59,396.74,614.69z" style="fill: rgb(238, 238, 238);"/>
	<path class="st0" d="M447.91,696.25c-16.84,6.27-34.22,10.31-52.16,11.51c-44.26,2.96-87.62-0.93-129.13-17.89&#10;&#9;&#9;c19.73,4.29,39.34,9.2,59.35,12.24c20.44,3.11,41.01,3.58,61.63,3.25C408.09,705.05,427.98,700.69,447.91,696.25z" style="fill: rgb(238, 238, 238);"/>
	<path class="st0" d="M256.07,646.28c24.47,6.92,48.98,13.45,74.45,15.69c25.75,2.27,51.22,0.42,76.72-3.27&#10;&#9;&#9;c-6.01,3.82-12.93,4.11-19.59,5.09C325.79,672.92,271.77,654.92,256.07,646.28z" style="fill: rgb(238, 238, 238);"/>
	<path class="st0" d="M458.42,659.11c-8.79,11.39-81.91,29.27-100.78,24.61c17.39-1.68,34.64-4.21,51.6-8.4&#10;&#9;&#9;C426.04,671.18,442.41,665.72,458.42,659.11z" style="fill: rgb(238, 238, 238);"/>
	<path class="st0" d="M460.48,685.08c30.13-10.98,58.55-25.21,85.77-41.94C520.38,662.77,491.63,676.5,460.48,685.08z" style="fill: rgb(238, 238, 238);"/>
	<path class="st0" d="M399.16,591.33c7.52,3.01,19.48,20.3,19.18,27.79c-0.15,3.77-1.28,7.3-4.6,9.67c-0.62,0.44-1.32,1.11-2.08,0.4&#10;&#9;&#9;c-0.57-0.54-0.28-1.28,0.17-1.77c5.64-6.17,3.08-12.18-0.36-18.13c-2.92-5.04-6.41-9.7-10.05-14.25&#10;&#9;&#9;C400.55,593.95,399.38,593.03,399.16,591.33z" style="fill: rgb(238, 238, 238);"/>
	<path class="st1" d="M770.39,796.56c0.82-2.72,1.63-5.44,2.45-8.16c0.16,0.03,0.32,0.06,0.48,0.08c0.22,3.24,0.45,6.47,0.67,9.71&#10;&#9;&#9;C772.46,798.38,771.94,796.34,770.39,796.56z" style="fill: rgb(238, 238, 238);"/>
	<path class="st0" d="M701.03,285.34c-9.42,11.76-18.56,23.72-26.62,36.47c-0.4,0.64-0.64,1.69-1.61,1.21&#10;&#9;&#9;c-1.37-0.67-0.67-1.7-0.2-2.69c4.07-8.64,9-16.73,14.72-24.41c13.86-18.58,28.82-36.15,45.93-51.83c0.97-0.89,2.05-1.67,3.13-2.44&#10;&#9;&#9;c2.22-1.58,2.23-1.56,2.71,1.47c1-0.6,1.96-1.17,3.24-1.93c0.26,2.58-1.32,3.85-2.58,5.23c-10.88,11.84-22.29,23.21-32.04,36.05&#10;&#9;&#9;c-1.12,1.48-2.18,3-3.28,4.49c-0.61,0.82-1.06,2.25-2.27,1.81c-1.28-0.46-0.42-1.85-0.49-2.83c0.57-0.36,0.98-0.77,0.47-1.47&#10;&#9;&#9;C701.76,284.76,701.39,285.05,701.03,285.34z M734.32,247.51c0.27-0.26,0.55-0.52,0.82-0.77c0.6-0.24,1.3-0.91,0.95-1.27&#10;&#9;&#9;c-0.84-0.85-1.08,0.41-1.59,0.76c-0.25,0.27-0.51,0.55-0.75,0.82c-0.16,0.35-0.74,0.69-0.07,1.05&#10;&#9;&#9;C733.77,248.14,734.1,247.72,734.32,247.51z" style="fill: rgb(238, 238, 238);"/>
	<path class="st4" d="M512.34,547.14c1.14,6.68,4.43,11.59,10.52,14.68c6.28,3.18,12.21,2.18,18.09-0.98&#10;&#9;&#9;c0.72-0.38,1.41-0.91,1.09-1.82c-0.28-0.8-1.13-1.05-1.9-1.24c-4.49-1.1-6.75-6.73-4.32-10.63c1.15-1.84,2.81-1.84,4.54-1.35&#10;&#9;&#9;c1.29,0.37,2.62,1.15,3.52-0.42c0.9-1.58-0.1-2.85-1.2-3.84c-2.83-2.57-5.9-4.81-9.6-6.11c5.32-5.3,8.94-5.52,14.08-0.64&#10;&#9;&#9;c5.63,5.34,8.13,11.85,5.5,19.4c-2.77,7.97-9.02,12.36-17.08,13.64c-11.34,1.81-20.51-2.51-25.36-11.23&#10;&#9;&#9;c-0.51-0.92-0.87-1.92-1.3-2.88C507.38,550.28,507.98,547.86,512.34,547.14z"/>
	<path class="st1" d="M564.11,559.99c-0.25,0.6-0.83,1.23-1.29,0.71c-0.63-0.71,0.51-0.78,0.83-1.17&#10;&#9;&#9;C563.79,559.69,563.95,559.84,564.11,559.99z" style="fill: rgb(238, 238, 238);"/>
	<path class="st1" d="M564.78,559.06c0.43-0.44,0.86-0.87,1.3-1.31c0.15,0.22,0.31,0.44,0.46,0.67c-0.19,0.7-0.79,0.85-1.38,1&#10;&#9;&#9;C565.02,559.3,564.9,559.18,564.78,559.06z" style="fill: rgb(238, 238, 238);"/>
	<path class="st1" d="M568.96,556.86c-0.27,0.19-0.59,0.57-0.81,0.52c-0.45-0.11-0.39-0.52-0.15-0.86&#10;&#9;&#9;C568.32,556.63,568.64,556.74,568.96,556.86z" style="fill: rgb(238, 238, 238);"/>
	<path class="st1" d="M566.07,557.75c0.42-0.26,0.86-0.74,1.23,0c0.04,0.08-0.5,0.44-0.76,0.67&#10;&#9;&#9;C566.38,558.19,566.23,557.97,566.07,557.75z" style="fill: rgb(238, 238, 238);"/>
	<path class="st1" d="M565.15,559.41c-0.35,0.19-0.7,0.38-1.04,0.58c-0.16-0.14-0.32-0.3-0.46-0.46c0.38-0.16,0.75-0.31,1.13-0.47&#10;&#9;&#9;C564.9,559.18,565.02,559.3,565.15,559.41z" style="fill: rgb(238, 238, 238);"/>
	<path class="st2" d="M517.4,614.88c0.46-0.15,0.87-0.7,1.41-0.22c0.04,0.04-0.11,0.38-0.24,0.52c-0.64,0.7-1.06,0.53-1.27-0.35&#10;&#9;&#9;L517.4,614.88z"/>
	<path class="st2" d="M515.83,616.8c0.11,0.11,0.2,0.2,0.28,0.28c-0.18,0.09-0.35,0.21-0.54,0.25c-0.07,0.01-0.17-0.16-0.26-0.25&#10;&#9;&#9;C515.49,616.99,515.66,616.89,515.83,616.8z"/>
	<path class="st2" d="M517.29,614.83c0.32,0.18,0.77,0.32,0.5,0.81c-0.09,0.17-0.41,0.21-0.62,0.31c0.08-0.35,0.17-0.7,0.24-1.06&#10;&#9;&#9;C517.4,614.88,517.29,614.83,517.29,614.83z"/>
	<path class="st4" d="M396.74,614.69c-8.16,5.9-25.32-4.32-27.63-17.31C375.66,608.46,385.73,612.16,396.74,614.69z"/>
	<path class="st1" d="M734.51,246.23c0.51-0.35,0.75-1.61,1.59-0.76c0.35,0.35-0.35,1.03-0.95,1.27&#10;&#9;&#9;C734.93,246.57,734.72,246.4,734.51,246.23z" style="fill: rgb(238, 238, 238);"/>
	<path class="st1" d="M701.03,285.34c0.36-0.29,0.73-0.58,1.09-0.87c0.51,0.71,0.1,1.11-0.47,1.47&#10;&#9;&#9;C701.44,285.74,701.23,285.54,701.03,285.34z" style="fill: rgb(238, 238, 238);"/>
	<path class="st1" d="M733.75,247.05c0.25-0.27,0.51-0.55,0.76-0.82c0.21,0.17,0.42,0.34,0.64,0.51c-0.28,0.26-0.55,0.52-0.82,0.77&#10;&#9;&#9;C734.15,247.33,733.96,247.18,733.75,247.05z" style="fill: rgb(238, 238, 238);"/>
	<path class="st1" d="M734.32,247.51c-0.22,0.21-0.55,0.63-0.64,0.59c-0.67-0.35-0.09-0.7,0.07-1.05&#10;&#9;&#9;C733.96,247.18,734.15,247.33,734.32,247.51z" style="fill: rgb(238, 238, 238);"/>
</g>
</svg>