<?xml version="1.0" standalone="no"?>
<svg version="1.1" id="downloadSvg" xmlns="http://www.w3.org/2000/svg" xmlns:xlink="http://www.w3.org/1999/xlink" x="0px" y="0px" viewBox="0 0 1200 1200" enable-background="new 0 0 1200 1200" xml:space="preserve" height="1024" width="1024">
<path fill="#1B435E" d="M822.853,705.583c7.429-2.863,12.268-9.214,19.073-12.188c17.115-7.481,41.26,5.397,52.742-14.725&#10;&#9;c7.24-12.69,2.548-18.661,16.294-26.151c8.164-4.45,12.849-5.73,18.424-14.315c12.005-18.483,23.62-36.848,39.574-52.415&#10;&#9;c2.976,3.479,17.731,10.145,18.613,11.941c1.791,3.646-3.445,15.222-4.534,19.05c-2.27,7.994-4.308,17.914-8.368,25.2&#10;&#9;c-3.718,6.672-11.001,10.739-11.243,19.156c-0.076,2.63,4.312,7.92,4.577,11.478c0.178,2.381-1.035,4.431-1.395,6.7&#10;&#9;c-1.67,10.497-3.808,21.186-5.759,31.642c-1.392,7.461-7.116,18.276-1.84,25.692c5.929,8.332,17.393,7.034,21.864-1.821&#10;&#9;c6.085-12.051-8.393-19.786-7.853-31.807c0.319-7.086,1.456-20.139,4.308-26.841c2.371-5.572-0.271-2.702,3.533-6.294&#10;&#9;c5.001-4.723,10.441-2.459,14.042-10.478c3.048-6.787,2-15.596,4.245-22.846c2.134-6.885,4.808-13.155,6.339-20.281&#10;&#9;c0.466-2.168,0.344-5.461,1.403-7.343c1.18-2.098,1.707-3.47,1.876-4.339c0.937,0.191,2.64,0.136,5.715-0.584&#10;&#9;c5.312-1.243,12.091-0.019,17.622-0.703c11.436-1.414,14.813-2.823,24.321,0.716c8.823,3.284,16.225,7.3,26.056,8.196&#10;&#9;c13.44,1.224,26.779-4.27,28.606-20.016c1.418-12.241-24.103-26.93-9.834-38.193c2.058-1.625,8.977-0.319,11.948-1.154&#10;&#9;c7.92-2.226,15.58-9.608,20.77-15.564c5.282-6.063,13.415-16.382,15.313-24.276c2.461-10.241-1.926-10.674-5.707-18.944&#10;&#9;c-2.638-5.768-2.6-3.99-2.157-9.703c0.574-7.416,4.581-14.396,4.65-22.314c0.191-22.203-12.428-40.42-30.776-51.776&#10;&#9;c-38.08-23.568-72.345-12.342-104.134,15.075c-10.144-18.439,9.445-48.143-15.339-60.775c-16.981-8.655-43.631,1.289-58.352,10.978&#10;&#9;c3.472-5.731,11.098-16.087,7.654-22.541c-6.767-12.684-26.942-0.935-36.184,0.609c-14.9,2.488-6.127,1.321-10.226-6.129&#10;&#9;c-7.884-14.329-15.397-6.553-28.774-4.562c-23.471,3.494-43.331-13.998-66.653-7.685c-11.327,3.068-20.022,9.124-31.895,10.707&#10;&#9;c-9.705,1.294-19.174,1.224-28.696,3.851c-17.976,4.959-25.985,12.792-38.015,25.295c-8.044,8.361-21.713,11.772-33.789,16.452&#10;&#9;c-24.66,9.56-47.836,18.029-67.552,35.981c-16.292,14.833-32.395,23.716-25.401,47.796c3.304,11.378,4.192,26.633,12.287,35.298&#10;&#9;c4.743,5.077,14.099,9.833,20.01,13.765c29.961,19.923,73.561-13.064,106.747-18.272c-9.899,8.81-21.994,15.337-32.08,23.816&#10;&#9;c-5.627,4.73-11.016,6.194-18.291,8.197c-20.999,5.781-39.773,15.622-58.77,26.049c-15.322,8.409-29.728,18.318-43.684,28.83&#10;&#9;c-15.088,11.367-25.974,23.872-45.557,24.849c-24.87,1.241-61.463-3.461-77.711,16.594c-16.973,8.237-36.543,1.75-52.753-6.411&#10;&#9;c-10.772-5.424-20.556-12.584-31-18.569c-10.098-5.787-28.247-9.8-35.455-18.828c-10.529-13.192-2.346-33.709-19.214-44.1&#10;&#9;c-18.065-11.13-43.739,0.232-60.054,8.932c-15.614,8.327-30.299,18.064-45.268,27.446c-26.203,16.422-55.956,19.902-86.038,24.156&#10;&#9;c-16.827,2.38-38.614,2.202-53.167,11.65c-22.692,14.733,9.086,23.565,22.589,24.862c22.801,2.189,49.386,5.513,72.323,2.231&#10;&#9;c58.39-8.358,126.194-54.443,165.253,20.187c7.758,14.819-2.142,26.267-8.263,39.707c-6.496,14.264-14.15,14.057-28.077,18.065&#10;&#9;c-22.876,6.586-32.689,24.367-50.105,38.729c-6.983,5.757-19.812,8.863-25.359,15.838c-9.502,11.948,5.486,14.726,15.263,14.617&#10;&#9;c19.201-0.215,40.712-4.153,57.651-13.116c21.02-11.123,31.674-32.743,51.262-45.125c7.593-4.798,20.146-17.835,28.843-19.738&#10;&#9;c9.172-2.007,13.866,7.73,20.035,14.443c10.319,11.232,24.735,31.136,38.362,37.594c11.327,5.368,24.603,0.414,36.096-2.604&#10;&#9;c36.638-9.62,73.857-16.571,107.26-35.15c27.453-15.269,51.623-40.248,84.753-42.22c14.513-0.864,43.123-2.867,47.943,10.094&#10;&#9;c5.02,13.501-2.008,37.668-3.487,51.519c-2.039,19.108-0.937,36.191-8.93,53.298c-4.68,10.022-4.203,24.54-11.688,29.148&#10;&#9;c-3.715,2.287-9.367-1.172-12.745,3.98c-5.104,7.784,4.459,16.002,9.619,20.133c14.028,11.232,30.923,15.675,45.933,4.167&#10;&#9;c22.773-17.457,24.473-60.623,32.886-86.27c4.801-14.638,15.654-37.253,17.132-49.773c7.591-13.198,15.845-11.237,29.929-11.806&#10;&#9;C802.112,711.236,813.689,709.118,822.853,705.583z M1010.591,587.508c1.733-6.822,3.289-13.786,4.394-20.736&#10;&#9;c17.542,2.522,25.493,9.918,31.382,25.878c-12.125,2.79-24.701,5.053-37.099,2.692&#10;&#9;C1009.709,592.73,1010.15,590.119,1010.591,587.508z M990.802,581.401c-0.63,2.857-1.199,5.726-1.707,8.607&#10;&#9;c-4.429-1.548-7.805-3.001-11.178-6.049c-7.193-6.148,9.825-17.327,17.607-18.806C993.672,570.476,992.107,575.919,990.802,581.401z&#10;&#9; M964.36,372.775c9.609-3.27,25.997-7.029,33.596,2.808c6.257,8.098,2.827,28.554,2.518,37.975&#10;&#9;c-6.118-7.824-23.089-34.102-35.858-23.59c-1.684-5.247-4.385-10.898-8.693-14.582C958.76,374.594,961.571,373.723,964.36,372.775z&#10;&#9; M928.432,393.965c1.222-5.204,12.295-14.84,18.375-14.504c3.024,0.167,5.087,3.655,7.318,6.232&#10;&#9;c3.346,3.863,5.28,13.244,4.018,17.928C952.846,423.299,926.439,410.298,928.432,393.965z M453.34,688.563&#10;&#9;c-2.249-3.803-5.314-7.14-7.193-11.157c0.67,0.098,1.287-0.051,1.853-0.446c3.186-3.064,18.226-2.369,18.044-1.892&#10;&#9;C461.993,679.72,457.767,684.267,453.34,688.563z" style="fill: rgb(238, 238, 238);"/>
</svg>