<?xml version="1.0" standalone="no"?>
<svg version="1.1" id="downloadSvg" xmlns="http://www.w3.org/2000/svg" xmlns:xlink="http://www.w3.org/1999/xlink" x="0px" y="0px" viewBox="0 0 1200 1200" enable-background="new 0 0 1200 1200" xml:space="preserve" height="1024" width="1024">
<g>
	<path fill="#272728" d="M58.304,701.673c4.338,15.61,10.453,30.479,18.559,44.563c17.142,29.784,41.689,51.91,71.076,68.98&#10;&#9;&#9;c32.896,19.108,68.781,29.917,105.839,37.256c25.728,5.096,51.717,8.158,77.886,9.926c25.569,1.727,51.16,2.723,76.773,2.253&#10;&#9;&#9;c33.146-0.608,66.248-2.212,99.316-4.796c44.57-3.483,88.948-8.621,133.221-14.663c37.526-5.121,74.947-10.972,112.304-17.251&#10;&#9;&#9;c38.233-6.426,76.388-13.279,114.547-20.116c6.625-1.187,6.428-1.145,8.298,5.511c6.031,21.472,12.818,42.813,22.097,63.129&#10;&#9;&#9;c7.797,17.073,16.276,34.695,30.499,47.409c22.853,20.429,55.097,23.713,84.443,21.81c12.513-0.812,25.124-2.47,36.788-7.073&#10;&#9;&#9;c53.861-21.253,28.769-86.31,17.481-126.599c-3.235-11.545-6.753-23.011-10.05-34.539c-0.46-1.608-2.197-4,0.963-4.664&#10;&#9;&#9;c3.052-0.642,2.705,2.285,2.931,3.904c2.72,19.459,14.561,30.372,32.848,35.231c3.425,0.91,6.969,1.184,10.564,0.77&#10;&#9;&#9;c10.701-1.233,15.64-6.278,16.043-17.032c0.487-13.006-3.769-24.429-12.132-34.345c-1.137-1.348-2.359-2.623-3.936-4.312&#10;&#9;&#9;c-0.552-0.591-0.27-1.559,0.517-1.747c6.89-1.641,17.733-6.258,26.146-9.223c12.511-4.409,20.437-17.084,18.341-30.183&#10;&#9;&#9;c-0.074-0.463-0.158-0.927-0.252-1.391c-2.068-10.199-8.878-18.806-18.086-23.655c-7.337-3.864-16.296-9.131-15.438-10.599&#10;&#9;&#9;c5.053-8.652,7.725-20.011,6.722-29.982c-0.814-8.086-5.133-17.765-13.326-20.673c-9.381-3.33-19.773,3.375-26.784,8.992&#10;&#9;&#9;c-8.995,7.207-14.604,17.339-16.454,28.679c-0.548,3.362-2.04,3.617-4.876,3.081c-3.083-0.583-3.946-1.955-3.058-4.922&#10;&#9;&#9;c3.138-10.481,6.245-20.973,9.226-31.5c4.349-15.361,8.789-30.794,11.567-46.524c2.791-15.798,8.418-32.6,3.439-48.544&#10;&#9;&#9;c-12.911-41.349-70.648-42.287-105.26-38.074c-29.717,3.617-50.865,19.962-66.437,44.956&#10;&#9;&#9;c-14.283,22.926-23.124,48.222-30.785,73.967c-1.917,6.443-2.037,6.438-8.075,3.914c-44.131-18.447-88.807-35.49-133.88-51.472&#10;&#9;&#9;c-41.437-14.693-83.253-28.247-125.609-40.074c-3.284-0.917-4.793-2.378-5.305-5.934c-3.876-26.935-6.559-54.108-14.927-80.204&#10;&#9;&#9;c-7.266-22.661-18.722-42.489-38.624-56.534c-5.463-3.855-11.23-7.209-17.429-9.688c-23.08-9.227-46.291-18.095-70.2-25.003&#10;&#9;&#9;c-6.769-1.956-6.617-2.071-5.777-8.936c1.997-16.329,3.527-32.661,0.572-49.083c-4.341-24.121-19.178-38.506-43.504-41.845&#10;&#9;&#9;c-18.187-2.497-35.995,0.184-53.759,3.82c-5.001,1.023-9.853,2.54-15.257,1.993c-4.451-0.45-7.952,2.322-10.537,6.506&#10;&#9;&#9;c-7.208,11.667-6.558,29.926,1.866,39.702c3.799,4.41,9.95,6.024,14.335,2.659c9.152-7.025,20.16-8.062,30.729-10.579&#10;&#9;&#9;c5.507-1.312,11.165-1.336,16.8-1.105c11.943,0.489,18.536,6.779,19.508,18.708c0.631,7.746-0.713,15.345-1.962,22.949&#10;&#9;&#9;c-0.699,4.258-3.664,3.482-6.441,3.025c-15.384-2.529-30.868-3.386-46.447-3.152c-9.366,0.141-17.685,2.959-25.166,8.524&#10;&#9;&#9;c-1.217,0.905-2.171,1.948-3.071,3.138c-18.109,23.921-27.723,51.043-30.617,80.743c-1.51,15.499-2.208,31.006-0.942,46.548&#10;&#9;&#9;c0.255,3.133-0.911,4.188-3.971,4.249c-25.175,0.495-50.273,2.104-75.155,6.12c-39.348,6.35-77.205,17.279-111.163,38.835&#10;&#9;&#9;c-26.81,17.018-48.192,39.097-60.349,69.104c-3.26,8.047-5.043,16.229-5.31,24.997C49.368,648.684,51.02,675.458,58.304,701.673z&#10;&#9;&#9; M612.831,664.557c0-21.243,17.221-38.464,38.464-38.464c21.243,0,38.464,17.221,38.464,38.464s-17.221,38.464-38.464,38.464&#10;&#9;&#9;C630.052,703.021,612.831,685.8,612.831,664.557z M483.347,647.905c0-21.243,17.221-38.464,38.464-38.464&#10;&#9;&#9;c21.243,0,38.464,17.221,38.464,38.464s-17.221,38.464-38.464,38.464C500.568,686.369,483.347,669.148,483.347,647.905z&#10;&#9;&#9; M356.805,631.522c0-21.243,17.221-38.464,38.464-38.464c21.243,0,38.464,17.221,38.464,38.464s-17.221,38.464-38.464,38.464&#10;&#9;&#9;C374.026,669.985,356.805,652.765,356.805,631.522z M356.805,371.496c0,0,117.917,5.962,162.644,38.379c0,0-5.731,44.244,0,80.522&#10;&#9;&#9;c0,0-87.741-46.233-162.644-36.277C356.805,454.119,346.344,409.875,356.805,371.496z" style="fill: rgb(238, 238, 238);"/>
</g>
</svg>