<?xml version="1.0" standalone="no"?>
<svg version="1.1" id="downloadSvg" xmlns="http://www.w3.org/2000/svg" xmlns:xlink="http://www.w3.org/1999/xlink" x="0px" y="0px" viewBox="0 0 1200 1200" enable-background="new 0 0 1200 1200" xml:space="preserve" height="1024" width="1024">
<path fill="#0A4866" d="M56.093,105.228c11.065,8.569,21.941,17.398,33.024,25.948c10.52,8.117,19.765,17.547,29.354,26.702&#10;&#9;c11.567,11.044,24.196,20.905,35.863,31.837c25.47,23.866,51.855,46.555,76.475,71.379c12.171,12.272,25.585,23.386,37.404,35.979&#10;&#9;c7.797,8.308,14.975,17.146,22.156,25.983c14.099,17.352,26.69,35.798,39.444,54.148c17.997,25.893,31.598,55.187,45.938,83.23&#10;&#9;c10.175,19.898,20.156,39.887,30.972,59.452c13.203,23.881,28.567,47.104,43.332,70.037c14.674,22.791,28.287,46.201,42.998,68.989&#10;&#9;c5.23,8.101,9.986,16.499,14.977,24.75c3.436,5.681,7.253,10.855,11.664,15.818c2.048,2.303,2.948,2.445,2.063,5.045&#10;&#9;c-0.206,0.604-2.91,2.812-3.477,3.509c-1.945,2.39-3.254,5.201-4.906,7.782c-4.368,6.821-11.381,8.757-19.293,7.096&#10;&#9;c-6.34-1.331-10.754-5.561-7.353-11.901c3.65-6.801,7.472-11.823,8.388-19.797c0.654-5.694,0.962-11.957-1.042-17.381&#10;&#9;c-5.858-15.853-25.876-23.528-41.64-19.942c0.252,0.023,0.503,0.046,0.755,0.069c-12.315,0.943-19.349,14.796-21.165,25.509&#10;&#9;c-1.233,7.271-0.596,17.448-8.392,21.079c0.07,0.033,0.315,0.065,0.373,0.064c-9.041,0.726-18.833,9.76-23.963,16.527&#10;&#9;c-5.225,6.891-9.302,15.445-11.732,23.755c-7.077,24.199-2.492,54.495,4.833,78.125c8.132,26.23,18.365,53.127,32.428,76.877&#10;&#9;c12.456,21.036,30.928,37.215,56.223,36.558c12.47-0.324,24.631-1.817,36.707-5.039c15.119-4.034,32.845-9.99,48.655-9.059&#10;&#9;c-1.363,6.889-1.447,13.956-1.477,20.956c0.074-0.211,0.147-0.421,0.221-0.632c-1.69,16.714,6.63,33.38,4.683,49.875&#10;&#9;c-1.812,15.362-12.138,29.375-15.304,44.588c-0.893,4.289-1.331,3.985-5.246,6.259c-1.771,1.029-3.512,2.107-5.27,3.159&#10;&#9;c-6.031,3.608-12.165,7.041-18.075,10.849c-12.734,8.205-42.741,27.533-29.176,45.45c5.177,6.839,12.991,8.743,20.796,11.176&#10;&#9;c8.719,2.718,17.323,5.182,26.469,5.958c-3.106,3.338-6.319,9.333-2.528,13.231c4.013,4.127,10.834,1.293,15.342-0.387&#10;&#9;c8.178-3.047,17.594-9.231,26.014-10.093c9.612-0.983,19.703,0.526,29.299,0.997c11.766,0.577,23.317-0.33,35.006-1.572&#10;&#9;c22.367-2.378,45.01-4.834,67.44-6.454c18.368-1.326,36.614-2.078,54.911-4.584c41.101-5.63,81.858-11.575,122.015-22.248&#10;&#9;c42.518-11.301,84.846-23.112,125.583-39.826c23.156-9.5,45.698-21.021,65.67-36.232c24.107-18.362,50.792-42.015,62.108-70.939&#10;&#9;c4.575-11.036,8.606-23.607-4.631-29.638c-8.636-3.935-17.673-3.846-26.944-4.044c-23.39-0.498-46.259-0.023-69.586,1.88&#10;&#9;c-24.854,2.028-49.811,4.791-74.45,8.678c-25.551,4.03-50.574,10.66-75.882,15.838c-7.607,1.556-15.173,3.297-22.774,4.874&#10;&#9;c-4.386,0.91-4.824,0.682-8.076-2.185c-8.619-7.599-16.979-15.595-24.843-23.971c-17.181-18.298-32.86-37.982-49.287-56.926&#10;&#9;c-33.526-38.661-65.758-78.031-97.297-118.344c-10.929-13.97-22.437-27.292-33.734-40.957c-5.044-6.102-10.237-12.004-15.054-18.298&#10;&#9;c-2.417-3.159-4.59-4.721-4.265-8.261c0.184-1.999,1.474-4.522,2.115-6.404c2.069-6.07,16.79-30.646,8.817-34.141&#10;&#9;c-4.666-2.045-14.923,5.318-18.553,7.733c-4.988,3.319-10.451,6.527-14.773,10.674c-40.167-47.257-85.55-90.146-124.676-138.364&#10;&#9;c-21.182-26.105-44.493-50.983-68.427-74.575c-20.239-19.949-41.508-38.794-61.646-58.829&#10;&#9;c-16.815-16.729-35.431-31.991-51.431-49.521c-22.055-24.163-43.847-48.725-66.557-72.267&#10;&#9;c-18.476-19.153-38.553-36.806-56.146-56.785c-10.908-12.388-23.595-24.584-33.174-36.378&#10;&#9;c-10.471-12.893-22.291-24.629-33.895-36.49c-11.114-11.36-21.311-23.591-31.208-36.015c-4.297-5.395-10.068-14.604-17.229-16.316&#10;&#9;c-5.784-1.383-7.858,4.117-10.617,8.132c-2.186,3.18-4.592,6.223-6.854,9.348C48.708,94.411,47.749,98.767,56.093,105.228z&#10;&#9; M707.971,979.653c-17.096,5.146-33.653,11.797-50.637,17.279c-19.577,6.319-39.937,12.105-58.851,20.24&#10;&#9;c-1.719-20.099-2.538-39.14,0.097-59.27c1.982-15.143,4.169-30.625,11.725-44.172c5.172,2.713,10.55,7.946,15.117,11.772&#10;&#9;c5.349,4.482,10.029,9.037,16.21,12.445c13.288,7.327,27.941,10.96,40.889,19.125c-0.122-0.157-0.244-0.313-0.366-0.469&#10;&#9;c9.864,6.618,19.296,13.969,27.351,22.754C708.995,979.456,708.483,979.554,707.971,979.653z M514.715,816.343&#10;&#9;c5.912,2.883,13.242,6.023,19.938,3.739c6.735-2.298,8.666-10.423,10.561-16.455c3.142,11.723,7.157,25.392,13.579,35.703&#10;&#9;c3.314,5.321,10.337,13.267,17.13,8.16c5.524-4.154,4.273-14.72,3.878-20.677c-0.923-13.925-3.572-27.617-7.816-40.898&#10;&#9;c-2.232-6.986-4.713-13.88-7.479-20.672c-1.536-3.772-3.836-7.605-4.97-11.495c-1.077-3.698-0.024-4.86,1.375-8.982&#10;&#9;c29.675,28.563,63.782,51.762,98.933,72.926c19.676,11.846,39.825,22.888,59.229,35.168c20.939,13.252,41.015,27.765,60.517,43.051&#10;&#9;c11.655,9.135,24.101,17.161,35.835,26.201c8.794,6.776,18.114,13.466,27.518,19.395c-2.475,0.619-4.952,1.235-7.424,1.868&#10;&#9;c-24.611,6.298-48.861,13.724-73.289,20.657c-2.625,0.745-6.199,2.467-8.993,2.552c-3.898,0.118-8.838-4.746-12.374-6.995&#10;&#9;c-7.809-4.965-15.038-10.196-22.102-16.172c0.092,0.174,0.185,0.349,0.278,0.524c-19.234-17.965-41.791-32.385-61.895-49.344&#10;&#9;c0.083,0.153,0.166,0.306,0.249,0.459c-8.064-8.109-17.277-17.12-27.289-22.588c-8.489-4.636-17.65-6.338-27.038-8.049&#10;&#9;c0.192,0.113,0.384,0.225,0.576,0.338c-14.555-3.463-30.833-5.256-45.762-5.283c-7.195-0.013-14.383-0.266-21.577-0.319&#10;&#9;c-4.775-0.035-12.617,1.801-16.536-1.146c0.109,0.139,0.218,0.278,0.328,0.417c-8.977-6.419-14.981-17.803-20.256-28.61&#10;&#9;c-1.634-3.346-12.393-25.723-4.503-24.348c1.769,0.308,3.943,2.782,5.266,3.698C504.941,812.169,509.99,814.039,514.715,816.343z&#10;&#9; M555.533,758.832c3.893,10.376,8.632,20.548,11.734,31.148c2.728,9.056,4.645,18.27,5.844,27.655&#10;&#9;c0.583,4.563,4.229,21.922-0.563,25.185c-5.8,3.949-12.64-14.032-13.826-17.101c-2.91-7.532-5.553-15.195-7.84-22.935&#10;&#9;c-1.158-3.921-2.841-7.697-2.369-11.688c0.392-3.316,1.745-6.735,2.412-10.023C552.425,773.685,553.496,766.087,555.533,758.832z&#10;&#9; M528.022,738.089c3.049,1.377,2.534,4.282,1.815,7.623c0.11-0.152,0.221-0.305,0.331-0.457c-2.482,7.32-3.143,15.497-5.219,23.03&#10;&#9;c-1.234,4.476-1.139,9.363-6.716,7.475c-4.887-1.654-9.872-6.57-14.05-9.58c-4.935-3.597-17.406-10.004-18.21-17.14&#10;&#9;c-0.513-4.553,10.892-6.497,15.186-7.732c5.825-1.675,12.116-3.083,18.195-3.47C521.342,737.711,526.029,737.19,528.022,738.089z" style="fill: rgb(238, 238, 238);"/>
</svg>