<?xml version="1.0" encoding="UTF-8" standalone="no"?>
<svg xmlns:rdf="http://www.w3.org/1999/02/22-rdf-syntax-ns#" xmlns="http://www.w3.org/2000/svg" height="488.44" viewBox="0 0 1717.5 488.4375" width="1717.5" version="1.1" xmlns:cc="http://creativecommons.org/ns#" xmlns:dc="http://purl.org/dc/elements/1.1/">
<path d="m198.75 488.17c-0.25781-0.25463-11.574-0.7153-25.147-1.0237-13.573-0.30841-24.986-0.75062-25.361-0.98268-33.07-2.31-64.638-6.58-93.415-18.35-4.229-1.4-6.001-2.11-10.957-4.69-13.542-6.03-14.935-5.76-28.613-16.81-22.498-16.5-18.661-49.85 10.526-72.78 6.6758-5.2444 7.1045-5.5434 37.969-26.473 27.251-18.479 51.95-31.554 103.12-54.592 18.079-8.1387 48.556-19.132 71.25-25.702 4.8984-1.4179 11.859-3.5457 15.469-4.7283 3.6094-1.1826 10.148-3.083 14.531-4.2231 4.3828-1.1401 9.8672-2.6442 12.188-3.3425 7.1513-2.1522 18.838-5.1463 27.188-6.9656 4.3828-0.95491 11.766-2.7751 16.406-4.0449 4.6406-1.2698 10.125-2.5838 12.188-2.9201 6.8695-1.12 8.8826-2.4259 11.401-7.3958l2.3889-4.7142-0.39224-70.762c-0.52255-94.269-2.7487-87.633 32.115-95.739 6.9368-1.6128 13.878-3.3182 15.425-3.7897 1.5469-0.4715 5.0517-1.1459 7.7885-1.4987 8.834-1.1388 8.4633 0.09058 9.0173-29.908 0.27724-15.013 0.86036-26.366 1.3628-26.534 1.6922-0.56405 2.2672 2.0269 2.432 10.957 0.11755 6.3714 0.62964 9.8911 1.7509 12.034 1.2094 2.3118 1.6434 5.976 1.8324 15.469 0.31393 15.77-0.0962 15.173 9.9323 14.444 4.4392-0.32292 14.821-1.0857 23.071-1.695 19.184-1.4169 55.124-1.3463 68.438 0.13456 5.6719 0.63086 15.586 1.7229 22.031 2.4268 22.551 2.4627 24.198 2.9082 25.297 6.8397 1.9211 6.8743 2.811 14.16 4.1957 34.352 6.6274 96.642 4.4474 93.54 60.976 86.772 19.671-2.3551 33.487-3.8746 47.344-5.2067 8.5078-0.81792 19.055-1.8974 23.438-2.3989 4.3828-0.50146 18.094-1.968 30.469-3.2591 12.375-1.291 26.086-2.744 30.469-3.2289 4.3828-0.48488 13.031-1.3423 19.219-1.9053 6.1875-0.56305 13.992-1.3968 17.344-1.8528 3.3516-0.456 11.367-1.2995 17.812-1.8745 6.4453-0.57497 14.883-1.4327 18.75-1.906 27.932-3.4188 55.609-3.1372 63.281 0.64387 6.247 3.0785 10.542 4.1049 13.102 3.1313 1.3688-0.52041 4.6921-0.94619 7.3852-0.94619s9.9429-0.64773 16.111-1.4394c6.1679-0.79167 14.8-1.8536 19.183-2.3598 8.9233-1.0307 25.456-3.2163 34.688-4.5857 24.558-3.6428 36.495-5.1872 57.656-7.4593 5.1562-0.55363 14.438-1.6388 20.625-2.4114 21.894-2.7339 50.184-5.2134 91.406-8.0114 22.945-1.5574 49.945-3.4029 60-4.1011s24.82-1.3318 32.812-1.4081c13.569-0.12948 63.545-2.2576 78.281-3.3334 3.6093-0.2635 15.633-0.70826 26.719-0.98835 11.086-0.2801 22.055-0.70506 24.375-0.94438 2.3203-0.23933 10.758-0.64876 18.75-0.90986 7.9922-0.26111 19.383-0.68922 25.312-0.95137 13.365-0.59088 34.106-1.2226 76.124-2.3187 17.892-0.46672 33.29-1.2545 34.219-1.7506 3.4362-1.8362 39.33-8.9232 45.716-9.0266l6.5282-0.10561 0.6547-3.2444c0.36-1.7844 1.5451-12.948 2.6334-24.807 2.4831-27.056 2.5109-27.202 5.5451-29.191 2.4854-1.6284 26.248-4.9287 35.979-4.997 5.7889-0.04065 6.2023 0.67302 10.572 18.25 8.2088 33.021 8.7569 34.346 13.41 32.418 1.556-0.6445 4.1381-0.88211 5.931-0.54577 2.955 0.55436 3.3816 0.30308 6.1479-3.6216 10.929-15.504 27.838-8.8627 27.652 10.861l-0.078 8.2471 2.998 1.2914c15.283 6.5827 18.038 35.304 3.706 38.629-4.8464 1.1246-6.8016 2.9812-6.8016 6.4589 0 21.141-22.534 30.176-31.438 12.605-1.2238-2.415-2.9523-4.67-3.8413-5.011-3.7262-1.4299-4.178 0.93268-7.3966 38.679-1.6608 19.478-0.4121 17.226-11.484 20.707-5.017 1.5773-10.388 3.2653-11.934 3.7509-4.4354 1.3926-19.818 2.3053-20.491 1.2159-0.5653-0.91466-3.2601-10.71-9.0868-33.029-8.1342-31.158-4.4498-28.988-32.522-19.157-12.767 4.471-26.377 9.08-30.244 10.242-7.8365 2.3549-40.586 13.39-57.188 19.269-26.072 9.2333-29.77 10.508-33.893 11.685-2.3988 0.68474-9.1488 3.0191-15 5.1874-5.8513 2.1683-15.279 5.5553-20.951 7.5267-5.6718 1.9713-14.32 5.0329-19.219 6.8035-4.8984 1.7706-12.07 4.3609-15.938 5.7562-22.833 8.2385-130.43 43.285-162.66 52.983-8.7656 2.6375-19.945 6.02-24.844 7.5167-4.8984 1.4967-12.703 3.833-17.344 5.1917-4.6406 1.3588-10.969 3.2116-14.062 4.1174-3.0937 0.90579-12.164 3.5791-20.156 5.9407-15.188 4.4878-20.73 6.0354-57.656 16.099-12.375 3.3728-25.453 6.9504-29.062 7.9504-16.22 4.4936-23.865 6.5208-29.531 7.8307-3.3516 0.77472-15.164 3.7169-26.25 6.5381s-25.008 6.2863-30.938 7.7001c-5.9297 1.4138-15.847 3.9762-22.038 5.6943-14.671 4.0713-53.785 13.896-65.15 16.364-4.8984 1.0638-15.867 3.5798-24.375 5.591-8.5078 2.0112-20.531 4.7629-26.719 6.1149-41.791 9.1318-50.854 11.098-60.469 13.122-24.095 5.0708-48.77 10.024-74.531 14.962-14.953 2.8662-31.195 6.02-36.094 7.0084-4.8984 0.98838-12.914 2.5099-17.812 3.3811-4.8984 0.87124-13.969 2.5756-20.156 3.7875-6.1875 1.2119-15.469 2.8692-20.625 3.6829-5.1562 0.81372-12.75 2.0953-16.875 2.8479-10.805 1.9714-95.552 15.804-114.38 18.668-25.39 3.8639-27.493 4.1663-39.844 5.7316-16.11 2.0418-20.132 2.4636-71.25 7.4721-35.795 3.5072-125.21 5.1046-158.44 4.8758zm105.94-26.416c13.664-0.76843 29.484-1.8177 35.156-2.3318 5.6719-0.51404 16.008-1.3871 22.969-1.9402 11.278-0.89604 30.512-2.7986 57.188-5.657 18.492-1.9815 89.348-12.011 109.62-15.517 7.5114-1.2989 23.36-3.9948 35.22-5.991 11.859-1.9962 25.359-4.3156 30-5.1542 15.076-2.7244 34.396-6.1219 48.098-8.4582 7.3757-1.2576 14.969-2.6782 16.875-3.1568 1.9055-0.47863 7.0505-1.3836 11.433-2.0111 4.3828-0.62748 14.086-2.3641 21.562-3.8592 7.4766-1.4951 21.398-4.2339 30.938-6.0864 9.5391-1.8524 19.031-3.6979 21.094-4.1011 6.5005-1.2707 44.628-9.2285 53.438-11.153 7.8876-1.7234 20.808-4.783 47.812-11.322 6.1875-1.4984 16.945-4.0479 23.906-5.6657 50.018-11.624 171.85-43.278 207.66-53.95 4.125-1.2296 14.039-3.8848 22.031-5.9005 7.9922-2.0157 18.961-4.9516 24.375-6.5242 5.4141-1.5726 19.547-5.6312 31.406-9.0192s22.967-6.6175 24.683-7.1768c1.7163-0.55928 8.4663-2.4745 15-4.256 6.5337-1.7816 14.2-3.8736 17.036-4.6491 2.8359-0.77546 10.641-3.0462 17.344-5.046 6.7031-1.9998 16.828-4.9702 22.5-6.6008 5.6718-1.6306 16.852-4.9976 24.844-7.4822 7.9922-2.4846 19.594-6.0522 25.781-7.9279 14.154-4.2906 113.19-37.07 125.16-41.424 9.1478-3.3289 33.165-11.74 39.844-13.953 2.0625-0.68361 8.3906-2.9873 14.062-5.1194 5.6718-2.1321 14.32-5.2739 19.219-6.9819 22.299-7.7753 78.292-29.832 80.109-31.557 0.4898-0.46482 1.8702-0.84514 3.0675-0.84514 1.1972 0 4.8795-1.2255 8.1828-2.7233s7.2971-3.0068 8.8749-3.3534c3.3795-0.74228 4.5901-2.2303 2.7761-3.4125-1.7044-1.1108-4.5502-0.372-12.006 3.1168-3.3887 1.5857-13.122 5.3041-21.63 8.263-8.5078 2.9589-17.367 6.0507-19.688 6.8706-7.7952 2.7546-36.738 12.471-78.281 26.279-22.688 7.5411-53.062 17.674-67.5 22.517-14.438 4.8432-39.539 13.119-55.781 18.392-16.242 5.2722-42.188 13.73-57.656 18.796-43.879 14.369-91.477 29.233-110.92 34.637-5.8351 1.6219-13.007 3.7781-15.938 4.7915-2.9305 1.0134-8.2814 2.6345-11.891 3.6024-3.6094 0.96788-11.836 3.3089-18.281 5.2022-20.59 6.0482-36.895 10.825-41.719 12.221-4.4487 1.2878-24.588 6.6951-34.688 9.3132-2.5782 0.66836-12.703 3.3772-22.5 6.0196-9.7969 2.6424-24.984 6.7117-33.75 9.0429-8.7656 2.3312-17.414 4.6426-19.219 5.1365-1.8047 0.49391-10.031 2.6424-18.281 4.7744s-17.953 4.6968-21.562 5.6995c-3.6094 1.0027-8.8828 2.3924-11.719 3.0882-2.8359 0.69576-9.1641 2.355-14.062 3.6873-4.8984 1.3322-13.336 3.4985-18.75 4.8138-5.4141 1.3153-23.555 5.7645-40.312 9.8869-27.101 6.6669-54.278 13.279-70.781 17.22-3.0938 0.73885-7.1016 1.6094-8.9062 1.9347-1.8047 0.32522-7.7109 1.608-13.125 2.8506-18.44 4.2321-45.712 9.804-73.125 14.94-10.055 1.8837-22.289 4.2106-27.188 5.1708-8.9145 1.7475-19.334 3.569-35.156 6.1463-4.6406 0.75591-10.336 1.7645-12.656 2.2414-3.8346 0.7881-28.035 4.6705-84.844 13.611-24.908 3.9202-61.889 9.4088-72.188 10.714-4.125 0.52275-10.9 1.3886-15.054 1.924-4.155 0.53546-15.967 1.8034-26.25 2.8177s-22.492 2.2687-27.133 2.7876c-67.298 7.525-186.55 7.968-247.5 0.91949-8.7656-1.0137-19.943-2.2661-24.838-2.7831-4.895-0.51695-13.965-1.7493-20.156-2.7385-6.1909-0.98921-13.787-2.0575-16.881-2.374-3.0938-0.31648-8.3672-1.1517-11.719-1.8561-12.808-2.6916-20.532-4.2097-31.406-6.1719-14.401-2.5986-18.058-3.5215-18.816-4.7483-1.8398-2.9768 2.1562-2.65 22.686 1.8552 85.405 18.742 204.1 25.649 307.85 17.914 65.119-4.8551 85.81-7.212 153.28-17.46 25.952-3.9419 40.211-6.1392 66.094-10.185 22.262-3.4798 62.407-10.416 110.62-19.113 13.562-2.4461 43.361-8.3238 64.688-12.759 42.152-8.7664 156.22-36.471 196.88-47.819 7.9922-2.2305 22.336-6.0217 31.875-8.4248 9.5391-2.4031 21.773-5.6487 27.188-7.2124 5.4141-1.5637 14.484-4.0142 20.156-5.4454 5.6719-1.4312 16.008-4.1474 22.969-6.0359 6.9609-1.8886 18.141-4.8608 24.844-6.6049 13.108-3.4106 49.622-13.836 61.875-17.666 7.043-2.2016 17.575-5.289 45.469-13.329 6.4453-1.8578 17.203-5.0542 23.906-7.1031 6.7031-2.0489 16.406-5.0055 21.562-6.5702 5.1562-1.5647 13.805-4.2708 19.219-6.0135 5.4141-1.7427 13.219-4.2494 17.344-5.5704 8.7762-2.8106 57.416-18.619 84.375-27.423 10.312-3.3677 20.648-6.6674 22.969-7.3326 2.3203-0.66527 9.2813-2.9755 15.469-5.1337 14.872-5.1877 111.16-37.523 112.97-37.935 3.3459-0.76453 83.451-28.521 84.297-29.209 2.8993-2.3576-7.3305 0.70571-40.452 12.113-21.794 7.5062-51.649 17.511-66.345 22.233-14.695 4.7218-47.18 15.31-72.188 23.53-25.008 8.2197-45.92 14.942-46.472 14.938s-8.5677 2.4894-17.812 5.54c-14.709 4.8536-22.932 7.3963-26.184 8.096-1.2728 0.27393-17.039 5.3265-31.875 10.215-6.7031 2.2087-16.406 5.3125-21.562 6.8972-22.604 6.9473-37.632 11.528-52.5 16.002-8.7656 2.638-18.469 5.6031-21.562 6.5891-3.0937 0.98593-9.8437 2.9286-15 4.317-5.1562 1.3884-12.75 3.5203-16.875 4.7377-4.125 1.2173-9.1875 2.6153-11.25 3.1067-4.4995 1.072-29.534 8.3485-44.531 12.944-5.9297 1.8168-14.643 4.3013-19.362 5.5212-4.7194 1.2198-19.063 4.9798-31.875 8.3555s-31.521 8.2791-41.576 10.896c-10.055 2.6174-21.023 5.547-24.375 6.5101-3.3516 0.96315-9.8906 2.6363-14.531 3.7181-4.6406 1.0818-10.547 2.5807-13.125 3.3308-8.6145 2.5064-36.521 10.015-39.844 10.721-1.8047 0.38326-10.875 2.6352-20.156 5.0042-23.67 6.0418-65.83 16.256-70.312 17.035-2.0625 0.35835-6.4922 1.4191-9.8438 2.3573-6.4921 1.8173-17.273 4.321-42.188 9.7973-8.5078 1.8701-16.965 3.7911-18.794 4.269-8.7706 2.2917-61.744 12.586-84.331 16.387-4.8984 0.82451-16.078 2.7454-24.844 4.2685-24.697 4.2916-42.543 7.2984-49.219 8.2929-3.3516 0.49925-16.219 2.4299-28.594 4.2903-28.987 4.3578-57.04 8.4049-71.25 10.279-6.1875 0.81608-12.516 1.7036-14.062 1.9722-8.5623 1.487-53.651 7.2167-66.094 8.3989-68.011 6.4618-96.281 7.9557-150.56 7.9557-23.52 0-48.731-0.40868-56.025-0.90819-7.2943-0.4995-21.278-1.3616-31.075-1.9159-9.7969-0.55422-20.344-1.3944-23.438-1.867-3.0938-0.47266-12.164-1.5511-20.156-2.3966-7.9922-0.8455-19.172-2.3567-24.844-3.3583-5.6719-1.0016-13.266-2.1956-16.875-2.6532-16.428-2.0833-40.951-7.5671-41.524-9.2856-0.54318-1.6295 9.5531-0.94075 18.555 1.2659 7.6213 1.8681 23.793 4.8125 32.916 5.9928 3.8103 0.493 14.522 1.9821 23.803 3.309 24.846 3.5523 30.475 4.2025 45.469 5.2521 7.4766 0.52339 19.711 1.4723 27.188 2.1088 63.846 5.4348 195.49-1.7855 287.34-15.759 5.1562-0.78446 12.961-1.8419 17.344-2.3499 7.4569-0.86431 12.354-1.5675 36.094-5.182 5.1562-0.7851 17.602-2.6502 27.656-4.1446 38.923-5.7852 44.651-6.6722 48.281-7.4769 4.6237-1.0249 16.119-3.0235 35.156-6.1124 7.9922-1.2968 16.641-2.7622 19.219-3.2564 2.5781-0.49428 9.75-1.7813 15.938-2.8601 15.096-2.632 52.559-9.9752 61.875-12.128 4.125-0.95341 11.508-2.6394 16.406-3.7467 4.8984-1.1073 13.336-3.0349 18.75-4.2835 5.4141-1.2486 15.539-3.5686 22.5-5.1554 29.239-6.6653 84.108-20.071 107.34-26.227 6.1875-1.6392 15.047-3.9516 19.688-5.1387 4.6406-1.1871 14.344-3.726 21.562-5.6418 7.2188-1.9159 20.086-5.2927 28.594-7.5041 8.5078-2.2114 21.164-5.5656 28.125-7.4539 6.9609-1.8882 20.695-5.4854 30.52-7.9935 20.665-5.2754 26.27-6.8209 61.823-17.046 14.438-4.1524 27.516-7.8795 29.062-8.2825 19.274-5.0208 59.273-16.613 90.469-26.219 6.4453-1.9846 18.258-5.6029 26.25-8.0405 7.9922-2.4377 21.914-6.8596 30.938-9.8265 9.0234-2.9669 23.578-7.5939 32.344-10.282 29.075-8.9167 62.667-19.542 73.594-23.278 10.47-3.5799 49.21-16.213 109.69-35.77 16.242-5.2522 33.539-10.955 38.438-12.673 10.35-3.6305 20.21-7.0242 43.594-15.004 14.817-5.0567 17.029-6.0742 18.136-8.3434 1.0682-2.1893 1.6415-2.4818 3.75-1.913 1.3689 0.36925 3.9655 1.009 5.7702 1.4216 1.8047 0.41263 5.8125 1.6422 8.9063 2.7324 5.2525 1.8509 23.828 6.9594 36.473 10.031 5.4094 1.3138 5.7446 1.2774 14.687-1.5939 15.635-5.0203 15.734-6.1358 0.8709-9.8233-13.104-3.251-18.75-5.1173-18.75-6.1976 0-1.6478 2.7583-1.9702 7.3764-0.86237 4.6679 1.1198 12.311 0.0245 12.311-1.7643 0-2.0521-4.4722-2.0559-83.906-0.0707-21.141 0.52833-48.562 1.3714-60.938 1.8735-12.375 0.50208-33.258 1.3459-46.406 1.8752-13.148 0.52925-32.977 1.364-44.062 1.855-19.145 0.84795-30.07 1.2621-62.344 2.3632-7.7344 0.26387-23.977 0.88544-36.094 1.3813-12.117 0.49582-28.781 1.1289-37.031 1.4068-21.178 0.71338-36.219 1.3384-45.469 1.8895-4.3828 0.26112-13.242 0.69434-19.688 0.96272-17.327 0.72148-43.112 2.219-54.844 3.1852-45.958 3.7848-69.925 5.9705-82.969 7.5664-3.8672 0.47315-9.9844 1.1263-13.594 1.4515-3.6094 0.32516-21.539 2.4771-39.844 4.7822-18.305 2.305-38.555 4.7656-45 5.4678-6.4453 0.70224-15.305 1.7348-19.688 2.2946-4.3828 0.5598-11.555 1.4706-15.938 2.024-4.3828 0.5534-14.391 2.0447-22.241 3.314-12.624 2.0412-14.573 2.1551-16.875 0.98605-14.874-7.5545-53.647-7.5998-121.2-0.14174-6.9609 0.76855-19.828 2.039-28.594 2.8232-8.7656 0.78419-22.898 2.2854-31.406 3.3361-8.5078 1.0506-19.477 2.29-24.375 2.754-37.972 3.5973-81.244 8.5215-99.844 11.362l-13.125 2.0043-5.967-3.0124c-14.554-7.3478-14.483-7.083-20.741-76.939-0.48498-5.4141-1.3345-14.062-1.8878-19.219-0.5533-5.1562-1.2614-12.868-1.5735-17.137-0.64987-8.8884-1.0836-9.4621-5.2388-6.9298-5.2441 3.196-14.67 5.3812-55.061 12.765-6.9609 1.2725-17.719 2.9893-23.906 3.8151-6.1875 0.82578-16.945 2.3068-23.906 3.2912-6.9609 0.9844-20.672 2.2227-30.469 2.7519-9.7969 0.52912-22.453 1.2241-28.125 1.5445-21.712 1.2262-27.447 0.70957-38.334-3.4536-2.5211-0.96405-4.8414-1.5936-5.1562-1.399-0.54776 0.33853-0.60127 34.308-0.17883 113.5 0.23765 44.551 1.3523 41.829-18.206 44.449-4.6406 0.62151-12.445 2.1168-17.344 3.3228-4.8984 1.206-13.969 3.3268-20.156 4.7129-6.1875 1.3861-12.516 2.9468-14.062 3.4683-1.5469 0.52147-8.0859 2.3448-14.531 4.0518-39.766 10.532-73.432 21.516-94.688 30.895-3.8672 1.7063-13.57 5.9549-21.562 9.4414-15.249 6.6523-42.874 20.151-46.875 22.905-1.2891 0.88738-4.6641 2.8218-7.5 4.2987-16.247 8.4609-45.815 28.041-64.219 42.524-18.703 14.719-30.24 28.577-30.683 36.855-0.68527 12.812 3.227 18.337 19.276 27.222 23.885 13.223 90.326 24.664 152.97 26.34 24.374 0.65217 104.2-0.41591 127.03-1.6996zm62.344-214.24c-11.884-1.3724-14.235-4.6081-3.5156-4.8385 9.0558-0.19467 11.806-0.33534 21.797-1.1151 4.8984-0.3823 21.562-1.0934 37.031-1.5801 15.469-0.48678 34.664-1.5326 42.656-2.324 7.9922-0.79141 21.703-2.0317 30.469-2.7563 14.406-1.1908 37.368-3.8274 65.625-7.5353 5.6719-0.74428 18.117-2.213 27.656-3.2638 21.13-2.3276 22.467-2.496 29.531-3.7185 3.0938-0.53537 11.742-1.8112 19.219-2.8352 7.4766-1.024 18.023-2.5077 23.438-3.2972 5.4141-0.78946 13.219-1.8795 17.344-2.4223 12.473-1.6413 71.721-11.044 85.312-13.539 37.733-6.9266 83.767-15.717 95.625-18.261 31.592-6.7762 47.495-9.1372 49.037-7.28 2.3434 2.8236-3.9538 4.991-22.318 7.6816-4.8984 0.7177-12.07 1.9335-15.938 2.7017-3.8672 0.76824-12.727 2.4824-19.688 3.8092-6.9609 1.3268-21.305 4.0614-31.875 6.0768-10.57 2.0155-24.492 4.5968-30.938 5.7362-6.4453 1.1394-21.422 3.9018-33.281 6.1385s-28.102 5.1684-36.094 6.5149c-7.9922 1.3465-16.329 2.849-18.527 3.339-3.9595 0.88274-13.525 2.3495-45.223 6.9345-9.0234 1.3052-22.945 3.4173-30.938 4.6935-15.048 2.4029-59.272 7.9193-94.219 11.752-4.125 0.45246-13.406 1.4768-20.625 2.2762-29.366 3.2523-70.41 5.9718-99.844 6.6155-13.148 0.28754-26.648 0.66285-30 0.834-3.3516 0.17116-8.625 0.0188-11.719-0.33843zm7.5116-15.249c-2.8761-16.166-0.62175-126.84 2.5196-123.7 1.8718 1.8718 2.625 1.286 2.625-2.0415 0-3.8788 2.0043-5.9682 3.7303-3.8885 0.76365 0.92015 0.90943 2.3003 0.42207 3.9959-0.40949 1.4247-0.773 28.536-0.80782 60.247-0.0411 37.436-0.39208 57.821-1.0008 58.125-1.7039 0.85197-2.357-14.652-2.5868-61.406-0.14858-30.238-0.54611-45.777-1.1632-45.469-0.61426 0.30713-0.84539 20.591-0.67035 58.828 0.26553 58.004-0.41296 70.236-3.068 55.312zm1264.4-8.1009 9.6982-2.5976 1.9741-4.1429c1.3073-2.7433 2.3438-7.7853 3.0678-14.924 0.6015-5.9297 1.5301-15 2.0637-20.156 0.5336-5.1562 1.0515-13.313 1.151-18.126l0.1809-8.7511-7.3075-0.2825c-7.1117-0.27494-7.6015-0.14719-18.28 4.7667-6.035 2.7771-11.606 5.0472-12.38 5.0447-12.202-0.0392-16.739 6.013-13.708 18.286 12.297 49.789 10.134 47.153 33.54 40.883zm47.814-49.79c1.6187-1.5469 3.2937-2.8125 3.7224-2.8125 4.6423 0 6.362-15.46 1.9702-17.712-1.923-0.98616-4.5511-2.9275-5.8402-4.3141-3.783-4.0692-4.9406-4.3427-10.444-2.4678-4.1884 1.4269-5.0288 2.0865-5.0483 3.9623-0.013 1.2377-0.3719 5.0367-0.7977 8.4421-1.5703 12.557 8.9302 22.076 16.438 14.902zm-19.425-13.359c1.8408-8.7164 0.9014-11.348-3.2568-9.1222-2.4018 1.2854-1.1259 11.232 1.4408 11.232 0.7537 0 1.5709-0.94922 1.816-2.1094zm39.552-12.221c11.9-6.7974 5.7558-33.228-6.6199-28.479-1.931 0.74098-0.4183 3.4344 1.9287 3.4344 0.7555 0 1.2915 0.98104 1.2915 2.3638 0 2.5301-0.045 2.5574-10.078 6.1053-6.1702 2.1819-7.4568 4.0517-3.4755 5.0509 3.3029 0.82898 3.8698 3.0141 1.3181 5.0803-5.4307 4.3976 8.8871 10.299 15.635 6.4445zm-15.542-29.967c11.588-12.264 2.5251-32.694-11.326-25.531-6.5073 3.3651-7.0155 18.874-0.8614 26.289 1.877 2.2616 9.7996 1.769 12.187-0.75784zm-101.64-0.044c1.7332-1.7332-5.5372-3.4709-10.905-2.6064-7.0527 1.1358-8.9603 2.2-5.1544 2.8754 3.5336 0.62714 15.362 0.42904 16.06-0.26898zm32.415-0.47708c1.4196-1.4196-0.7898-60.048-2.3329-61.908-3.442-4.1472-15.672 0.09628-15.672 5.4377 0 1.9154-0.6466 7.6645-1.4368 12.776-2.8745 18.591-5.0412 42.953-3.9385 44.282 1.2793 1.5415 21.767 1.0267 23.381-0.58747zm33.489-0.56913c0.6065-0.73076 0.1297-4.0684-1.4237-9.9652-1.2845-4.8766-2.934-11.398-3.6655-14.491-4.6645-19.729-10.051-36.927-11.942-38.127-1.8986-1.2053-10.702-0.90843-11.646 0.39273-1.1201 1.5442 0.4946 60.812 1.6965 62.269 1.2538 1.5206 25.713 1.4497 26.981-0.0781zm16.569 0.009c0.7624-1.9865-3.3156-10.689-5.9972-12.798-5.2065-4.0954-8.8327 5.1512-4.5709 11.656 1.8582 2.8361 9.5973 3.673 10.568 1.1428zm-1249.1-29.567c5.6992-0.48903 16.057-1.3559 23.018-1.9264 19.298-1.5816 42.951-4.9885 75.938-10.938 30.095-5.428 47.732-12.064 35.148-13.224-1.5425-0.14221-6.8123-1.0884-11.711-2.1025-20.15-4.1719-75.898-5.6933-102.19-2.7889-22.206 2.4533-20.856 1.9071-21.542 8.7134-0.70931 7.0365-8.4581 6.8634-8.4581-0.18895 0-4.4284-2.0696-5.3573-7.866-3.5301-2.7252 0.85906-5.7617 1.5558-6.7476 1.5483-4.7163-0.03574-38.982 11.337-41.378 13.733-3.4829 3.4829 2.601 8.8673 12.398 10.973 3.7195 0.79931 43.26 0.60029 53.388-0.26871z"/>
</svg>
