<svg xmlns="http://www.w3.org/2000/svg" x="0px" y="0px"
width="100" height="100"
viewBox="0 0 226 226"
style=" fill:#000000;"><g fill="none" fill-rule="nonzero" stroke="none" stroke-width="1" stroke-linecap="butt" stroke-linejoin="miter" stroke-miterlimit="10" stroke-dasharray="" stroke-dashoffset="0" font-family="none" font-weight="none" font-size="none" text-anchor="none" style="mix-blend-mode: normal"><path d="M0,226v-226h226v226z" fill="none"></path><g fill="#cccccc"><path d="M95.90875,0c-5.75594,0 -10.17,9.56969 -10.17,15.96125c0,13.91313 5.9325,20.35766 10.735,25.56625c1.90687,2.06578 3.83141,4.02562 5.085,6.215c4.85547,8.51031 21.64656,102.38859 -22.035,154.38625c-1.90687,2.27766 -4.73188,3.69016 -7.76875,5.085c-5.95016,2.73672 -12.7125,5.80891 -12.7125,16.80875c0,1.25359 1.00641,2.26 2.26,2.26h94.49625c0.60031,0 1.13,-0.2825 1.55375,-0.70625c0.42375,-0.42375 0.70625,-0.95344 0.70625,-1.55375c0,-9.25188 -8.21016,-14.00141 -14.83125,-17.7975c-2.38359,-1.37719 -4.73188,-2.57781 -6.07375,-3.81375c-5.86187,-5.42047 -3.63719,-14.23094 -0.2825,-27.4025c3.49594,-13.73656 8.35141,-32.52281 5.22625,-56.35875c-2.36594,-18.15063 -5.75594,-32.29328 -8.475,-43.64625c-2.47187,-10.27594 -4.52,-18.32719 -4.52,-24.71875c0,-1.43016 2.57781,-3.86672 5.085,-6.215c4.96141,-4.64359 11.75906,-11.03516 12.85375,-21.04625c0.90047,-8.29844 -1.88922,-12.83609 -3.6725,-14.83125c-1.85391,-2.06578 -4.18453,-3.24875 -6.35625,-3.24875c-3.47828,0 -4.92609,4.53766 -7.20375,11.44125c-1.46547,4.44938 -3.30172,10.04641 -5.22625,11.72375c-2.91328,2.5425 -5.47344,3.08984 -10.02875,1.695c-5.19094,-1.57141 -6.4975,-8.35141 -7.76875,-14.83125c-1.4125,-7.16844 -2.94859,-14.9725 -10.87625,-14.9725zM216.1125,33.9c-6.26797,0 -7.08016,7.94531 -7.48625,11.72375c-0.07062,0.61797 -0.07062,1.07703 -0.14125,1.4125l-0.14125,0.8475c-0.82984,4.13156 -2.41891,11.72375 -6.92125,11.72375c-5.70297,0 -7.39797,-5.50875 -7.91,-7.91c-1.67734,-7.92766 -6.17969,-12.25344 -12.57125,-11.5825c-2.17172,0.24719 -3.91969,1.37719 -5.085,3.1075c-2.825,4.16687 -1.04172,10.57609 -0.8475,11.3c2.13641,7.80406 5.86187,12.28875 8.89875,15.82c4.37875,5.10266 7.27438,8.49266 3.955,19.63375c-6.55047,22.01734 -21.45234,35.77156 -36.16,41.66875c0.26484,12.80078 -1.34187,23.88891 -3.39,33.335c45.34125,-12.57125 62.09703,-56.39406 64.6925,-82.06625c0.65328,-6.40922 2.10109,-11.03516 5.22625,-15.96125c0.75922,-1.20063 1.55375,-2.26 2.26,-3.24875c2.03047,-2.825 3.93734,-5.49109 4.8025,-9.8875c0.67094,-3.44297 1.80094,-12.05922 -2.11875,-16.80875c-1.695,-2.04812 -4.14922,-3.1075 -7.0625,-3.1075zM41.245,34.1825c-2.34828,0 -7.76875,0.98875 -7.76875,10.735c0,8.79281 4.37875,13.48937 8.1925,17.65625c2.29531,2.48953 4.39641,4.89078 5.79125,8.05125l1.13,2.68375c8.61625,19.73969 19.29828,43.68156 50.0025,54.805c1.14766,-10.02875 1.43016,-19.84562 1.27125,-28.95625c-13.45406,-5.12031 -24.10078,-17.02062 -26.2725,-24.0125c-1.90687,-6.12672 -0.52969,-7.52156 2.26,-10.4525c3.30172,-3.46062 7.91,-8.31609 7.91,-21.89375c0,-3.72547 -4.09625,-7.16844 -7.76875,-7.91c-4.48469,-0.91812 -9.09297,1.83625 -9.46375,5.65c-1.21828,12.35938 -5.12031,13.98375 -8.33375,13.98375c-4.82016,0 -8.21016,-7.53922 -8.89875,-10.4525c-0.54734,-2.43656 -2.20703,-9.8875 -8.05125,-9.8875zM7.48625,93.36625c-2.34828,0 -7.345,0.98875 -7.345,10.735c0,8.1925 3.76078,12.64188 7.48625,16.52625c2.57781,2.68375 5.03203,5.13797 5.9325,8.7575c5.65,22.68828 18.3625,44.51141 69.495,51.6975c4.85547,-8.88109 8.43969,-18.52141 11.0175,-28.39125c-22.33516,-0.10594 -49.26094,-6.40922 -55.6525,-18.08c-2.93094,-5.3675 -1.57141,-6.67406 1.9775,-10.02875c4.04328,-3.83141 9.605,-9.11062 9.605,-22.6c0,-3.72547 -4.09625,-7.16844 -7.76875,-7.91c-4.46703,-0.90047 -9.07531,1.83625 -9.46375,5.65c-1.21828,12.35937 -5.12031,13.98375 -8.33375,13.98375c-4.55531,0 -8.12187,-7.27437 -8.89875,-10.59375c-0.54734,-2.43656 -2.20703,-9.74625 -8.05125,-9.74625z"></path></g></g></svg>
